<svg
    [style.width]="width"
    [style.height]="width"
    [style.margin]="margin"
    [attr.fill] = "bgColor"
    viewBox="0 0 24 24"
    xmlns="http://www.w3.org/2000/svg"
>
    <path
        d="M12 2.25C10.0716 2.25 8.18657 2.82183 6.58319 3.89317C4.97982 4.96451 3.73013 6.48726 2.99218 8.26884C2.25422 10.0504 2.06114 12.0108 2.43735 13.9021C2.81355 15.7934 3.74215 17.5307 5.10571 18.8943C6.46928 20.2579 8.20656 21.1865 10.0979 21.5627C11.9892 21.9389 13.9496 21.7458 15.7312 21.0078C17.5127 20.2699 19.0355 19.0202 20.1068 17.4168C21.1782 15.8134 21.75 13.9284 21.75 12C21.745 9.41566 20.7162 6.93859 18.8888 5.11118C17.0614 3.28378 14.5843 2.25496 12 2.25ZM12 20.25C10.3683 20.25 8.77326 19.7661 7.41655 18.8596C6.05984 17.9531 5.00242 16.6646 4.378 15.1571C3.75358 13.6496 3.5902 11.9908 3.90853 10.3905C4.22685 8.79016 5.01259 7.32015 6.16637 6.16637C7.32016 5.01259 8.79017 4.22685 10.3905 3.90852C11.9909 3.59019 13.6497 3.75357 15.1571 4.37799C16.6646 5.00242 17.9531 6.05984 18.8596 7.41655C19.7661 8.77325 20.25 10.3683 20.25 12C20.2475 14.1873 19.3775 16.2843 17.8309 17.8309C16.2843 19.3775 14.1873 20.2475 12 20.25ZM15.1313 11.4469C15.208 11.5171 15.2693 11.6026 15.3112 11.6978C15.3531 11.7931 15.3747 11.896 15.3747 12C15.3747 12.104 15.3531 12.2069 15.3112 12.3022C15.2693 12.3974 15.208 12.4829 15.1313 12.5531L11.3813 15.9281C11.2421 16.0532 11.0621 16.1232 10.875 16.125C10.7709 16.1255 10.6678 16.1041 10.5724 16.0621C10.4771 16.0201 10.3918 15.9585 10.3219 15.8812C10.1877 15.7345 10.1172 15.5405 10.126 15.3419C10.1348 15.1432 10.2221 14.9562 10.3688 14.8219L13.5 12L10.3688 9.17813C10.227 9.04263 10.1439 8.85699 10.1374 8.661C10.1309 8.46501 10.2013 8.27425 10.3337 8.12959C10.4661 7.98494 10.6499 7.89789 10.8457 7.8871C11.0415 7.87631 11.2338 7.94264 11.3813 8.07187L15.1313 11.4469Z"
        [attr.fill]="color"
    />
</svg>
