<svg width="56" height="59" viewBox="0 0 56 59" fill="none" xmlns="http://www.w3.org/2000/svg">
<g clip-path="url(#clip0_4444_3340)">
<path d="M36.8932 24.3952C36.6329 25.4519 36.473 26.7603 36.0061 27.8879C35.0126 30.2453 33.9167 32.5425 32.8208 34.8396C30.7198 39.1849 28.5743 43.5589 26.2784 48.2844C25.3432 44.7084 26.4097 40.9089 23.5731 37.808C23.2432 38.4662 22.8572 38.8439 22.9133 39.1244C23.7522 43.5238 23.5912 47.9392 23.0924 52.3206C22.7188 55.9232 24.0336 56.7802 27.1219 55.2165C30.3433 53.5663 33.7674 52.228 37.0757 50.7114C37.6219 50.4832 38.0388 49.9586 38.6313 49.5101C36.4979 48.171 36.4979 48.171 28.8407 50.8662C29.1861 50.1345 29.4272 49.534 29.6973 48.9781C32.5605 43.3767 35.4527 37.8199 38.2137 32.1583C39.0992 30.3148 39.7801 28.3507 40.1966 26.3684C40.9369 22.8443 39.3129 20.5401 35.7454 20.0064C33.925 19.7317 32.012 19.8975 30.157 20.1524C28.0664 20.4336 26.0165 21.0688 23.9395 21.468C22.4667 21.728 20.9514 21.8255 19.3762 22.0253C19.0109 20.2976 19.6843 19.0991 20.211 17.8693C22.4528 12.6719 25.3954 7.96983 28.9674 3.55597C29.3842 3.03145 29.9034 2.56719 30.1889 1.93784C30.3394 1.58645 30.2427 0.951973 30.0109 0.595465C29.8951 0.41721 29.175 0.378113 28.8797 0.506682C28.0961 0.952662 27.2816 1.54549 26.6872 2.18543C22.3933 6.75159 19.0049 11.9336 16.6397 17.7184C16.1285 18.8748 15.8219 20.1518 15.6774 21.3868C15.4348 23.6365 16.4351 25.0782 18.6821 25.3292C20.518 25.5305 22.402 25.3201 24.2281 25.0206C26.9228 24.6003 29.5325 23.8548 32.2272 23.4344C33.6846 23.2478 35.2443 23.1214 36.8932 24.3952Z" fill="#979797"/>
</g>
<defs>
<clipPath id="clip0_4444_3340">
<rect width="46.6087" height="35.3324" fill="white" transform="matrix(0.545003 0.838434 0.838434 -0.545003 0 19.2563)"/>
</clipPath>
</defs>
</svg>
