<svg width="439" height="481" viewBox="0 0 439 481" fill="none" xmlns="http://www.w3.org/2000/svg">
<g opacity="0.04" clip-path="url(#clip0_234_6844)">
<path d="M158.087 28.712C185.059 30.8433 205.196 54.4362 203.065 81.4082C200.933 108.38 177.34 128.517 150.368 126.386C123.397 124.255 103.259 100.662 105.391 73.6898C107.522 46.7179 131.115 26.5806 158.087 28.712Z" fill="#9289D2"/>
<g clip-path="url(#clip1_234_6844)">
<g clip-path="url(#clip2_234_6844)">
<g clip-path="url(#clip3_234_6844)">
<path fill-rule="evenodd" clip-rule="evenodd" d="M150.484 127.419C122.992 125.247 102.396 101.117 104.568 73.6237C106.741 46.1308 130.871 25.5348 158.364 27.7073C185.857 29.8798 206.452 54.0102 204.28 81.5031C202.107 108.996 177.977 129.592 150.484 127.419ZM157.839 34.3497C134.014 32.4669 113.093 50.3233 111.21 74.149C109.327 97.9747 127.184 118.895 151.009 120.778C174.835 122.661 195.756 104.804 197.638 80.9787C199.521 57.153 181.665 36.2324 157.839 34.3497Z" fill="#9289D2"/>
</g>
<g clip-path="url(#clip4_234_6844)">
<path fill-rule="evenodd" clip-rule="evenodd" d="M151.635 112.837C132.184 111.3 117.611 94.2263 119.148 74.7747C120.685 55.3231 137.759 40.7501 157.21 42.2872C176.662 43.8243 191.235 60.898 189.698 80.3496C188.161 99.8012 171.087 114.374 151.635 112.837ZM156.733 48.3253C140.618 47.0518 126.464 59.1325 125.191 75.2481C123.917 91.3637 135.998 105.517 152.113 106.791C168.229 108.064 182.383 95.9837 183.656 79.8681C184.929 63.7525 172.849 49.5988 156.733 48.3253Z" fill="white"/>
</g>
<path d="M153.286 91.968C151.452 91.8232 150.08 90.2152 150.225 88.3817L151.976 66.2234C152.121 64.3898 153.728 63.0174 155.562 63.1623C157.396 63.3072 158.768 64.9151 158.623 66.7487L156.872 88.907C156.727 90.7405 155.119 92.1129 153.286 91.968Z" fill="white"/>
</g>
</g>
</g>
<g opacity="0.04" clip-path="url(#clip5_234_6844)">
<g clip-path="url(#clip6_234_6844)">
<g clip-path="url(#clip7_234_6844)">
<path d="M404.877 216.32L334.303 226.805C329.437 227.528 324.893 224.159 324.17 219.294L313.686 148.719C312.963 143.854 316.332 139.31 321.197 138.587L391.771 128.102C396.636 127.379 401.181 130.748 401.904 135.613L412.388 206.188C413.111 211.053 409.742 215.597 404.877 216.32Z" fill="#6AD2C0"/>
</g>
<path fill-rule="evenodd" clip-rule="evenodd" d="M361.297 165.743C357.883 166.25 355.517 169.441 356.024 172.855C356.532 176.27 359.723 178.631 363.137 178.124C366.551 177.617 368.913 174.43 368.406 171.016C367.899 167.602 364.711 165.235 361.297 165.743M360.38 159.568C367.208 158.553 373.566 163.267 374.581 170.099C375.595 176.927 370.882 183.285 364.054 184.3C357.222 185.315 350.864 180.601 349.849 173.773C348.834 166.941 353.547 160.583 360.38 159.568Z" fill="white"/>
<path d="M365.826 196.22C364.119 196.473 362.532 195.293 362.279 193.591L360.705 182.991C360.452 181.289 361.627 179.698 363.334 179.445C365.041 179.191 366.627 180.371 366.88 182.074L368.455 192.673C368.708 194.376 367.533 195.966 365.826 196.22Z" fill="white"/>
</g>
</g>
<g opacity="0.04" clip-path="url(#clip8_234_6844)">
<rect x="64.3906" y="304.042" width="181.197" height="98.8347" transform="rotate(3.92676 64.3906 304.042)" fill="#F8B990"/>
<g clip-path="url(#clip9_234_6844)">
<rect x="68.3379" y="246.522" width="181.197" height="57.6536" transform="rotate(3.92676 68.3379 246.522)" fill="white"/>
<g clip-path="url(#clip10_234_6844)">
<g clip-path="url(#clip11_234_6844)">
<path fill-rule="evenodd" clip-rule="evenodd" d="M228.356 424.881L65.1732 413.68C53.9239 412.908 45.3991 403.194 46.1666 392.012L55.2045 260.347C55.9713 249.174 65.7442 240.707 76.9936 241.479L240.176 252.68C251.425 253.452 259.949 263.176 259.183 274.348L250.145 406.014C249.377 417.196 239.605 425.654 228.356 424.881ZM76.0193 255.666C72.6434 255.434 69.713 257.971 69.4829 261.323L60.4451 392.989C60.2149 396.341 62.7706 399.265 66.1465 399.496L229.329 410.698C232.705 410.929 235.636 408.383 235.866 405.03L244.904 273.364C245.134 270.012 242.578 267.099 239.202 266.867L76.0193 255.666Z" fill="#F8B990"/>
</g>
<path d="M117.689 276.885C113.413 276.591 110.194 272.885 110.486 268.62L112.715 236.149C113.009 231.873 116.704 228.652 120.98 228.946C125.256 229.239 128.476 232.935 128.183 237.211L125.954 269.682C125.661 273.946 121.965 277.178 117.689 276.885Z" fill="#F8B990"/>
<path d="M195.027 282.193C190.752 281.899 187.531 278.193 187.824 273.928L190.053 241.457C190.347 237.181 194.042 233.96 198.318 234.254C202.594 234.547 205.814 238.243 205.521 242.518L203.292 274.99C202.999 279.254 199.303 282.486 195.027 282.193Z" fill="#F8B990"/>
<rect x="58.1738" y="297.928" width="193.384" height="15.5084" transform="rotate(3.92676 58.1738 297.928)" fill="#F8B990"/>
</g>
</g>
</g>
<defs>
<clipPath id="clip0_234_6844">
<rect width="145" height="145" fill="white" transform="translate(86.8438) rotate(4.51822)"/>
</clipPath>
<clipPath id="clip1_234_6844">
<rect width="144.339" height="144.339" fill="white" transform="translate(86.8418) rotate(4.51822)"/>
</clipPath>
<clipPath id="clip2_234_6844">
<rect width="100.847" height="101.594" fill="white" transform="translate(107.766 23.7063) rotate(4.51822)"/>
</clipPath>
<clipPath id="clip3_234_6844">
<rect width="100.847" height="101.594" fill="white" transform="translate(107.766 23.707) rotate(4.51822)"/>
</clipPath>
<clipPath id="clip4_234_6844">
<rect width="71.3093" height="72.7837" fill="white" transform="translate(121.557 37.446) rotate(4.51822)"/>
</clipPath>
<clipPath id="clip5_234_6844">
<rect width="135" height="135" fill="white" transform="translate(285.047 120.805) rotate(-8.4502)"/>
</clipPath>
<clipPath id="clip6_234_6844">
<rect width="89.1863" height="89.1862" fill="white" transform="translate(312.375 139.896) rotate(-8.4502)"/>
</clipPath>
<clipPath id="clip7_234_6844">
<rect width="89.1863" height="89.1862" fill="white" transform="translate(312.375 139.896) rotate(-8.4502)"/>
</clipPath>
<clipPath id="clip8_234_6844">
<rect width="288" height="288" fill="white" transform="translate(19.7227 173.014) rotate(3.92676)"/>
</clipPath>
<clipPath id="clip9_234_6844">
<rect width="288.268" height="288.268" fill="white" transform="translate(19.7227 173.013) rotate(3.92676)"/>
</clipPath>
<clipPath id="clip10_234_6844">
<rect width="204.458" height="188.124" fill="white" transform="translate(57.6582 224.602) rotate(3.92676)"/>
</clipPath>
<clipPath id="clip11_234_6844">
<rect width="204.458" height="172.607" fill="white" transform="translate(56.5957 240.08) rotate(3.92676)"/>
</clipPath>
</defs>
</svg>
