<svg width="498" height="500" viewBox="0 0 498 500" fill="none" xmlns="http://www.w3.org/2000/svg">
<g opacity="0.04" clip-path="url(#clip0_234_6890)">
<circle cx="175.88" cy="387.374" r="71.3902" transform="rotate(-4.06243 175.88 387.374)" fill="#BBE17B"/>
<g clip-path="url(#clip1_234_6890)">
<g clip-path="url(#clip2_234_6890)">
<ellipse cx="173.035" cy="383.715" rx="51.3283" ry="51.3285" transform="rotate(-4.06243 173.035 383.715)" fill="white"/>
</g>
<path fill-rule="evenodd" clip-rule="evenodd" d="M173.133 357.152C183.483 356.417 192.502 364.24 193.237 374.59C193.972 384.941 186.149 393.959 175.799 394.694C165.449 395.429 156.43 387.607 155.695 377.256C154.96 366.906 162.783 357.888 173.133 357.152ZM176.391 403.021C191.007 401.983 204.178 411.429 207.857 425.527C199.476 432.109 189.432 435.985 178.786 436.741C168.139 437.498 157.648 435.08 148.421 429.748C150.071 415.272 161.775 404.059 176.391 403.021ZM202.376 402.824C199.14 400.288 195.556 398.3 191.708 396.906C198.521 391.301 202.191 382.82 201.564 374.002C200.503 359.06 187.484 347.768 172.541 348.829C157.599 349.89 146.307 362.909 147.368 377.851C147.994 386.669 152.825 394.546 160.362 399.133C156.748 401.058 153.48 403.532 150.637 406.498C145.811 411.532 142.45 417.733 140.878 424.483C129.782 415.216 122.857 401.737 121.835 387.348C119.753 358.028 141.912 332.48 171.232 330.398C200.552 328.316 226.1 350.475 228.182 379.795C229.204 394.185 224.254 408.508 214.578 419.249C212.069 412.788 207.865 407.125 202.376 402.824Z" fill="#BBE17B"/>
</g>
</g>
<g opacity="0.04" clip-path="url(#clip3_234_6890)">
<rect x="251.826" y="61.2124" width="160" height="201.6" rx="16.9082" transform="rotate(-5.71917 251.826 61.2124)" fill="#6B9CB2"/>
<rect x="300.566" y="110.589" width="75.6809" height="14.3972" rx="7.19862" transform="rotate(-5.71917 300.566 110.589)" fill="white"/>
<rect x="304.479" y="149.659" width="75.6809" height="14.3972" rx="7.19862" transform="rotate(-5.71917 304.479 149.659)" fill="white"/>
<rect x="308.393" y="188.73" width="75.6809" height="14.3972" rx="7.19862" transform="rotate(-5.71917 308.393 188.73)" fill="white"/>
</g>
<g opacity="0.04" clip-path="url(#clip4_234_6890)">
<g clip-path="url(#clip5_234_6890)">
<g clip-path="url(#clip6_234_6890)">
<g clip-path="url(#clip7_234_6890)">
<path d="M92.3735 243.602L81.8283 229.909L37.1732 224.245C31.97 223.369 28.4592 218.431 29.336 213.227L36.8633 153.876C37.3137 148.614 41.9416 144.709 47.2058 145.141L119.912 154.362C125.117 155.258 128.623 160.195 127.746 165.403L120.219 224.754C119.769 230.011 115.137 233.916 109.879 233.467L102.041 232.472L100.498 244.633C100.105 246.093 98.6226 246.971 97.1496 246.609C95.231 246.264 93.516 245.188 92.3735 243.602Z" fill="#EB7C7C"/>
<path d="M97.1538 246.614C95.5635 246.412 93.7319 245.381 92.3733 243.606L81.828 229.913L37.1683 224.249C32.1517 223.613 28.6436 218.689 29.3364 213.227L36.8631 153.881C37.5553 148.423 42.1842 144.508 47.2009 145.145L119.916 154.367C124.933 155.003 128.438 159.95 127.746 165.407L120.219 224.754C119.526 230.216 114.9 234.108 109.884 233.471L102.045 232.477L100.503 244.637C100.103 246.189 98.7488 246.816 97.1538 246.614Z" fill="#EB7C7C"/>
</g>
<path d="M75.3392 181.287L59.044 179.221C57.2855 178.998 56.044 177.39 56.2665 175.636C56.4895 173.878 58.0923 172.636 59.8508 172.859L76.146 174.925C77.9046 175.148 79.1465 176.751 78.9235 178.51C78.701 180.264 77.0978 181.51 75.3392 181.287Z" fill="#EB7C7C"/>
</g>
<path d="M75.3392 181.288L59.044 179.221C57.2855 178.998 56.044 177.391 56.2665 175.637C56.4895 173.878 58.0923 172.636 59.8508 172.859L76.146 174.926C77.9046 175.149 79.1465 176.752 78.9235 178.51C78.701 180.265 77.0978 181.511 75.3392 181.288Z" fill="white" stroke="white" stroke-width="1.12721"/>
<path d="M84.8871 200.722L56.768 197.156C55.0095 196.933 53.7681 195.326 53.9905 193.572C54.2136 191.813 55.817 190.567 57.5754 190.79L85.6945 194.356C87.453 194.579 88.699 196.187 88.4759 197.946C88.2535 199.7 86.6456 200.946 84.8871 200.722Z" fill="white" stroke="white" stroke-width="1.12721"/>
</g>
</g>
<defs>
<clipPath id="clip0_234_6890">
<rect width="210" height="210" fill="white" transform="translate(59.7363 290.143) rotate(-4.06243)"/>
</clipPath>
<clipPath id="clip1_234_6890">
<rect width="106.615" height="106.615" fill="white" transform="translate(118.059 334.176) rotate(-4.06243)"/>
</clipPath>
<clipPath id="clip2_234_6890">
<rect width="102.657" height="102.657" fill="white" transform="translate(118.199 336.151) rotate(-4.06243)"/>
</clipPath>
<clipPath id="clip3_234_6890">
<rect width="280" height="280" fill="white" transform="translate(191.057 27.9028) rotate(-5.71917)"/>
</clipPath>
<clipPath id="clip4_234_6890">
<rect width="140" height="140" fill="white" transform="translate(17.6152 116.318) rotate(7.22805)"/>
</clipPath>
<clipPath id="clip5_234_6890">
<rect width="91.6269" height="94.3963" fill="white" transform="translate(38.1094 143.99) rotate(7.22805)"/>
</clipPath>
<clipPath id="clip6_234_6890">
<rect width="91.6269" height="94.3963" fill="white" transform="translate(38.1094 143.989) rotate(7.22805)"/>
</clipPath>
<clipPath id="clip7_234_6890">
<rect width="91.6269" height="94.3963" fill="white" transform="translate(38.1094 143.988) rotate(7.22805)"/>
</clipPath>
</defs>
</svg>
