<svg xmlns="http://www.w3.org/2000/svg" width="63" height="63" viewBox="0 0 63 63">
  <defs>
    <style>
      .cls-1 {
        fill: none;
      }

      .cls-2 {
        fill: #eb7c7c;
      }

      .cls-3 {
        fill: #fff;
      }
    </style>
  </defs>
  <g id="채팅" transform="translate(0.428 -0.039)">
    <rect id="사각형_3092" data-name="사각형 3092" class="cls-1" width="63" height="63" transform="translate(-0.428 0.039)"/>
    <g id="그룹_5151" data-name="그룹 5151" transform="translate(10.573 10.039)">
      <g id="그룹_5145" data-name="그룹 5145">
        <g id="합치기_79" data-name="합치기 79">
          <path id="패스_2235" data-name="패스 2235" class="cls-2" d="M192.146,43.294,186.7,37.818H166.594a4.273,4.273,0,0,1-4.093-4.442V6.649A4.285,4.285,0,0,1,166.594,2.2h32.741a4.285,4.285,0,0,1,4.093,4.453V33.375a4.273,4.273,0,0,1-4.093,4.442h-3.53v5.476a1.24,1.24,0,0,1-1.373,1.064A3.364,3.364,0,0,1,192.146,43.294Z" transform="translate(-162.498 -2.196)"/>
          <path id="패스_2236" data-name="패스 2236" class="cls-2" d="M194.432,44.359a3.365,3.365,0,0,1-2.288-1.064L186.7,37.819H166.59a4.275,4.275,0,0,1-4.091-4.445V6.65A4.284,4.284,0,0,1,166.59,2.2h32.745a4.284,4.284,0,0,1,4.091,4.453V33.374a4.275,4.275,0,0,1-4.091,4.445h-3.53v5.476A1.24,1.24,0,0,1,194.432,44.359Z" transform="translate(-162.496 -2.195)"/>
        </g>
        <g id="그룹_5138" data-name="그룹 5138" transform="translate(9.826 11.574)">
          <path id="패스_2237" data-name="패스 2237" class="cls-2" d="M176.07,10.717h-7.338a1.432,1.432,0,1,1,0-2.865h7.338a1.432,1.432,0,1,1,0,2.865Z" transform="translate(-167.3 -7.852)"/>
        </g>
      </g>
      <g id="그룹_5148" data-name="그룹 5148" transform="translate(9.511 11.26)">
        <path id="합치기_101" data-name="합치기 101" class="cls-3" d="M1.749,3.5a1.748,1.748,0,1,1,0-3.5H9.086a1.748,1.748,0,1,1,0,3.5Z"/>
      </g>
      <g id="그룹_5159" data-name="그룹 5159" transform="translate(9.51 19.337)">
        <path id="합치기_102" data-name="합치기 102" class="cls-3" d="M1.748,3.494A1.747,1.747,0,1,1,1.748,0H14.413a1.747,1.747,0,1,1,0,3.494Z"/>
      </g>
    </g>
  </g>
</svg>
