<svg width="22" height="22" viewBox="0 0 22 22" fill="none" xmlns="http://www.w3.org/2000/svg">
<path opacity="0.2" d="M19.9375 11C19.9375 12.0742 18.4078 12.8906 17.9867 13.8961C17.5656 14.9016 18.107 16.5258 17.3164 17.3164C16.5258 18.107 14.8672 17.5828 13.8961 17.9867C12.925 18.3906 12.0742 19.9375 11 19.9375C9.92578 19.9375 9.10938 18.4078 8.10391 17.9867C7.09844 17.5656 5.47422 18.107 4.68359 17.3164C3.89297 16.5258 4.41719 14.8672 4.01328 13.8961C3.60938 12.925 2.0625 12.0742 2.0625 11C2.0625 9.92578 3.59219 9.10938 4.01328 8.10391C4.43438 7.09844 3.89297 5.47422 4.68359 4.68359C5.47422 3.89297 7.13281 4.41719 8.10391 4.01328C9.075 3.60938 9.92578 2.0625 11 2.0625C12.0742 2.0625 12.8906 3.59219 13.8961 4.01328C14.9016 4.43438 16.5258 3.89297 17.3164 4.68359C18.107 5.47422 17.5828 7.13281 17.9867 8.10391C18.3906 9.075 19.9375 9.92578 19.9375 11Z" fill="#40AC1A"/>
<path d="M19.4133 8.83438C19.0867 8.49922 18.7516 8.14688 18.6227 7.84609C18.4937 7.54531 18.5023 7.09844 18.4937 6.64297C18.4852 5.80938 18.468 4.85547 17.8062 4.19375C17.1445 3.53203 16.1906 3.51484 15.357 3.50625C14.9016 3.49766 14.4375 3.48906 14.1539 3.37734C13.8703 3.26562 13.5008 2.91328 13.1656 2.58672C12.5727 2.01953 11.8938 1.375 11 1.375C10.1062 1.375 9.42734 2.01953 8.83438 2.58672C8.49922 2.91328 8.14688 3.24844 7.84609 3.37734C7.54531 3.50625 7.09844 3.49766 6.64297 3.50625C5.80938 3.51484 4.85547 3.53203 4.19375 4.19375C3.53203 4.85547 3.51484 5.80938 3.50625 6.64297C3.49766 7.09844 3.48906 7.5625 3.37734 7.84609C3.26562 8.12969 2.91328 8.49922 2.58672 8.83438C2.01953 9.42734 1.375 10.1062 1.375 11C1.375 11.8938 2.01953 12.5727 2.58672 13.1656C2.91328 13.5008 3.24844 13.8531 3.37734 14.1539C3.50625 14.4547 3.49766 14.9016 3.50625 15.357C3.51484 16.1906 3.53203 17.1445 4.19375 17.8062C4.85547 18.468 5.80938 18.4852 6.64297 18.4937C7.09844 18.5023 7.5625 18.5109 7.84609 18.6227C8.12969 18.7344 8.49922 19.0867 8.83438 19.4133C9.42734 19.9805 10.1062 20.625 11 20.625C11.8938 20.625 12.5727 19.9805 13.1656 19.4133C13.5008 19.0867 13.8531 18.7516 14.1539 18.6227C14.4547 18.4937 14.9016 18.5023 15.357 18.4937C16.1906 18.4852 17.1445 18.468 17.8062 17.8062C18.468 17.1445 18.4852 16.1906 18.4937 15.357C18.5023 14.9016 18.5109 14.4375 18.6227 14.1539C18.7344 13.8703 19.0867 13.5008 19.4133 13.1656C19.9805 12.5727 20.625 11.8938 20.625 11C20.625 10.1062 19.9805 9.42734 19.4133 8.83438ZM18.4164 12.2117C18.0039 12.6414 17.5828 13.0883 17.3508 13.6297C17.1187 14.1711 17.1273 14.7555 17.1187 15.3312C17.1102 15.907 17.1016 16.5687 16.8352 16.8352C16.5687 17.1016 15.9414 17.1102 15.3312 17.1187C14.7211 17.1273 14.1539 17.1359 13.6297 17.3508C13.1055 17.5656 12.6414 18.0039 12.2117 18.4164C11.782 18.8289 11.3438 19.25 11 19.25C10.6562 19.25 10.218 18.8289 9.78828 18.4164C9.35859 18.0039 8.91172 17.5828 8.37031 17.3508C7.82891 17.1187 7.24453 17.1273 6.66875 17.1187C6.09297 17.1102 5.43125 17.1016 5.16484 16.8352C4.89844 16.5687 4.88984 15.9414 4.88125 15.3312C4.87266 14.7211 4.86406 14.1539 4.64922 13.6297C4.43437 13.1055 3.99609 12.6414 3.58359 12.2117C3.17109 11.782 2.75 11.3438 2.75 11C2.75 10.6562 3.17109 10.218 3.58359 9.78828C3.99609 9.35859 4.41719 8.91172 4.64922 8.37031C4.88125 7.82891 4.87266 7.24453 4.88125 6.66875C4.88984 6.09297 4.89844 5.43125 5.16484 5.16484C5.43125 4.89844 6.05859 4.88984 6.66875 4.88125C7.27891 4.87266 7.84609 4.86406 8.37031 4.64922C8.89453 4.43437 9.35859 3.99609 9.78828 3.58359C10.218 3.17109 10.6562 2.75 11 2.75C11.3438 2.75 11.782 3.17109 12.2117 3.58359C12.6414 3.99609 13.0883 4.41719 13.6297 4.64922C14.1711 4.88125 14.7555 4.87266 15.3312 4.88125C15.907 4.88984 16.5687 4.89844 16.8352 5.16484C17.1016 5.43125 17.1102 6.05859 17.1187 6.66875C17.1273 7.27891 17.1359 7.84609 17.3508 8.37031C17.5656 8.89453 18.0039 9.35859 18.4164 9.78828C18.8289 10.218 19.25 10.6562 19.25 11C19.25 11.3438 18.8289 11.782 18.4164 12.2117ZM15.2797 8.46484C15.4049 8.59711 15.4725 8.77366 15.4677 8.95572C15.4628 9.13779 15.386 9.3105 15.2539 9.43594L10.218 14.2484C10.0878 14.3709 9.91546 14.4386 9.73672 14.4375C9.56061 14.4382 9.39113 14.3704 9.26406 14.2484L6.74609 11.8422C6.67625 11.7813 6.61946 11.7068 6.57911 11.6234C6.53877 11.5399 6.51572 11.4492 6.51134 11.3566C6.50696 11.264 6.52134 11.1715 6.55362 11.0847C6.58591 10.9978 6.63543 10.9183 6.6992 10.8511C6.76298 10.7838 6.83969 10.7302 6.92473 10.6933C7.00978 10.6565 7.10139 10.6372 7.19408 10.6366C7.28676 10.6361 7.37859 10.6543 7.46406 10.6902C7.54952 10.726 7.62685 10.7788 7.69141 10.8453L9.73672 12.7961L14.3086 8.43906C14.4409 8.31385 14.6174 8.24624 14.7995 8.25108C14.9815 8.25591 15.1543 8.33279 15.2797 8.46484Z" fill="#40AC1A"/>
</svg>
