<svg width="127" height="104" viewBox="0 0 127 104" fill="none" xmlns="http://www.w3.org/2000/svg">
<g opacity="0.03">
<path d="M76.0696 86.4376C108.7 86.4376 135.152 58.604 135.152 24.2696C135.152 -10.0649 108.7 -37.8984 76.0696 -37.8984C43.4391 -37.8984 16.9869 -10.0649 16.9869 24.2696C16.9869 58.604 43.4391 86.4376 76.0696 86.4376Z" fill="#F5F8FA"/>
<path d="M76.0697 -54.8525C34.54 -54.8525 0.873657 -19.4281 0.873657 24.2704C0.873657 67.9689 34.54 103.393 76.0697 103.393C117.599 103.393 151.266 67.9689 151.266 24.2704C151.266 -19.4281 117.599 -54.8525 76.0697 -54.8525ZM76.0697 86.4384C43.4937 86.4384 16.9871 58.5476 16.9871 24.2704C16.9871 -10.0068 43.4937 -37.8976 76.0697 -37.8976C108.646 -37.8976 135.152 -10.0068 135.152 24.2704C135.152 58.5476 108.646 86.4384 76.0697 86.4384Z" fill="#66757F"/>
<path d="M124.41 29.9214H70.6986C67.7337 29.9214 65.3275 27.3952 65.3275 24.2698C65.3275 21.1444 67.7337 18.6182 70.6986 18.6182H124.41C127.38 18.6182 129.781 21.1444 129.781 24.2698C129.781 27.3952 127.38 29.9214 124.41 29.9214Z" fill="#292F33"/>
<path d="M76.0699 80.7867C79.0363 80.7867 81.441 78.2564 81.441 75.135C81.441 72.0137 79.0363 69.4834 76.0699 69.4834C73.1035 69.4834 70.6987 72.0137 70.6987 75.135C70.6987 78.2564 73.1035 80.7867 76.0699 80.7867Z" fill="#292F33"/>
<path d="M108.296 63.8316C111.263 63.8316 113.667 61.3013 113.667 58.18C113.667 55.0586 111.263 52.5283 108.296 52.5283C105.33 52.5283 102.925 55.0586 102.925 58.18C102.925 61.3013 105.33 63.8316 108.296 63.8316Z" fill="#292F33"/>
<path d="M27.7294 29.9214C30.6958 29.9214 33.1006 27.3911 33.1006 24.2698C33.1006 21.1485 30.6958 18.6182 27.7294 18.6182C24.763 18.6182 22.3583 21.1485 22.3583 24.2698C22.3583 27.3911 24.763 29.9214 27.7294 29.9214Z" fill="#292F33"/>
<path d="M43.8428 63.832C42.4678 63.832 41.0927 63.2781 40.0454 62.1761C37.9452 59.9663 37.9452 56.3944 40.0454 54.1846L77.6434 14.6232C79.7435 12.4134 83.1381 12.4134 85.2382 14.6232C87.3383 16.833 87.3383 20.4048 85.2382 22.6146L47.6402 62.1761C46.5928 63.2781 45.2178 63.832 43.8428 63.832Z" fill="#DD2E44"/>
</g>
</svg>
