<svg width="1234" height="290" viewBox="0 0 1234 290" fill="none" xmlns="http://www.w3.org/2000/svg">
<g opacity="0.4">
<rect x="753.873" y="109.355" width="15.0399" height="15.0399" rx="5" transform="rotate(-25 753.873 109.355)" fill="#EB5757"/>
<rect y="119.363" width="9.39991" height="9.39991" rx="4.69996" transform="rotate(-25 0 119.363)" fill="#2D9CDB"/>
<rect x="454.955" y="135.314" width="26.3198" height="26.3198" rx="5" transform="rotate(-25 454.955 135.314)" fill="#6FCF97"/>
<path d="M71.9861 280.748C70.8191 278.246 71.9019 275.271 74.4046 274.104L78.9722 271.974C81.4749 270.807 84.4499 271.89 85.6169 274.392L87.7468 278.96C88.9138 281.463 87.8311 284.437 85.3284 285.605L80.7607 287.734C78.258 288.901 75.2831 287.819 74.1161 285.316L71.9861 280.748Z" fill="#56CCF2"/>
<rect x="1213.22" y="160.877" width="15.0399" height="15.0399" rx="5" transform="rotate(-25 1213.22 160.877)" fill="#585357"/>
<rect x="914.299" y="246.836" width="26.3198" height="26.3198" rx="5" transform="rotate(-25 914.299 246.836)" fill="#9B51E0"/>
<path d="M246.805 132.062L250.574 153.44L230.175 146.016L246.805 132.062Z" fill="#F2994A"/>
<path d="M380.919 247.092L402.297 250.862L388.344 267.491L380.919 247.092Z" fill="#F2C94C"/>
<circle cx="1100.5" cy="7.5" r="14.5" fill="#F2C94C"/>
</g>
</svg>
