<svg xmlns="http://www.w3.org/2000/svg" width="63" height="63" viewBox="0 0 63 63">
  <defs>
    <style>
      .cls-1 {
        fill: #bbe17b;
      }

      .cls-2 {
        fill: #fff;
      }

      .cls-3 {
        fill: none;
      }
    </style>
  </defs>
  <g id="회원_관리" data-name="회원 관리" transform="translate(0.476 0.107)">
    <g id="그룹_12714" data-name="그룹 12714" transform="translate(9.925 9.622)">
      <circle id="타원_570" data-name="타원 570" class="cls-1" cx="22" cy="22" r="22" transform="translate(-0.4 0.272)"/>
      <g id="그룹_12713" data-name="그룹 12713" transform="translate(11.215 10.64)">
        <path id="빼기_1" data-name="빼기 1" class="cls-2" d="M2.05,22.77v0A15.533,15.533,0,0,1,0,21.066,11.419,11.419,0,0,1,6.092,14.5a7.983,7.983,0,1,1,9.239,0,11.389,11.389,0,0,1,6.086,6.572,15.39,15.39,0,0,1-2.044,1.7,8.919,8.919,0,0,0-17.323,0ZM10.708,2.457a5.531,5.531,0,1,0,5.537,5.529A5.537,5.537,0,0,0,10.708,2.457Z"/>
      </g>
    </g>
    <rect id="사각형_3622" data-name="사각형 3622" class="cls-3" width="63" height="63" transform="translate(-0.476 -0.107)"/>
  </g>
</svg>
