<svg
  xmlns="http://www.w3.org/2000/svg" width="44.968" height="57.252" viewBox="0 0 44.968 57.252"
>
  <g id="Group_12790" data-name="Group 12790" transform="matrix(-0.5, 0.866, -0.866, -0.5, 47.575, 15.942)">
    <g id="Group_14201" data-name="Group 14201">
      <path id="Path_2550" data-name="Path 2550" d="M38.626,5.141C33.907,4.13,28,2.918,22.9,3.938a16.324,16.324,0,0,1,1.777,1.849c3.075,3.76,5.048,8.926,4.247,13.8-.772,4.7-5.7,6.572-9.965,5.743-12.356-2.4-9.306-17-.617-21.983C13.083.739,6.677,1.729,3.426,8.152.726,13.488.233,26.981,8.366,28.067a.4.4,0,0,1,0,.793c-9.385.5-9.318-14.574-7.217-20.349C4.392-.4,13.771-2.029,20.71,2.3c5.634-1.885,12.9-.352,18.469.839C40.49,3.416,39.934,5.421,38.626,5.141Zm-20.363.573C14.135,8.292,11.606,14,13.045,18.7c1.457,4.761,10.006,6.709,13.021,2.516,2.427-3.375.341-8.693-1.425-11.84a15.016,15.016,0,0,0-4.188-4.742A12.518,12.518,0,0,0,18.262,5.714Z" transform="translate(0 3.011)" fill="#dadada"/>
      <path id="Path_2551" data-name="Path 2551" d="M12.79,8.645C10.7,9.52,8.565,10.277,6.421,11c-1.792.6-3.88,1.5-5.8,1.421-.575-.024-.884-.855-.31-1.144A44.165,44.165,0,0,1,5.286,9.49c1.775-.639,3.521-1.355,5.26-2.087-1.188-.925-2.379-1.845-3.56-2.778a15.249,15.249,0,0,1-3.56-3.212A.948.948,0,0,1,4.714.125,35.975,35.975,0,0,1,8.451,3.159c1.589,1.271,3.2,2.517,4.785,3.791C13.905,7.486,13.4,8.387,12.79,8.645Z" transform="translate(34.146 0)" fill="#dadada"/>
    </g>
  </g>
</svg>
