<svg id="그룹_14178" data-name="그룹 14178" xmlns="http://www.w3.org/2000/svg" xmlns:xlink="http://www.w3.org/1999/xlink" width="115.493" height="17.519" viewBox="0 0 115.493 17.519">
  <defs>
    <style>
      .cls-1 {
        fill: #fff;
      }

      .cls-2 {
        clip-path: url(#clip-path);
      }

      .cls-3 {
        fill: #e34a5e;
      }

      .cls-4 {
        clip-path: url(#clip-path-2);
      }
    </style>
    <clipPath id="clip-path">
      <rect id="사각형_4023" data-name="사각형 4023" class="cls-1" width="86.295" height="11.03"/>
    </clipPath>
    <clipPath id="clip-path-2">
      <rect id="사각형_4024" data-name="사각형 4024" class="cls-1" width="24.007" height="17.519"/>
    </clipPath>
  </defs>
  <g id="그룹_14178-2" data-name="그룹 14178" class="cls-2" transform="translate(29.198 3.244)">
    <path id="패스_2561" data-name="패스 2561" class="cls-3" d="M558.789,24.586a.333.333,0,0,0-.187-.05H556.36a.182.182,0,0,0-.078.011.178.178,0,0,0-.065.043.18.18,0,0,0-.042.062.176.176,0,0,0-.014.073l0,3.573a.142.142,0,0,1-.043.1.147.147,0,0,1-.1.043l-3.813,0a.148.148,0,0,1-.1-.042.143.143,0,0,1-.043-.1l0-3.581a.146.146,0,0,0-.016-.071.148.148,0,0,0-.048-.055.259.259,0,0,0-.148-.063h-2.287a.152.152,0,0,0-.068.011.149.149,0,0,0-.056.04.241.241,0,0,0-.064.146l.013,10.555c0,.1.032.15.184.15h2.256a.286.286,0,0,0,.185-.053.159.159,0,0,0,.043-.061.154.154,0,0,0,.009-.074l-.006-4.267a.142.142,0,0,1,.043-.1.147.147,0,0,1,.1-.042l3.813,0a.147.147,0,0,1,.1.041.143.143,0,0,1,.032.047.14.14,0,0,1,.011.055l.005,4.275c0,.1.035.131.047.141a.224.224,0,0,0,.152.047h2.272a.254.254,0,0,0,.166-.049c.012-.01.048-.04.048-.139l-.014-10.541C558.839,24.619,558.8,24.6,558.789,24.586Z" transform="translate(-502.091 -24.472)"/>
    <path id="패스_2562" data-name="패스 2562" class="cls-3" d="M631.919,25.117l-.184-.41a.907.907,0,0,0-.108-.105.184.184,0,0,0-.128-.043h-1.971a.225.225,0,0,0-.077.016.4.4,0,0,0-.1.053.373.373,0,0,0-.076.071.125.125,0,0,0-.021.033.176.176,0,0,1-.008.028l-4.143,10.594a.111.111,0,0,0-.013.063.238.238,0,0,0,.153.046H627.5a.244.244,0,0,0,.163-.045.237.237,0,0,0,.093-.14q.148-.391.3-.776c.1-.257.2-.512.3-.77a.145.145,0,0,1,.054-.068.148.148,0,0,1,.084-.026l4.065-.005a.148.148,0,0,1,.084.026.143.143,0,0,1,.054.068q.148.39.3.775c.1.257.2.515.3.773a.291.291,0,0,0,.1.151.348.348,0,0,0,.192.04h2.193a.265.265,0,0,0,.181-.046c.008-.008.025-.028,0-.1Zm-.1,6.315a.148.148,0,0,1-.119.06h-2.356a.148.148,0,0,1-.068-.016.144.144,0,0,1-.052-.045.143.143,0,0,1-.017-.132c.1-.258.192-.534.293-.819s.2-.591.293-.892.192-.6.295-.9.2-.58.3-.836a.136.136,0,0,1,.053-.07.14.14,0,0,1,.086-.024.149.149,0,0,1,.084.028.144.144,0,0,1,.052.07l1.178,3.448a.142.142,0,0,1,.006.067A.144.144,0,0,1,631.818,31.432Z" transform="translate(-567.258 -24.496)"/>
    <path id="패스_2563" data-name="패스 2563" class="cls-3" d="M717.732,33.065l-4.208.005a.147.147,0,0,1-.1-.042.142.142,0,0,1-.043-.1l-.01-8.183a.176.176,0,0,0-.064-.132.213.213,0,0,0-.142-.055h-2.274a.184.184,0,0,0-.079.01.179.179,0,0,0-.067.042.187.187,0,0,0-.053.136l.013,10.526a.187.187,0,0,0,.056.134.193.193,0,0,0,.136.055l6.844-.008a.176.176,0,0,0,.075-.016.173.173,0,0,0,.06-.047.213.213,0,0,0,.055-.142V33.257a.174.174,0,0,0-.01-.077.18.18,0,0,0-.043-.066.192.192,0,0,0-.066-.039A.2.2,0,0,0,717.732,33.065Z" transform="translate(-640.92 -24.492)"/>
    <path id="패스_2564" data-name="패스 2564" class="cls-3" d="M778.5,32.748l-5.162.006a.148.148,0,0,1-.1-.042.143.143,0,0,1-.043-.1V30.685a.143.143,0,0,1,.043-.1.148.148,0,0,1,.1-.042l3.838,0a.161.161,0,0,0,.073-.008.158.158,0,0,0,.061-.04.172.172,0,0,0,.049-.11V28.74a.13.13,0,0,0-.035-.109.264.264,0,0,0-.156-.04l-3.825,0a.147.147,0,0,1-.1-.042.143.143,0,0,1-.043-.1v-1.86a.143.143,0,0,1,.043-.1.147.147,0,0,1,.1-.042l4.96-.006a.169.169,0,0,0,.152-.063.251.251,0,0,0,.064-.158V24.334a.236.236,0,0,0-.053-.168.189.189,0,0,0-.071-.043.191.191,0,0,0-.083-.009l-7.608.009a.173.173,0,0,0-.141.048.224.224,0,0,0-.049.158l.013,10.57a.182.182,0,0,0,.007.073.179.179,0,0,0,.036.065.218.218,0,0,0,.149.044l7.766-.009c.158,0,.165-.054.17-.088a.143.143,0,0,1,.042-.082c.019-.019.019-.029.019-.035V32.953C778.7,32.8,778.647,32.748,778.5,32.748Z" transform="translate(-692.405 -24.113)"/>
    <path id="패스_2565" data-name="패스 2565" class="cls-3" d="M437.859,24.727a.14.14,0,0,1,.007-.043v-.038a.073.073,0,0,0,0-.034.075.075,0,0,0-.02-.029.271.271,0,0,0-.152-.027l-2.487,0a.271.271,0,0,0-.178.045.263.263,0,0,0-.107.148l-2.165,6.888a.143.143,0,0,1-.052.073.147.147,0,0,1-.086.029h0a.148.148,0,0,1-.085-.027.144.144,0,0,1-.053-.071l-2.365-6.9a.252.252,0,0,0-.262-.189l-2.463,0c-.138,0-.138.036-.138.067a.4.4,0,0,1,.023.1q.987,2.551,1.967,5.056t1.976,5.078c.033.085.073.172.117.258s.092.174.141.252c.016.032.043.088.2.088h1.891a.179.179,0,0,0,.113-.037.579.579,0,0,0,.111-.119l4.022-10.435Z" transform="translate(-396.995 -24.493)"/>
    <path id="패스_2566" data-name="패스 2566" class="cls-3" d="M497.337,24.58a.269.269,0,0,0-.151-.027h-2.408a.273.273,0,0,0-.179.046.265.265,0,0,0-.107.148l-.878,2.437-1.606,4.456a.144.144,0,0,1-.054.07.148.148,0,0,1-.085.027h-.008a.146.146,0,0,1-.084-.026.142.142,0,0,1-.053-.069l-.231-.661a.106.106,0,0,0-.184,0l-.99,2.584a.882.882,0,0,0-.036.729l.407,1.015a.214.214,0,0,0,.105.118.293.293,0,0,0,.138.021h1.887a.219.219,0,0,0,.086-.015.214.214,0,0,0,.072-.048.388.388,0,0,0,.1-.13c.338-.873.692-1.765,1.051-2.647s.72-1.765,1.084-2.642.726-1.758,1.089-2.637.709-1.746,1.05-2.618a.137.137,0,0,1,.008-.04v-.038a.072.072,0,0,0-.026-.056Z" transform="translate(-451.186 -24.49)"/>
    <path id="패스_2567" data-name="패스 2567" class="cls-3" d="M291.344,33.577l-5.162.006a.147.147,0,0,1-.1-.042.142.142,0,0,1-.043-.1V31.515a.142.142,0,0,1,.043-.1.147.147,0,0,1,.1-.042l3.838,0a.161.161,0,0,0,.073-.008.158.158,0,0,0,.061-.04.171.171,0,0,0,.049-.11V29.57a.128.128,0,0,0,0-.059.131.131,0,0,0-.03-.051.264.264,0,0,0-.156-.04l-3.825,0a.147.147,0,0,1-.1-.042.143.143,0,0,1-.043-.1v-1.86a.143.143,0,0,1,.043-.1.147.147,0,0,1,.1-.042l4.96-.006a.173.173,0,0,0,.084-.012.171.171,0,0,0,.068-.051.241.241,0,0,0,.064-.154V25.219a.224.224,0,0,0-.053-.163.194.194,0,0,0-.154-.05l-7.608.009a.177.177,0,0,0-.076.008.174.174,0,0,0-.065.039.213.213,0,0,0-.049.153l.013,10.513a.18.18,0,0,0,.042.138.218.218,0,0,0,.149.044l7.767-.009c.158,0,.165-.054.17-.088a.145.145,0,0,1,.042-.082c.018-.019.018-.029.018-.035V33.781C291.544,33.628,291.493,33.577,291.344,33.577Z" transform="translate(-273.16 -24.879)"/>
    <path id="패스_2568" data-name="패스 2568" class="cls-3" d="M358.817,27.684a5.286,5.286,0,0,0-.891-1.1,5.878,5.878,0,0,0-1.153-.843,5.794,5.794,0,0,0-1.358-.541,5.967,5.967,0,0,0-1.513-.189l-3.772,0c-.11,0-.144.037-.154.05a.229.229,0,0,0-.051.161l.013,10.517c0,.083.019.126.034.131a.337.337,0,0,0,.172.042l3.773,0a6.12,6.12,0,0,0,1.516-.189,5.9,5.9,0,0,0,1.362-.535,5.481,5.481,0,0,0,2.037-1.935,5.245,5.245,0,0,0,.571-1.305,5.334,5.334,0,0,0,.2-1.478A5.259,5.259,0,0,0,359.4,29,5.523,5.523,0,0,0,358.817,27.684Zm-2.05,3.947h-.018a2.881,2.881,0,0,1-.613.927,3.142,3.142,0,0,1-.913.635,3.3,3.3,0,0,1-1.125.29c-.112.01-.226.02-.34.027s-.234.012-.355.012h-.644a.147.147,0,0,1-.1-.042.143.143,0,0,1-.043-.1l-.008-5.827a.143.143,0,0,1,.043-.1.148.148,0,0,1,.1-.042h1.019a3.427,3.427,0,0,1,1.246.225,3.089,3.089,0,0,1,1.022.634,3.031,3.031,0,0,1,.7.972,2.966,2.966,0,0,1,.256,1.231,3.005,3.005,0,0,1-.221,1.162Z" transform="translate(-330.447 -24.887)"/>
    <path id="패스_2569" data-name="패스 2569" class="cls-3" d="M219.228,35.659c-.058-.1-.106-.184-.142-.257l-1.972-3.641a.143.143,0,0,1-.01-.105.144.144,0,0,1,.066-.084,3.809,3.809,0,0,0,.734-.542,3.558,3.558,0,0,0,.577-.7,3.48,3.48,0,0,0,.378-.833,3.2,3.2,0,0,0,.135-.935,3.348,3.348,0,0,0-.284-1.363,3.552,3.552,0,0,0-.778-1.118,3.74,3.74,0,0,0-1.159-.756,3.644,3.644,0,0,0-1.421-.277l-4.966.006c-.1,0-.133.035-.144.046a.227.227,0,0,0-.047.157l.013,10.515a.175.175,0,0,0,.042.137.222.222,0,0,0,.149.043h2.3s.207-.047.183-.164l.064-1.586-.064-1.82.064-2.4-.064-.616V27.2a.143.143,0,0,1,.043-.1.145.145,0,0,1,.047-.031.148.148,0,0,1,.056-.011h1.06c.151,0,.292,0,.42.011l.4.026a1.439,1.439,0,0,1,.542.189,1.552,1.552,0,0,1,.408.35,1.618,1.618,0,0,1,.261.456,1.432,1.432,0,0,1,.094.5,1.613,1.613,0,0,1-.083.517,1.493,1.493,0,0,1-.245.459,1.4,1.4,0,0,1-.4.346,1.376,1.376,0,0,1-.541.175c-.089.011-.171.018-.245.024-.037,0-.077,0-.12.006-.167,0-.159.126-.159.126v1.714a1.483,1.483,0,0,0,.179.7l1.671,3.083a.679.679,0,0,0,.1.149.169.169,0,0,0,.064.043.172.172,0,0,0,.077.011h2.627a.2.2,0,0,0,.128-.032c.009-.007.027-.021.026-.073A.364.364,0,0,0,219.228,35.659Z" transform="translate(-210.193 -24.914)"/>
  </g>
  <g id="그룹_14179" data-name="그룹 14179" class="cls-4" transform="translate(0 0)">
    <path id="패스_2570" data-name="패스 2570" class="cls-3" d="M12.75,18.354l-12-6.131V5.216L9.32.836h5.145l3.43,3.5V6.967l3.43.878,3.429,3.505v.878l-5.145,2.623-1.714-.877v1.752Zm0-1.751,3.43-1.752-4.289-4.378.859-.438,5.145,1.315L19.609,13.1l3.43-1.751L21.324,9.595,14.464,7.843l1.715-3.5L14.464,2.587H9.32L2.46,6.091ZM10.177,8.717,7.605,6.09l3.43-1.752L12.75,6.091Z" transform="translate(-0.746 -0.836)"/>
  </g>
</svg>
