<svg xmlns="http://www.w3.org/2000/svg" width="63" height="63" viewBox="0 0 63 63">
  <defs>
    <style>
      .cls-1 {
        fill: #f8b990;
      }

      .cls-2 {
        fill: none;
      }

      .cls-3 {
        fill: #fff;
      }
    </style>
  </defs>
  <g id="그룹_14200" data-name="그룹 14200" transform="translate(-0.078)">
    <rect id="사각형_3921" data-name="사각형 3921" class="cls-1" width="39" height="23" transform="translate(12.078 27)"/>
    <g id="스케줄_직원용" data-name="스케줄 직원용" transform="translate(0.078 -0.1)">
      <rect id="사각형_3089" data-name="사각형 3089" class="cls-2" width="63" height="63" transform="translate(0 0.1)"/>
      <rect id="사각형_3971" data-name="사각형 3971" class="cls-3" width="39" height="12" transform="translate(12 15.1)"/>
      <g id="그룹_5141" data-name="그룹 5141" transform="translate(9.188 10.891)">
        <g id="사각형_2837" data-name="사각형 2837" transform="translate(0 3.376)">
          <rect id="사각형_3110" data-name="사각형 3110" class="cls-2" width="44.495" height="37.561" rx="2" transform="translate(0 0.002)"/>
          <path id="패스_2228" data-name="패스 2228" class="cls-1" d="M106.545,42.263h-35.6a4.439,4.439,0,0,1-4.45-4.421V9.121A4.441,4.441,0,0,1,70.949,4.7h35.6a4.441,4.441,0,0,1,4.45,4.421V37.842A4.439,4.439,0,0,1,106.545,42.263ZM70.949,7.8a1.331,1.331,0,0,0-1.335,1.326V37.842a1.333,1.333,0,0,0,1.335,1.328h35.6a1.333,1.333,0,0,0,1.335-1.328V9.121A1.331,1.331,0,0,0,106.545,7.8Z" transform="translate(-66.5 -4.7)"/>
        </g>
        <g id="그룹_5140" data-name="그룹 5140" transform="translate(12.125)">
          <path id="패스_2229" data-name="패스 2229" class="cls-1" d="M73.987,13.756A1.687,1.687,0,0,1,72.3,12.069V4.986a1.687,1.687,0,1,1,3.374,0v7.083A1.687,1.687,0,0,1,73.987,13.756Z" transform="translate(-72.3 -3.299)"/>
          <path id="패스_2230" data-name="패스 2230" class="cls-1" d="M80.987,13.756A1.687,1.687,0,0,1,79.3,12.069V4.986a1.687,1.687,0,0,1,3.374,0v7.083A1.687,1.687,0,0,1,80.987,13.756Z" transform="translate(-62.43 -3.299)"/>
        </g>
        <rect id="사각형_3111" data-name="사각형 3111" class="cls-1" width="42.085" height="3.375" transform="translate(1.205 15.912)"/>
      </g>
    </g>
  </g>
</svg>
