<svg
    class="d-flex align-items-center justify-content-center"
    [style.width]="width"
    [style.height]="width"
    [style.margin]="margin"
    [attr.fill] = "bgColor"
    viewBox="0 0 24 24"
    xmlns="http://www.w3.org/2000/svg"
>
    <path
        opacity="0.2"
        d="M21.75 9.75C21.75 12 18 14.25 12 14.25C6 14.25 2.25 12 2.25 9.75C2.25 7.5 6 5.25 12 5.25C18 5.25 21.75 7.5 21.75 9.75Z"
        [attr.fill]="color"
    />
    <path
        d="M19.4625 5.98125C17.5125 5.01562 14.9344 4.5 12 4.5C9.06563 4.5 6.4875 5.01562 4.5375 5.98125C2.5875 6.94687 1.5 8.325 1.5 9.75V14.25C1.5 15.675 2.60625 17.0531 4.5375 18.0187C6.46875 18.9844 9.06563 19.5 12 19.5C14.9344 19.5 17.5125 18.9844 19.4625 18.0187C21.4125 17.0531 22.5 15.675 22.5 14.25V9.75C22.5 8.325 21.3938 6.94687 19.4625 5.98125ZM12 6C17.8687 6 21 8.175 21 9.75C21 10.6781 19.9031 11.8313 17.775 12.6094H17.7469C16.2938 13.1344 14.3719 13.4906 12 13.4906C9.62813 13.4906 7.70625 13.1344 6.25312 12.6094H6.225C4.09688 11.8313 3 10.6781 3 9.75C3 8.175 6.13125 6 12 6ZM11.25 14.9906V17.9906C9.46875 17.925 7.96875 17.6625 6.75 17.2875V14.3438C8.09062 14.7188 9.60938 14.9344 11.25 14.9906ZM12.75 14.9906C14.3906 14.9344 15.9094 14.7188 17.25 14.3438V17.2875C16.0312 17.6625 14.5312 17.925 12.75 17.9906V14.9906ZM3 14.25V12.5156C3.47189 12.9085 3.98786 13.2451 4.5375 13.5187L5.25 13.8375V16.6875C3.76875 15.9563 3 15.0281 3 14.25ZM18.75 16.6875V13.8375L19.4625 13.5187C20.0121 13.2451 20.5281 12.9085 21 12.5156V14.25C21 15.0281 20.2313 15.9563 18.75 16.6875Z"
        [attr.fill]="color"
    />
</svg>
