<svg
    class="d-flex align-items-center justify-content-center"
    [style.width]="width"
    [style.height]="width"
    [style.margin]="margin"
    [attr.fill] = "bgColor"
    viewBox="0 0 24 24"
    xmlns="http://www.w3.org/2000/svg"
>
    <path
        d="M12 21.75C10.0716 21.75 8.18657 21.1782 6.58319 20.1068C4.97981 19.0355 3.73013 17.5127 2.99218 15.7312C2.25422 13.9496 2.06114 11.9892 2.43735 10.0979C2.81355 8.20656 3.74215 6.46927 5.10571 5.10571C6.46927 3.74215 8.20656 2.81355 10.0979 2.43735C11.9892 2.06114 13.9496 2.25422 15.7312 2.99218C17.5127 3.73013 19.0355 4.97981 20.1068 6.58319C21.1782 8.18657 21.75 10.0716 21.75 12C21.7476 14.5851 20.7196 17.0637 18.8917 18.8917C17.0637 20.7196 14.5851 21.7476 12 21.75ZM12 4.41667C10.5002 4.41667 9.034 4.86143 7.78693 5.69469C6.53986 6.52796 5.56788 7.71231 4.99392 9.09799C4.41995 10.4837 4.26978 12.0084 4.56238 13.4794C4.85499 14.9505 5.57723 16.3017 6.63778 17.3622C7.69833 18.4228 9.04955 19.145 10.5206 19.4376C11.9916 19.7302 13.5163 19.5801 14.902 19.0061C16.2877 18.4321 17.472 17.4601 18.3053 16.2131C19.1386 14.966 19.5833 13.4998 19.5833 12C19.5809 9.98951 18.7812 8.06205 17.3596 6.64042C15.938 5.21878 14.0105 4.41906 12 4.41667Z"
        [attr.fill]="color"
    />
</svg>
