<svg
    class="d-flex align-items-center justify-content-center"
    [style.width]="width"
    [style.height]="height"
    [style.margin]="margin"
    [attr.fill] = "bgColor"
    viewBox="0 0 24 24"
    xmlns="http://www.w3.org/2000/svg"
>
    <path
        d="M20.25 6.75H12.3094L9.75 4.19063C9.61128 4.05084 9.44624 3.93993 9.26441 3.8643C9.08257 3.78867 8.88756 3.74983 8.69062 3.75H3.75C3.35218 3.75 2.97064 3.90804 2.68934 4.18934C2.40804 4.47064 2.25 4.85218 2.25 5.25V18.8063C2.25 19.1892 2.40211 19.5564 2.67286 19.8271C2.94362 20.0979 3.31084 20.25 3.69375 20.25H20.3344C20.7091 20.2475 21.0677 20.0976 21.3327 19.8327C21.5976 19.5677 21.7475 19.2091 21.75 18.8344V8.25C21.75 7.85218 21.592 7.47065 21.3107 7.18934C21.0294 6.90804 20.6478 6.75 20.25 6.75ZM3.75 5.25H8.69062L10.1906 6.75H3.75V5.25Z"
        [attr.fill]="color"
    />
</svg>
