<svg
    class="d-flex align-items-center justify-content-center"
    [style.width]="width"
    [style.height]="width"
    [style.margin]="margin"
    [attr.fill] = "bgColor"
    viewBox="0 0 24 24"
    xmlns="http://www.w3.org/2000/svg"
>
    <path
        d="M18.8906 5.10982C17.9866 4.20332 16.9126 3.48409 15.7302 2.99335C14.5478 2.50261 13.2802 2.25 12 2.25C10.7197 2.25 9.45212 2.50261 8.2697 2.99335C7.08728 3.48409 6.01332 4.20332 5.10933 5.10982C4.20283 6.0138 3.4836 7.08777 2.99286 8.27019C2.50212 9.45261 2.24951 10.7202 2.24951 12.0004C2.24951 13.2807 2.50212 14.5483 2.99286 15.7307C3.4836 16.9131 4.20283 17.9871 5.10933 18.8911C6.01332 19.7976 7.08728 20.5168 8.2697 21.0076C9.45212 21.4983 10.7197 21.7509 12 21.7509C13.2802 21.7509 14.5478 21.4983 15.7302 21.0076C16.9126 20.5168 17.9866 19.7976 18.8906 18.8911C19.7971 17.9871 20.5163 16.9131 21.0071 15.7307C21.4978 14.5483 21.7504 13.2807 21.7504 12.0004C21.7504 10.7202 21.4978 9.45261 21.0071 8.27019C20.5163 7.08777 19.7971 6.0138 18.8906 5.10982ZM17.8312 17.8317C16.6777 18.9862 15.2077 19.7726 13.6072 20.0914C12.0066 20.4103 10.3475 20.2473 8.83962 19.6231C7.33173 18.9989 6.04286 17.9415 5.13604 16.5846C4.22922 15.2278 3.7452 13.6324 3.7452 12.0004C3.7452 10.3685 4.22922 8.77315 5.13604 7.41629C6.04286 6.05944 7.33173 5.00202 8.83962 4.3778C10.3475 3.75357 12.0066 3.59059 13.6072 3.90946C15.2077 4.22834 16.6777 5.01474 17.8312 6.1692C19.3746 7.71739 20.2413 9.81434 20.2413 12.0004C20.2413 14.1866 19.3746 16.2835 17.8312 17.8317ZM11.7843 11.4661C11.9252 11.6083 12.0042 11.8003 12.0042 12.0004C12.0042 12.2006 11.9252 12.3926 11.7843 12.5348L8.78433 15.5348C8.64098 15.6734 8.44937 15.7509 8.24996 15.7509C8.05055 15.7509 7.85894 15.6734 7.71559 15.5348C7.57475 15.3926 7.49574 15.2006 7.49574 15.0004C7.49574 14.8003 7.57475 14.6083 7.71559 14.4661L10.1906 12.0004L7.71559 9.53482C7.59599 9.3891 7.53487 9.2041 7.54412 9.01581C7.55336 8.82753 7.63232 8.64941 7.76562 8.51611C7.89892 8.38281 8.07704 8.30385 8.26533 8.2946C8.45362 8.28536 8.63861 8.34648 8.78433 8.46607L11.7843 11.4661ZM17.0343 11.4661C17.1752 11.6083 17.2542 11.8003 17.2542 12.0004C17.2542 12.2006 17.1752 12.3926 17.0343 12.5348L14.0343 15.5348C13.891 15.6734 13.6994 15.7509 13.5 15.7509C13.3005 15.7509 13.1089 15.6734 12.9656 15.5348C12.8247 15.3926 12.7457 15.2006 12.7457 15.0004C12.7457 14.8003 12.8247 14.6083 12.9656 14.4661L15.4406 12.0004L12.9656 9.53482C12.846 9.3891 12.7849 9.2041 12.7941 9.01581C12.8034 8.82753 12.8823 8.64941 13.0156 8.51611C13.1489 8.38281 13.327 8.30385 13.5153 8.2946C13.7036 8.28536 13.8886 8.34648 14.0343 8.46607L17.0343 11.4661Z"
        [attr.fill]="color"
    />
</svg>
