<svg xmlns="http://www.w3.org/2000/svg" width="31.455" height="19.356" viewBox="0 0 31.455 19.356">
    <defs>
        <style>
            .cls-1{fill:#e34a5e}
        </style>
    </defs>
    <g id="그룹_5112" transform="translate(13194.236 16287.435)">
        <path id="패스_655" d="M537.514 631.077a10.576 10.576 0 0 0 3.7 3.861 18.2 18.2 0 0 0 10.351 2.761 17.65 17.65 0 0 0 9.679-3.4 18.59 18.59 0 0 0 2.121-1.854 13.88 13.88 0 0 0 1.643-2.023 1.912 1.912 0 0 0-.407-2.865 2.133 2.133 0 0 0-1.609-.371 2.25 2.25 0 0 0-1.409.921 2.252 2.252 0 0 1-1.268.89c-1.466.326-3-1.1-3.912-2.064-1.979-2.107-3.229-4.861-5.524-6.68a9.069 9.069 0 0 0-8.509-1.383 8.925 8.925 0 0 0-5.757 7.226 8.482 8.482 0 0 0 .901 4.981zm13.909-5.714a1.962 1.962 0 0 1 2.236 1.622 1.941 1.941 0 0 1-1.648 2.2 1.962 1.962 0 0 1-2.236-1.623 1.941 1.941 0 0 1 1.648-2.199z" class="cls-1" transform="translate(-13730.788 -16905.799)"/>
        <path id="패스_656" d="M1059.955 904.855a1.5 1.5 0 0 0 1.273-1.7 1.516 1.516 0 0 0-1.728-1.254 1.5 1.5 0 0 0-1.273 1.7 1.516 1.516 0 0 0 1.728 1.254z" class="cls-1" transform="translate(-14238.8 -17181.902)"/>
        <path id="패스_657" d="M1555.829 658.507h.04a.973.973 0 0 1 .465.151 3 3 0 0 1 .471.4q.171.162.326.338a4.94 4.94 0 0 1 .631.908 4.418 4.418 0 0 1 .393 1.039 4.59 4.59 0 0 1 .132 1.089 4.406 4.406 0 0 1-.069.789 4.035 4.035 0 0 1-.293.954 2.745 2.745 0 0 1-.853 1.092 2.289 2.289 0 0 1-1.257.432 2.336 2.336 0 0 1-2.108-1.15 2.161 2.161 0 0 1-.271-1.054 2.41 2.41 0 0 1 .3-1.161 2.5 2.5 0 0 1 .268-.393c.128-.154.274-.289.408-.437a2.583 2.583 0 0 0 .338-.472 3.682 3.682 0 0 0 .375-1.061 2.94 2.94 0 0 0 .063-.666 2.1 2.1 0 0 1 0-.3.63.63 0 0 1 .641-.498z" class="cls-1" transform="translate(-14721.069 -16944.893)"/>
        <path id="패스_658" d="M1341.859 756.347l-.026.019a.789.789 0 0 0-.239.325 2.45 2.45 0 0 0-.122.495q-.036.192-.053.386a4.083 4.083 0 0 0 .022.921 3.7 3.7 0 0 0 .248.9 3.919 3.919 0 0 0 .449.805 3.808 3.808 0 0 0 .437.5 3.465 3.465 0 0 0 .67.51 2.341 2.341 0 0 0 1.116.336 1.9 1.9 0 0 0 1.917-2.1 1.83 1.83 0 0 0-.338-.848 2.071 2.071 0 0 0-.777-.647 2.13 2.13 0 0 0-.375-.14c-.162-.043-.328-.066-.491-.1a2.207 2.207 0 0 1-.462-.16 3.162 3.162 0 0 1-.778-.544 2.526 2.526 0 0 1-.372-.424 1.793 1.793 0 0 0-.148-.2.531.531 0 0 0-.678-.034z" class="cls-1" transform="translate(-14514.582 -17040.07)"/>
    </g>
</svg>
