<svg xmlns="http://www.w3.org/2000/svg" width="122" height="122" viewBox="0 0 122 122">
  <defs>
    <style>
      .cls-1 {
        fill: none;
      }

      .cls-2 {
        fill: #212121;
      }
    </style>
  </defs>
  <g id="예약리스트" transform="translate(-1011 -567)">
    <rect id="사각형_3115" data-name="사각형 3115" class="cls-1" width="122" height="122" transform="translate(1011 567)"/>
    <g id="그룹_6300" data-name="그룹 6300" transform="translate(1039 585)">
      <path id="패스_671" data-name="패스 671" class="cls-2" d="M234.175,44.338a3.905,3.905,0,0,0-3.906-3.906H171.717a3.9,3.9,0,0,0-3.906,3.906v78.069a3.9,3.9,0,0,0,3.906,3.906h58.552a3.905,3.905,0,0,0,3.906-3.906ZM226.391,118.5H175.6V48.223h50.746Zm-42.46-16.588a3.905,3.905,0,0,1,3.906-3.906h26.311a3.906,3.906,0,0,1,0,7.784h-26.3a3.908,3.908,0,0,1-3.906-3.878Zm.6-18.541a3.905,3.905,0,0,1,3.906-3.906h25.709a3.906,3.906,0,0,1,0,7.784H188.439a3.907,3.907,0,0,1-3.9-3.878Zm0-18.548a3.906,3.906,0,0,1,3.906-3.892h25.709a3.906,3.906,0,0,1,.658,7.784,5.1,5.1,0,0,1-.658,0H188.439a3.913,3.913,0,0,1-3.9-3.885Z" transform="translate(-167.811 -40.432)"/>
    </g>
  </g>
</svg>
