<svg xmlns="http://www.w3.org/2000/svg" width="122" height="122" viewBox="0 0 122 122">
  <defs>
    <style>
      .cls-1 {
        fill: none;
      }

      .cls-2 {
        fill: #606060;
      }

    </style>
  </defs>
  <g id="설정" transform="translate(-350 -567)">
    <rect id="사각형_3113" data-name="사각형 3113" class="cls-1" width="122" height="122" transform="translate(350 567)" />
    <path id="패스_365" data-name="패스 365" class="cls-2"
      d="M81.9,102.269A18.409,18.409,0,1,1,100.306,83.86h0A18.432,18.432,0,0,1,81.9,102.269Zm0-30.061A11.652,11.652,0,1,0,93.549,83.86v-.007A11.659,11.659,0,0,0,81.9,72.207Zm0,55.559h-.515a57.016,57.016,0,0,1-6.358-.379,3.383,3.383,0,0,1-2.918-2.891l-.941-6.832a35.4,35.4,0,0,1-6.094-2.566l-5.416,4.062a3.372,3.372,0,0,1-4.062,0,56.145,56.145,0,0,1-4.739-4.225l-.366-.372a56.144,56.144,0,0,1-4.225-4.739,3.383,3.383,0,0,1,0-4.11l4.171-5.5a35.211,35.211,0,0,1-2.465-6.094l-6.7-.941A3.39,3.39,0,0,1,38.4,90.258a56.978,56.978,0,0,1-.379-6.351v-.521a56.785,56.785,0,0,1,.379-6.351,3.376,3.376,0,0,1,2.891-2.925l6.852-.934A35.2,35.2,0,0,1,50.7,67.123l-4.062-5.416a3.373,3.373,0,0,1,.034-4.1,54.9,54.9,0,0,1,4.218-4.739l.366-.366a56.143,56.143,0,0,1,4.739-4.225,3.373,3.373,0,0,1,4.1,0l5.511,4.184A35.431,35.431,0,0,1,71.7,50l.955-6.716a3.39,3.39,0,0,1,2.918-2.878,55.421,55.421,0,0,1,6.351-.386h.521a55.445,55.445,0,0,1,6.358.386A3.383,3.383,0,0,1,91.721,43.3l.941,6.859A35.58,35.58,0,0,1,98.7,52.708l5.416-4.062a3.382,3.382,0,0,1,4.1,0,57.215,57.215,0,0,1,4.739,4.225l.366.366a56.142,56.142,0,0,1,4.225,4.739,3.383,3.383,0,0,1,0,4.11l-4.177,5.5a35.943,35.943,0,0,1,2.471,6.087l6.71.961a3.376,3.376,0,0,1,2.871,2.911A55.42,55.42,0,0,1,125.8,83.9v.515a55.351,55.351,0,0,1-.386,6.358,3.383,3.383,0,0,1-2.891,2.918l-6.838.934a35,35,0,0,1-2.566,6.053l4.062,5.416a3.372,3.372,0,0,1,0,4.062,54.983,54.983,0,0,1-4.225,4.739l-.366.366a54.988,54.988,0,0,1-4.739,4.225,3.383,3.383,0,0,1-4.11,0L98.235,115.3a34.9,34.9,0,0,1-6.094,2.464l-.955,6.73a3.383,3.383,0,0,1-2.918,2.878A55.781,55.781,0,0,1,81.9,127.767Zm-3.467-6.859c.867.061,1.889.1,2.952.1H81.9c1.063,0,2.092-.047,2.959-.1l.894-6.3a3.377,3.377,0,0,1,2.593-2.817,28.542,28.542,0,0,0,8.4-3.385,3.417,3.417,0,0,1,3.92.291l5.024,3.812c.677-.576,1.4-1.266,2.153-2.031l.366-.366c.752-.752,1.449-1.5,2.031-2.16l-3.805-5.071a3.38,3.38,0,0,1-.162-3.819,28.435,28.435,0,0,0,3.487-8.125,3.392,3.392,0,0,1,2.864-2.776L119,87.292c.061-.86.1-1.889.1-2.945v-.515c0-1.063-.047-2.085-.1-2.959l-6.276-.894a3.387,3.387,0,0,1-2.823-2.586,28.252,28.252,0,0,0-3.385-8.3,3.918,3.918,0,0,1-.352-.718,3.39,3.39,0,0,1,.494-3.169l3.893-5.132a28.789,28.789,0,0,0-2.031-2.153l-.366-.366c-.752-.752-1.51-1.442-2.16-2.031l-5.085,3.825a3.393,3.393,0,0,1-4.022,0,28.424,28.424,0,0,0-8.125-3.385,3.377,3.377,0,0,1-2.539-2.823l-.873-6.385c-.873-.054-1.9-.1-2.952-.1h-.521c-1.056,0-2.085.047-2.952.1l-.887,6.3A3.39,3.39,0,0,1,75.2,55.917a28.325,28.325,0,0,0-8.125,3.345,3.416,3.416,0,0,1-2.607.372,3.364,3.364,0,0,1-1.354-.677l-5-3.792c-.677.576-1.4,1.266-2.153,2.031l-.366.366c-.758.752-1.449,1.5-2.031,2.16l3.819,5.085a3.388,3.388,0,0,1,.2,3.778l-.2.284A28.529,28.529,0,0,0,54,76.96,3.4,3.4,0,0,1,51.179,79.5l-6.378.873c-.054.867-.1,1.889-.1,2.945v.521c0,1.056.047,2.079.1,2.952l6.29.894a3.382,3.382,0,0,1,2.871,2.877v.129a28.437,28.437,0,0,0,3.3,8,3.376,3.376,0,0,1-.318,3.934L53.183,107.6c.575.677,1.266,1.408,2.031,2.153l.366.366c.752.752,1.5,1.449,2.153,2.031l5.085-3.819a3.389,3.389,0,0,1,4.2.115,28.21,28.21,0,0,0,7.949,3.3,3.393,3.393,0,0,1,2.539,2.823Z"
      transform="translate(328.983 543.981)" />
  </g>
</svg>
