<svg xmlns="http://www.w3.org/2000/svg" width="122" height="122" viewBox="0 0 122 122">
  <defs>
    <style>
      .cls-1 {
        fill: none;
      }

      .cls-2 {
        fill: #212121;
      }
    </style>
  </defs>
  <g id="회원권_락커" data-name="회원권, 락커" transform="translate(-841 -567)">
    <rect id="사각형_3117" data-name="사각형 3117" class="cls-1" width="122" height="122" transform="translate(841 567)"/>
    <g id="그룹_6299" data-name="그룹 6299" transform="translate(859 595)">
      <g id="빼기_1" data-name="빼기 1">
        <path id="패스_2240" data-name="패스 2240" class="cls-1" d="M134.43,63.514V48.887a7.075,7.075,0,0,1,7.077-7.077h71.757a7.075,7.075,0,0,1,7.077,7.077V63.394a11.33,11.33,0,0,0,0,21.937v15.781a7.075,7.075,0,0,1-7.077,7.077H141.507a7.079,7.079,0,0,1-7.077-7.077v-15.9a11.322,11.322,0,0,0,0-21.7Z" transform="translate(-134.43 -41.81)"/>
        <path id="패스_2241" data-name="패스 2241" class="cls-2" d="M142.214,58.78a19.074,19.074,0,0,1,0,31.165V100.4h70.341V90.256a19.129,19.129,0,0,1,0-31.788V49.594H142.214V58.78m-7.784,4.734V48.887a7.088,7.088,0,0,1,7.077-7.077H213.27a7.082,7.082,0,0,1,7.069,7.077V63.394a11.332,11.332,0,0,0,0,21.937v15.781a7.082,7.082,0,0,1-7.069,7.077H141.507a7.088,7.088,0,0,1-7.077-7.077v-15.9a11.325,11.325,0,0,0,0-21.7Z" transform="translate(-134.43 -41.81)"/>
      </g>
      <rect id="사각형_3121" data-name="사각형 3121" class="cls-2" width="7.781" height="56.613" transform="translate(50.177 3.535)"/>
    </g>
  </g>
</svg>
