<svg xmlns="http://www.w3.org/2000/svg" width="122" height="122" viewBox="0 0 122 122">
  <defs>
    <style>
      .cls-1 {
        fill: none;
      }

      .cls-2 {
        fill: #212121;
      }
    </style>
  </defs>
  <g id="터치패드" transform="translate(-161 -567)">
    <rect id="사각형_3093" data-name="사각형 3093" class="cls-1" width="122" height="122" transform="translate(161 567)"/>
    <path id="패스_423" data-name="패스 423" class="cls-2" d="M87.4,44.993a3.54,3.54,0,0,0-3.538-3.538H10.338A3.54,3.54,0,0,0,6.8,44.993V97.02a3.54,3.54,0,0,0,3.538,3.538h73.6a3.54,3.54,0,0,0,3.538-3.538ZM80.389,93.51H13.806V48.5H80.4ZM67.652,109.277a3.535,3.535,0,0,1-3.538,3.538H30.032a3.538,3.538,0,1,1-1-7.006,3.925,3.925,0,0,1,1,0H64.12a3.544,3.544,0,0,1,3.538,3.446Z" transform="translate(175.2 550.545)"/>
  </g>
</svg>
