<svg xmlns="http://www.w3.org/2000/svg" width="122" height="122" viewBox="0 0 122 122">
  <defs>
    <style>
      .cls-1 {
        fill: none;
      }

      .cls-2 {
        fill: #212121;
      }
      .darkgrey {
        fill: #606060;
      }
    </style>
  </defs>
  <g id="카테고리_추가" data-name="카테고리 추가" transform="translate(-326 -2305)">
    <rect id="사각형_3164" data-name="사각형 3164" class="cls-1" width="122" height="122" transform="translate(326 2305)"/>
    <g id="카테고리_추가-2" data-name="카테고리 추가" transform="translate(346 2332)">
      <path id="패스_2143" data-name="패스 2143" class="darkgrey" d="M-39.8,78.331h-37l-4.673-7.646a4.222,4.222,0,0,0-3.666-2h-27.535a4.29,4.29,0,0,0-4.288,4.284v60.011a4.285,4.285,0,0,0,4.288,4.284h72.869a4.284,4.284,0,0,0,4.288-4.276V82.759A4.411,4.411,0,0,0-39.8,78.331ZM-44.089,128.7h-64.3V77.261h20.838l4.673,7.646a4.227,4.227,0,0,0,3.666,2h35.119Z" transform="translate(116.965 -68.688)"/>
      <path id="패스_2144" data-name="패스 2144" class="darkgrey" d="M-103.272,92.061h4.794v4.794a3.731,3.731,0,0,0,3.7,3.708h.031a3.69,3.69,0,0,0,2.611-1.074,3.719,3.719,0,0,0,1.113-2.642V92.061h5.195A3.737,3.737,0,0,0-82.1,88.329v-.012A3.732,3.732,0,0,0-85.82,84.6h-5.2V79.4a3.741,3.741,0,0,0-3.7-3.7,3.8,3.8,0,0,0-2.646,1.078,3.693,3.693,0,0,0-1.105,2.642V84.6h-4.794A3.731,3.731,0,0,0-107,88.329,3.737,3.737,0,0,0-103.272,92.061Z" transform="translate(145.777 -48.431)"/>
    </g>
  </g>
</svg>
