<svg xmlns="http://www.w3.org/2000/svg" width="122" height="122" viewBox="0 0 122 122">
  <defs>
    <style>
      .cls-1 {
        fill: none;
      }

      .cls-2 {
        fill: #212121;
      }
    </style>
  </defs>
  <g id="채팅방_추가" data-name="채팅방 추가" transform="translate(-536 -1037)">
    <rect id="사각형_3092" data-name="사각형 3092" class="cls-1" width="122" height="122" transform="translate(536 1037)"/>
    <g id="그룹_12985" data-name="그룹 12985">
      <g id="그룹_5151" data-name="그룹 5151" transform="translate(558 1057)">
        <g id="그룹_5145" data-name="그룹 5145">
          <g id="합치기_79" data-name="합치기 79">
            <path id="패스_2235" data-name="패스 2235" class="cls-1" d="M219.505,81.218,209.039,70.689H170.374a8.216,8.216,0,0,1-7.869-8.542V10.758A8.239,8.239,0,0,1,170.374,2.2h62.953a8.239,8.239,0,0,1,7.869,8.562V62.147a8.217,8.217,0,0,1-7.869,8.542H226.54V81.218a2.385,2.385,0,0,1-2.64,2.046A6.468,6.468,0,0,1,219.505,81.218Z" transform="translate(-162.498 -2.196)"/>
            <path id="패스_2236" data-name="패스 2236" class="cls-2" d="M221.031,74.943V65.182h12.3c1.275,0,2.357-1.393,2.357-3.037V10.759c0-1.656-1.082-3.049-2.357-3.049H170.365c-1.275,0-2.357,1.393-2.357,3.049V62.144c0,1.645,1.082,3.037,2.357,3.037h40.959l1.617,1.625,8.089,8.137m2.868,8.322a6.471,6.471,0,0,1-4.4-2.046L209.034,70.69H170.365c-4.344,0-7.865-3.817-7.865-8.546V10.759c0-4.725,3.521-8.562,7.865-8.562h62.961c4.344,0,7.865,3.836,7.865,8.562V62.144c0,4.729-3.521,8.546-7.865,8.546h-6.787V81.219A2.384,2.384,0,0,1,223.9,83.265Z" transform="translate(-162.493 -2.193)"/>
          </g>
        </g>
      </g>
      <path id="플러스" class="cls-2" d="M-108.214-140.8a2.87,2.87,0,0,1-2.872,2.872h-11.487v10.856a2.87,2.87,0,0,1-2.882,2.861,2.873,2.873,0,0,1-2.861-2.861v-10.856h-10.856a2.87,2.87,0,0,1-2.872-2.872,2.872,2.872,0,0,1,2.872-2.872h10.856v-11.487a2.872,2.872,0,0,1,2.861-2.882,2.87,2.87,0,0,1,2.882,2.861v11.507h11.487a2.872,2.872,0,0,1,2.872,2.872Z" transform="translate(722.129 1232.533)"/>
    </g>
  </g>
</svg>
