<svg width="18" height="18" viewBox="0 0 18 18" fill="none" xmlns="http://www.w3.org/2000/svg">
    <path opacity="0.2" d="M15.75 9C15.75 10.335 15.3541 11.6401 14.6124 12.7501C13.8707 13.8601 12.8165 14.7253 11.5831 15.2362C10.3497 15.7471 8.99252 15.8808 7.68314 15.6203C6.37377 15.3598 5.17104 14.717 4.22703 13.773C3.28303 12.829 2.64015 11.6262 2.3797 10.3169C2.11925 9.00749 2.25292 7.65029 2.76382 6.41689C3.27471 5.18349 4.13987 4.12928 5.2499 3.38758C6.35994 2.64588 7.66498 2.25 9 2.25C10.7902 2.25 12.5071 2.96116 13.773 4.22703C15.0388 5.4929 15.75 7.20979 15.75 9Z" fill="#575555"/>
    <path d="M9 1.6875C7.0606 1.6875 5.20064 2.45792 3.82928 3.82928C2.45792 5.20064 1.6875 7.0606 1.6875 9C1.6875 10.9394 2.45792 12.7994 3.82928 14.1707C5.20064 15.5421 7.0606 16.3125 9 16.3125C10.5124 16.3125 12.1008 15.8569 13.249 15.094C13.3105 15.0531 13.3634 15.0005 13.4046 14.9391C13.4458 14.8778 13.4745 14.8089 13.4891 14.7365C13.5037 14.664 13.5039 14.5894 13.4897 14.5169C13.4754 14.4444 13.447 14.3754 13.4061 14.3139C13.3652 14.2523 13.3126 14.1994 13.2513 14.1582C13.1899 14.117 13.1211 14.0883 13.0486 14.0737C12.9762 14.0591 12.9016 14.059 12.8291 14.0732C12.7566 14.0874 12.6876 14.1158 12.626 14.1567C11.6719 14.7923 10.2804 15.1875 9 15.1875C7.77623 15.1875 6.57994 14.8246 5.56241 14.1447C4.54488 13.4648 3.75181 12.4985 3.2835 11.3679C2.81518 10.2372 2.69264 8.99314 2.93139 7.79288C3.17014 6.59262 3.75944 5.49011 4.62478 4.62478C5.49011 3.75944 6.59262 3.17014 7.79288 2.93139C8.99314 2.69264 10.2372 2.81518 11.3679 3.2835C12.4985 3.75181 13.4648 4.54488 14.1447 5.56241C14.8246 6.57994 15.1875 7.77623 15.1875 9C15.1875 10.8598 14.4225 11.25 13.7812 11.25C13.14 11.25 12.375 10.8598 12.375 9V6.1875C12.375 6.03832 12.3157 5.89524 12.2102 5.78975C12.1048 5.68426 11.9617 5.625 11.8125 5.625C11.6633 5.625 11.5202 5.68426 11.4148 5.78975C11.3093 5.89524 11.25 6.03832 11.25 6.1875V6.48703C10.7452 6.03445 10.1158 5.74439 9.44382 5.65463C8.77182 5.56487 8.08837 5.67958 7.48249 5.98381C6.87662 6.28805 6.37642 6.7677 6.04705 7.36028C5.71768 7.95287 5.57441 8.63091 5.63592 9.30608C5.69742 9.98126 5.96083 10.6223 6.39185 11.1456C6.82287 11.6689 7.40151 12.0503 8.05238 12.24C8.70325 12.4298 9.39618 12.4191 10.0409 12.2094C10.6856 11.9997 11.2522 11.6007 11.667 11.0644C12.0888 11.9081 12.8166 12.375 13.7812 12.375C15.3661 12.375 16.3125 11.1136 16.3125 9C16.3105 7.06123 15.5394 5.20246 14.1685 3.83154C12.7975 2.46063 10.9388 1.68955 9 1.6875ZM9 11.25C8.55499 11.25 8.11998 11.118 7.74997 10.8708C7.37996 10.6236 7.09157 10.2722 6.92127 9.86104C6.75097 9.4499 6.70642 8.9975 6.79323 8.56105C6.88005 8.12459 7.09434 7.72368 7.40901 7.40901C7.72368 7.09434 8.12459 6.88005 8.56105 6.79323C8.9975 6.70642 9.4499 6.75097 9.86104 6.92127C10.2722 7.09157 10.6236 7.37996 10.8708 7.74997C11.118 8.11998 11.25 8.55499 11.25 9C11.25 9.59674 11.0129 10.169 10.591 10.591C10.169 11.0129 9.59674 11.25 9 11.25Z" fill="#575555"/>
</svg>
