<svg xmlns="http://www.w3.org/2000/svg" width="122" height="122" viewBox="0 0 122 122">
  <defs>
    <style>
      .cls-1 {
        fill: none;
      }

      .cls-2 {
        fill: #212121;
      }
    </style>
  </defs>
  <g id="수동출석" transform="translate(-666 -2522)">
    <rect id="사각형_3171" data-name="사각형 3171" class="cls-1" width="122" height="122" transform="translate(666 2522)"/>
    <path id="수동출석-2" data-name="수동출석" class="cls-2" d="M22.114,106.48v59.587a3.608,3.608,0,0,1-3.612,3.608H-28.568a3.515,3.515,0,0,1-3.492-3.527l0-.081V149.552a3.611,3.611,0,0,1,3.612-3.612,3.61,3.61,0,0,1,3.608,3.612h0v12.9H14.883V110.092H-24.829v12.9a3.613,3.613,0,0,1-3.612,3.612,3.613,3.613,0,0,1-3.612-3.612V106.48a3.514,3.514,0,0,1,3.411-3.608H18.494a3.61,3.61,0,0,1,3.62,3.6ZM-16.215,147.9a3.609,3.609,0,0,0,.027,5.106,3.612,3.612,0,0,0,5.106-.027L3.036,138.689a3.608,3.608,0,0,0,0-5.079l-14.118-14.289a3.612,3.612,0,0,0-5.106-.027,3.609,3.609,0,0,0-.027,5.106l8.068,8.157-43.769.1a3.61,3.61,0,0,0-3.612,3.608,3.613,3.613,0,0,0,3.612,3.612h0l43.71-.1Z" transform="translate(743.527 2447.129)"/>
  </g>
</svg>
