<svg width="24" height="24" viewBox="0 0 24 24" fill="none" xmlns="http://www.w3.org/2000/svg">
<path opacity="0.2" d="M3.75 8.25H20.25V4.5C20.25 4.30109 20.171 4.11032 20.0303 3.96967C19.8897 3.82902 19.6989 3.75 19.5 3.75H4.5C4.30109 3.75 4.11032 3.82902 3.96967 3.96967C3.82902 4.11032 3.75 4.30109 3.75 4.5V8.25Z" fill="#575555"/>
<path d="M19.5 3H17.25V2.25C17.25 2.05109 17.171 1.86032 17.0303 1.71967C16.8897 1.57902 16.6989 1.5 16.5 1.5C16.3011 1.5 16.1103 1.57902 15.9697 1.71967C15.829 1.86032 15.75 2.05109 15.75 2.25V3H8.25V2.25C8.25 2.05109 8.17098 1.86032 8.03033 1.71967C7.88968 1.57902 7.69891 1.5 7.5 1.5C7.30109 1.5 7.11032 1.57902 6.96967 1.71967C6.82902 1.86032 6.75 2.05109 6.75 2.25V3H4.5C4.10218 3 3.72064 3.15804 3.43934 3.43934C3.15804 3.72064 3 4.10218 3 4.5V19.5C3 19.8978 3.15804 20.2794 3.43934 20.5607C3.72064 20.842 4.10218 21 4.5 21H19.5C19.8978 21 20.2794 20.842 20.5607 20.5607C20.842 20.2794 21 19.8978 21 19.5V4.5C21 4.10218 20.842 3.72064 20.5607 3.43934C20.2794 3.15804 19.8978 3 19.5 3ZM6.75 4.5V5.25C6.75 5.44891 6.82902 5.63968 6.96967 5.78033C7.11032 5.92098 7.30109 6 7.5 6C7.69891 6 7.88968 5.92098 8.03033 5.78033C8.17098 5.63968 8.25 5.44891 8.25 5.25V4.5H15.75V5.25C15.75 5.44891 15.829 5.63968 15.9697 5.78033C16.1103 5.92098 16.3011 6 16.5 6C16.6989 6 16.8897 5.92098 17.0303 5.78033C17.171 5.63968 17.25 5.44891 17.25 5.25V4.5H19.5V7.5H4.5V4.5H6.75ZM19.5 19.5H4.5V9H19.5V19.5Z" fill="#575555"/>
<path d="M11.0063 13.5094L11.8312 12.4688C11.9193 12.3588 11.9746 12.2261 11.9908 12.0861C12.007 11.9461 11.9834 11.8044 11.9227 11.6772C11.8621 11.5499 11.7668 11.4424 11.6478 11.3669C11.5288 11.2913 11.3909 11.2508 11.25 11.25H8.625C8.42609 11.25 8.23532 11.329 8.09467 11.4697C7.95402 11.6104 7.875 11.8011 7.875 12C7.875 12.1989 7.95402 12.3897 8.09467 12.5304C8.23532 12.671 8.42609 12.75 8.625 12.75H9.69375L9.16875 13.4063C9.08066 13.5163 9.02535 13.6489 9.00917 13.7889C8.99299 13.9289 9.01658 14.0707 9.07726 14.1979C9.13793 14.3251 9.23322 14.4327 9.35221 14.5082C9.47119 14.5837 9.60906 14.6242 9.75 14.625C9.94891 14.625 10.1397 14.704 10.2803 14.8447C10.421 14.9854 10.5 15.1761 10.5 15.375C10.5 15.5739 10.421 15.7647 10.2803 15.9054C10.1397 16.046 9.94891 16.125 9.75 16.125C9.55084 16.1242 9.35959 16.047 9.21563 15.9094C9.14665 15.8388 9.06425 15.7827 8.97329 15.7444C8.88233 15.7062 8.78463 15.6864 8.68594 15.6864C8.58724 15.6864 8.48955 15.7062 8.39858 15.7444C8.30762 15.7827 8.22523 15.8388 8.15625 15.9094C8.01599 16.05 7.93722 16.2405 7.93722 16.4391C7.93722 16.6377 8.01599 16.8282 8.15625 16.9688C8.47094 17.2846 8.87234 17.4997 9.30953 17.587C9.74672 17.6743 10.2 17.6297 10.6118 17.459C11.0236 17.2882 11.3754 16.999 11.6226 16.628C11.8697 16.2569 12.0011 15.8208 12 15.375C12.0007 15.0063 11.9103 14.6431 11.737 14.3177C11.5636 13.9922 11.3126 13.7146 11.0063 13.5094ZM15.3375 11.325C15.2118 11.265 15.0721 11.2403 14.9334 11.2535C14.7947 11.2667 14.6621 11.3173 14.55 11.4L13.05 12.525C12.8909 12.6444 12.7857 12.822 12.7575 13.019C12.7294 13.2159 12.7807 13.4159 12.9 13.575C13.0208 13.7321 13.1983 13.8357 13.3945 13.8637C13.5907 13.8918 13.79 13.842 13.95 13.725L14.25 13.5V16.875C14.25 17.0739 14.329 17.2647 14.4697 17.4054C14.6103 17.546 14.8011 17.625 15 17.625C15.1989 17.625 15.3897 17.546 15.5303 17.4054C15.671 17.2647 15.75 17.0739 15.75 16.875V12C15.7489 11.8607 15.7099 11.7243 15.6372 11.6054C15.5646 11.4865 15.461 11.3896 15.3375 11.325Z" fill="#575555"/>
</svg>
