<svg xmlns="http://www.w3.org/2000/svg" width="122" height="122" viewBox="0 0 122 122">
  <defs>
    <style>
      .cls-1 {
        fill: none;
      }

      .cls-2 {
        fill: #212121;
      }
    </style>
  </defs>
  <g id="카메라" transform="translate(-666 -1855)">
    <rect id="사각형_3148" data-name="사각형 3148" class="cls-1" width="122" height="122" transform="translate(666 1855)"/>
    <g id="카메라-2" data-name="카메라" transform="translate(682 1878)">
      <path id="패스_1985" data-name="패스 1985" class="cls-2" d="M19.527,17.439H11.56L8.554,11.431A13.9,13.9,0,0,0-3.931,3.709H-18.449a13.908,13.908,0,0,0-12.49,7.722l-3.006,6.008h-7.963A13.98,13.98,0,0,0-55.875,31.4V65.468A13.982,13.982,0,0,0-41.913,79.43h61.44A13.982,13.982,0,0,0,33.49,65.468V31.4A13.982,13.982,0,0,0,19.527,17.439Zm6.981,48.029a6.988,6.988,0,0,1-6.981,6.981h-61.44a6.988,6.988,0,0,1-6.981-6.981V31.4a6.988,6.988,0,0,1,6.981-6.981h10.125a3.494,3.494,0,0,0,3.122-1.929l3.971-7.942a6.938,6.938,0,0,1,6.24-3.859H-3.936A6.938,6.938,0,0,1,2.3,14.549l3.971,7.942A3.494,3.494,0,0,0,9.4,24.42H19.523A6.988,6.988,0,0,1,26.5,31.4Zm-37.7-37.787A17.238,17.238,0,0,0-28.411,44.9,17.244,17.244,0,0,0-11.193,62.121,17.245,17.245,0,0,0,6.03,44.9,17.239,17.239,0,0,0-11.193,27.68Zm0,27.46A10.251,10.251,0,0,1-21.43,44.9,10.247,10.247,0,0,1-11.193,34.662,10.248,10.248,0,0,1-.951,44.9,10.252,10.252,0,0,1-11.193,55.14Z" transform="translate(55.875 -3.709)"/>
    </g>
  </g>
</svg>
