<svg xmlns="http://www.w3.org/2000/svg" width="122" height="122" viewBox="0 0 122 122">
  <defs>
    <style>
      .cls-1 {
        fill: none;
      }

      .cls-2 {
        fill: #212121;
      }
    </style>
  </defs>
  <g id="출석취소" transform="translate(-836 -2522)">
    <rect id="사각형_3174" data-name="사각형 3174" class="cls-1" width="122" height="122" transform="translate(836 2522)"/>
    <path id="출석취소-2" data-name="출석취소" class="cls-2" d="M26.937,149.552v16.515a3.473,3.473,0,0,1-3.333,3.6l-.112,0H-23.614a3.61,3.61,0,0,1-3.612-3.608V106.48a3.607,3.607,0,0,1,3.608-3.608H23.491a3.47,3.47,0,0,1,3.445,3.5v16.623a3.612,3.612,0,0,1-7.224,0v-12.9H-20.006v52.359H19.713v-12.9a3.612,3.612,0,1,1,7.224,0Zm27.842-15.938L40.63,119.325A3.611,3.611,0,1,0,35.5,124.4l8.079,8.153-43.815.1a3.61,3.61,0,0,0-3.612,3.608,3.613,3.613,0,0,0,3.612,3.612h0l43.757-.1L35.5,147.895a3.612,3.612,0,0,0,5.133,5.083h0l14.149-14.289a3.615,3.615,0,0,0,0-5.079Z" transform="translate(882.226 2447.129)"/>
  </g>
</svg>
