<svg width="43" height="30" viewBox="0 0 43 30" fill="none" xmlns="http://www.w3.org/2000/svg">
    <rect width="43" height="30" rx="5" fill="#848382"/>
    <rect width="43" height="6" transform="translate(0 24)" fill="#575555"/>
    <path fill-rule="evenodd" clip-rule="evenodd" d="M6 12C5.44772 12 5 12.4477 5 13V13.3333H7.66667V12H6ZM7.93333 12V13.3333V13.6V14.9333V15.2V16.5333V16.8V18.1333V18.4L7.93333 20H10.3333V18.4V18.1333V16.8V16.5333V15.2V14.9333H10.6H13V13C13 12.4477 12.5523 12 12 12H7.93333ZM13 15.2H10.6V16.5333H13V15.2ZM13 16.8H10.6V18.1333H13V16.8ZM13 18.4H10.6V20H12C12.5523 20 13 19.5523 13 19V18.4ZM7.66667 20L7.66667 18.4H5V19C5 19.5523 5.44772 20 6 20H7.66667ZM5 18.1333H7.66667V16.8H5V18.1333ZM5 16.5333H7.66667V15.2H5V16.5333ZM5 14.9333H7.66667V13.6H5V14.9333Z" fill="white"/>
</svg>
