<svg width="24" height="24" viewBox="0 0 24 24" fill="none" xmlns="http://www.w3.org/2000/svg">
<path opacity="0.2" d="M18 7.5V16.5H9.75C10.3433 16.5 10.9234 16.3241 11.4167 15.9944C11.9101 15.6648 12.2946 15.1962 12.5216 14.648C12.7487 14.0999 12.8081 13.4967 12.6924 12.9147C12.5766 12.3328 12.2909 11.7982 11.8713 11.3787C11.4518 10.9591 10.9172 10.6734 10.3353 10.5576C9.75333 10.4419 9.15013 10.5013 8.60195 10.7284C8.05377 10.9554 7.58524 11.3399 7.25559 11.8333C6.92595 12.3266 6.75 12.9067 6.75 13.5H6V7.5H18Z" fill="#575555"/>
<path d="M20.25 3.75H3.75C3.35218 3.75 2.97064 3.90804 2.68934 4.18934C2.40804 4.47064 2.25 4.85218 2.25 5.25V18.75C2.25 19.1478 2.40804 19.5294 2.68934 19.8107C2.97064 20.092 3.35218 20.25 3.75 20.25H5.00625C5.14827 20.2504 5.2874 20.21 5.40708 20.1335C5.52676 20.057 5.62193 19.9478 5.68125 19.8187C6.04822 19.0508 6.62505 18.4023 7.34505 17.9484C8.06506 17.4944 8.89884 17.2535 9.75 17.2535C10.6012 17.2535 11.4349 17.4944 12.1549 17.9484C12.875 18.4023 13.4518 19.0508 13.8187 19.8187C13.8781 19.9478 13.9732 20.057 14.0929 20.1335C14.2126 20.21 14.3517 20.2504 14.4938 20.25H20.25C20.6478 20.25 21.0294 20.092 21.3107 19.8107C21.592 19.5294 21.75 19.1478 21.75 18.75V5.25C21.75 4.85218 21.592 4.47064 21.3107 4.18934C21.0294 3.90804 20.6478 3.75 20.25 3.75ZM7.5 13.5C7.5 13.055 7.63196 12.62 7.87919 12.25C8.12643 11.88 8.47783 11.5916 8.88896 11.4213C9.3001 11.251 9.7525 11.2064 10.189 11.2932C10.6254 11.38 11.0263 11.5943 11.341 11.909C11.6557 12.2237 11.87 12.6246 11.9568 13.061C12.0436 13.4975 11.999 13.9499 11.8287 14.361C11.6584 14.7722 11.37 15.1236 11 15.3708C10.63 15.618 10.195 15.75 9.75 15.75C9.15402 15.7475 8.58316 15.5097 8.16174 15.0883C7.74031 14.6668 7.50247 14.096 7.5 13.5ZM20.25 18.75H14.9437C14.3178 17.6731 13.3749 16.8153 12.2438 16.2937C12.8115 15.7882 13.2122 15.1221 13.3927 14.3837C13.5732 13.6452 13.5251 12.8694 13.2546 12.1589C12.9842 11.4485 12.5042 10.837 11.8783 10.4056C11.2524 9.97412 10.5102 9.74309 9.75 9.74309C8.98982 9.74309 8.24758 9.97412 7.6217 10.4056C6.99581 10.837 6.51582 11.4485 6.24536 12.1589C5.9749 12.8694 5.92675 13.6452 6.10728 14.3837C6.28782 15.1221 6.68851 15.7882 7.25625 16.2937C6.12507 16.8153 5.18223 17.6731 4.55625 18.75H3.75V5.25H20.25V18.75ZM5.25 9V7.5C5.25 7.30109 5.32902 7.11032 5.46967 6.96967C5.61032 6.82902 5.80109 6.75 6 6.75H18C18.1989 6.75 18.3897 6.82902 18.5303 6.96967C18.671 7.11032 18.75 7.30109 18.75 7.5V16.5C18.75 16.6989 18.671 16.8897 18.5303 17.0303C18.3897 17.171 18.1989 17.25 18 17.25H16.5C16.3011 17.25 16.1103 17.171 15.9697 17.0303C15.829 16.8897 15.75 16.6989 15.75 16.5C15.75 16.3011 15.829 16.1103 15.9697 15.9697C16.1103 15.829 16.3011 15.75 16.5 15.75H17.25V8.25H6.75V9C6.75 9.19891 6.67098 9.38968 6.53033 9.53033C6.38968 9.67098 6.19891 9.75 6 9.75C5.80109 9.75 5.61032 9.67098 5.46967 9.53033C5.32902 9.38968 5.25 9.19891 5.25 9Z" fill="#575555"/>
</svg>
