<svg xmlns="http://www.w3.org/2000/svg" width="122" height="122" viewBox="0 0 122 122">
  <defs>
    <style>
      .cls-1 {
        fill: none;
      }
      .cls-2 {
        fill: #606060;
      }
    </style>
  </defs>
  <g id="자리이동" transform="translate(-1150 -585)">
    <rect id="사각형_3114" data-name="사각형 3114" class="cls-1" width="122" height="122" transform="translate(1150 585)"/>
    <path id="패스_286" class="cls-2" data-name="패스 286" d="M1908.08,734.8l-9.83,9.754a3.161,3.161,0,0,1-4.437,0l-9.849-9.754a3.108,3.108,0,0,1-.05-4.408,3.035,3.035,0,0,1,4.34-.007l4.313,4.453v-20.6H1865.1a3.13,3.13,0,0,1,0-6.261h30.942a2.773,2.773,0,0,1,2.783,3.033v23.824l4.661-4.453a3.357,3.357,0,0,1,4.6.007A3.107,3.107,0,0,1,1908.08,734.8Zm-27.181,4.486h-27.464V718.519l4.313,4.453a2.933,2.933,0,0,0,2.124.909,3.032,3.032,0,0,0,2.173-.916,3.107,3.107,0,0,0-.028-4.408l-9.839-9.754a3.148,3.148,0,0,0-4.427,0l-9.831,9.754a3.107,3.107,0,0,0-.008,4.408,3.356,3.356,0,0,0,4.6.007l4.66-4.453v23.825a2.918,2.918,0,0,0,2.783,3.2H1880.9a3.13,3.13,0,1,0,0-6.261Z" transform="translate(-662 -80.895)"/>
  </g>
</svg>
