<svg xmlns="http://www.w3.org/2000/svg" width="122" height="122" viewBox="0 0 122 122">
  <defs>
    <style>
      .cls-1 {
        fill: none;
      }

      .cls-2 {
        fill: #606060;
      }

    </style>
  </defs>
  <g id="체크" transform="translate(-161 -1295)">
    <rect id="사각형_3134" data-name="사각형 3134" class="cls-1" width="122" height="122" transform="translate(161 1295)" />
    <path id="체크-2" data-name="체크" class="cls-2"
      d="M-112.185-126.127a5.287,5.287,0,0,1-3.752-1.535l-23.541-23.5a5.31,5.31,0,0,1-.008-7.512,5.316,5.316,0,0,1,7.512-.008l19.789,19.758,47.09-47.021a5.31,5.31,0,0,1,7.512.008,5.317,5.317,0,0,1,0,7.512l-50.842,50.766A5.318,5.318,0,0,1-112.185-126.127Z"
      transform="translate(320.04 1512.5)" />
  </g>
</svg>
