<svg xmlns="http://www.w3.org/2000/svg" width="20" height="20" viewBox="0 0 20 20">
    <g id="Group_9132" data-name="Group 9132" transform="translate(-250.478 -457)">
        <rect id="Rectangle_3125" data-name="Rectangle 3125" width="20" height="20" transform="translate(250.478 457)"
            fill="none" />
        <g id="Group_9129" data-name="Group 9129" transform="translate(256.153 462.512)">
            <path id="왼짧은화살표"
                d="M-27.2-210.292a.649.649,0,0,1,.132.91.65.65,0,0,1-.909.132.65.65,0,0,1-.118-.113l-4.2-4.038a.651.651,0,0,1-.009-.919l.009-.009,4.2-4.038a.651.651,0,0,1,.915-.1.65.65,0,0,1,.1.914.648.648,0,0,1-.118.113l-3.714,3.572Z"
                transform="translate(35.264 218.609)" fill="#606060" />
            <path id="왼짧은화살표-2" data-name="왼짧은화살표"
                d="M-27.2-210.292a.649.649,0,0,1,.132.91.65.65,0,0,1-.909.132.65.65,0,0,1-.118-.113l-4.2-4.038a.651.651,0,0,1-.009-.919l.009-.009,4.2-4.038a.651.651,0,0,1,.915-.1.65.65,0,0,1,.1.914.648.648,0,0,1-.118.113l-3.714,3.572Z"
                transform="translate(32.489 218.609)" fill="#606060" />
        </g>
    </g>
</svg>
