<svg xmlns="http://www.w3.org/2000/svg" width="122" height="122" viewBox="0 0 122 122">
  <defs>
    <style>
      .cls-1 {
        fill: #606060;
      }

      .cls-2 {
        fill: none;
      }
    </style>
  </defs>
  <g id="비우기" transform="translate(-438 -607)">
    <path id="패스_426" data-name="패스 426" class="cls-1" d="M2100.428,3809.457v-3.529a3.926,3.926,0,1,1,7.851,0v3.529a3.926,3.926,0,1,1-7.851,0Zm38.279,26.9a3.925,3.925,0,0,1-3.926,3.927h-3.531a3.925,3.925,0,1,1,0-7.85h3.531A3.925,3.925,0,0,1,2138.708,3836.353Zm-30.428,26.9v3.532a3.926,3.926,0,1,1-7.851,0v-3.532a3.926,3.926,0,0,1,7.851,0Zm-30.819-22.969h-3.534a3.925,3.925,0,1,1,0-7.85h3.534a3.925,3.925,0,1,1,0,7.85Zm43.136-20.166a3.926,3.926,0,0,1,0-5.552l2.5-2.5a3.927,3.927,0,0,1,5.554,5.554l-2.5,2.5a3.931,3.931,0,0,1-5.554,0Zm8.05,34.978a3.927,3.927,0,0,1-5.554,5.554l-2.5-2.5a3.927,3.927,0,0,1,5.554-5.554Zm-40.533-2.5a3.928,3.928,0,0,1,0,5.554l-2.5,2.5a3.927,3.927,0,0,1-5.553-5.554l2.5-2.5A3.931,3.931,0,0,1,2088.114,3852.6Zm-8.049-34.979a3.927,3.927,0,0,1,5.553-5.554l2.5,2.5a3.926,3.926,0,0,1-5.554,5.552Z" transform="translate(-1605.057 -3168.057)"/>
    <rect id="사각형_3463" data-name="사각형 3463" class="cls-2" width="122" height="122" transform="translate(438 607)"/>
  </g>
</svg>
