<svg width="24" height="24" viewBox="0 0 24 24" fill="none" xmlns="http://www.w3.org/2000/svg">
<path opacity="0.2" d="M12 20.25C16.5563 20.25 20.25 16.5563 20.25 12C20.25 7.44365 16.5563 3.75 12 3.75C7.44365 3.75 3.75 7.44365 3.75 12C3.75 16.5563 7.44365 20.25 12 20.25Z" fill="#575555"/>
<path d="M12 6.75C11.8011 6.75 11.6103 6.82902 11.4697 6.96967C11.329 7.11032 11.25 7.30109 11.25 7.5V12.0656C11.25 12.075 11.2594 12.0844 11.2594 12.1031V12.1406C11.2687 12.15 11.2687 12.1594 11.2687 12.1781C11.2721 12.1819 11.2747 12.1864 11.2763 12.1912C11.2779 12.1961 11.2786 12.2012 11.2781 12.2062L11.2969 12.2438C11.2964 12.2488 11.2971 12.2539 11.2987 12.2588C11.3003 12.2636 11.3029 12.2681 11.3062 12.2719C11.3062 12.2906 11.3156 12.3 11.3156 12.3094L11.3344 12.3375C11.3344 12.3448 11.3361 12.352 11.3393 12.3585C11.3426 12.365 11.3473 12.3706 11.3531 12.375L11.3719 12.4031L11.3906 12.4313L11.4094 12.4688L11.4281 12.4875C11.4375 12.4969 11.4469 12.5156 11.4656 12.525L11.4844 12.5438L11.5125 12.5719L11.5406 12.5906L11.5688 12.6188L11.6063 12.6375H11.625L15.525 14.8875C15.6369 14.9584 15.7675 14.9943 15.9 14.9906C16.0643 14.9896 16.2237 14.9347 16.3537 14.8344C16.4837 14.734 16.5772 14.5937 16.6198 14.4351C16.6624 14.2764 16.6518 14.1082 16.5895 13.9562C16.5272 13.8042 16.4167 13.6769 16.275 13.5938L12.75 11.5688V7.5C12.75 7.30109 12.671 7.11032 12.5303 6.96967C12.3897 6.82902 12.1989 6.75 12 6.75Z" fill="#575555"/>
<path d="M21.6376 9.76875C21.647 9.75 21.6563 9.74063 21.6563 9.73125L21.6751 9.70313C21.6845 9.69375 21.6845 9.675 21.6938 9.66563L21.7126 9.6375C21.7112 9.62429 21.7145 9.611 21.722 9.6C21.722 9.59063 21.7313 9.58125 21.7313 9.5625C21.7347 9.5587 21.7373 9.55424 21.7389 9.54941C21.7405 9.54457 21.7411 9.53946 21.7407 9.53438C21.7407 9.51563 21.7501 9.50625 21.7501 9.49688C21.7501 9.4875 21.7595 9.46875 21.7595 9.45938V9.42188C21.7672 9.39767 21.7704 9.37224 21.7688 9.34688V5.59688C21.7688 5.39797 21.6898 5.2072 21.5492 5.06655C21.4085 4.9259 21.2178 4.84688 21.0188 4.84688C20.8199 4.84688 20.6292 4.9259 20.4885 5.06655C20.3479 5.2072 20.2688 5.39797 20.2688 5.59688V7.5375L18.3657 5.63438C17.1069 4.37618 15.5032 3.51948 13.7575 3.17259C12.0118 2.82571 10.2024 3.00421 8.55818 3.68554C6.91392 4.36687 5.50859 5.52042 4.51986 7.00036C3.53114 8.4803 3.00342 10.2202 3.00342 12C3.00342 13.7798 3.53114 15.5197 4.51986 16.9996C5.50859 18.4796 6.91392 19.6331 8.55818 20.3145C10.2024 20.9958 12.0118 21.1743 13.7575 20.8274C15.5032 20.4805 17.1069 19.6238 18.3657 18.3656C18.506 18.225 18.5847 18.0345 18.5847 17.8359C18.5847 17.6373 18.506 17.4469 18.3657 17.3063C18.2967 17.2357 18.2143 17.1796 18.1234 17.1413C18.0324 17.103 17.9347 17.0833 17.836 17.0833C17.7373 17.0833 17.6396 17.103 17.5487 17.1413C17.4577 17.1796 17.3753 17.2357 17.3063 17.3063C16.2571 18.3543 14.9207 19.0678 13.4661 19.3565C12.0115 19.6452 10.5039 19.4962 9.13394 18.9283C7.76398 18.3604 6.59313 17.3991 5.76939 16.1659C4.94565 14.9327 4.50599 13.483 4.50599 12C4.50599 10.517 4.94565 9.06728 5.76939 7.83409C6.59313 6.60091 7.76398 5.63961 9.13394 5.07171C10.5039 4.5038 12.0115 4.35479 13.4661 4.6435C14.9207 4.93222 16.2571 5.64569 17.3063 6.69375L19.2095 8.59688H17.2688C17.0699 8.59688 16.8792 8.6759 16.7385 8.81655C16.5979 8.9572 16.5188 9.14797 16.5188 9.34688C16.5188 9.54579 16.5979 9.73656 16.7385 9.87721C16.8792 10.0179 17.0699 10.0969 17.2688 10.0969H21.2345L21.272 10.0781H21.3001L21.3376 10.0594H21.3657L21.4032 10.0406L21.4313 10.0219L21.4688 9.99375L21.4876 9.975L21.6001 9.87188L21.6188 9.84375L21.6376 9.76875Z" fill="#575555"/>
</svg>
