<svg xmlns="http://www.w3.org/2000/svg" width="122" height="122" viewBox="0 0 122 122">
  <defs>
    <style>
      .cls-1 {
        fill: none;
      }

      .cls-2 {
        fill: #212121;
      }
    </style>
  </defs>
  <g id="그룹_11442" data-name="그룹 11442" transform="translate(-1179 -1275)">
    <rect id="사각형_3137" data-name="사각형 3137" class="cls-1" width="122" height="122" transform="translate(1179 1275)"/>
    <path id="합치기_99" data-name="합치기 99" class="cls-2" d="M-6052.269,24743.549a4.27,4.27,0,0,1-2.968-1.355l-11.481-10.266a18.653,18.653,0,0,1-9.485,2.564h-.147a18.509,18.509,0,0,1-13.1-5.482,18.14,18.14,0,0,1-5.345-13.037,18.175,18.175,0,0,1,5.554-12.955,19.576,19.576,0,0,1,13.183-5.285,18.5,18.5,0,0,1,18.434,18.533,17.99,17.99,0,0,1-2.933,9.791l11.542,10.344a4.2,4.2,0,0,1,1.188,3.09,4.158,4.158,0,0,1-1.371,2.943,4.259,4.259,0,0,1-2.9,1.123Zm-31.581-34.789a10.38,10.38,0,0,0-3,7.463v.008a10.5,10.5,0,0,0,10.536,10.338h.061a10.7,10.7,0,0,0,7.611-3.172,10.345,10.345,0,0,0,3.011-7.459,10.574,10.574,0,0,0-10.6-10.355h-.148A10.624,10.624,0,0,0-6083.85,24708.76Zm-53.589,7.42a5.2,5.2,0,0,1,0-7.43l21.618-21.387-21.618-21.395a5.2,5.2,0,0,1,0-7.43,5.345,5.345,0,0,1,7.506,0l21.627,21.387,21.626-21.387a5.356,5.356,0,0,1,7.516,0,5.212,5.212,0,0,1,0,7.43l-21.626,21.395,6.8,6.607a5.218,5.218,0,0,1,0,7.434,5.5,5.5,0,0,1-7.628,0l-6.691-6.607-21.627,21.383a5.321,5.321,0,0,1-3.753,1.545A5.32,5.32,0,0,1-6137.439,24716.18Z" transform="translate(7333.001 -23364)"/>
  </g>
</svg>
