<svg width="24" height="24" viewBox="0 0 24 24" fill="none" xmlns="http://www.w3.org/2000/svg">
<path opacity="0.2" d="M2.25 9.08398H21.75V17.9996C21.75 18.1985 21.671 18.3893 21.5303 18.5299C21.3897 18.6706 21.1989 18.7496 21 18.7496H3C2.80109 18.7496 2.61032 18.6706 2.46967 18.5299C2.32902 18.3893 2.25 18.1985 2.25 17.9996V9.08398Z" fill="#575555"/>
<path d="M21 4.5H3C2.60218 4.5 2.22064 4.65804 1.93934 4.93934C1.65804 5.22064 1.5 5.60218 1.5 6V17.9906C1.5 18.3884 1.65804 18.77 1.93934 19.0513C2.22064 19.3326 2.60218 19.4906 3 19.4906H21C21.3978 19.4906 21.7794 19.3326 22.0607 19.0513C22.342 18.77 22.5 18.3884 22.5 17.9906V6C22.5 5.60218 22.342 5.22064 22.0607 4.93934C21.7794 4.65804 21.3978 4.5 21 4.5ZM21 6V8.33438H3V6H21ZM21 18H3V9.83438H21V18Z" fill="#575555"/>
<path d="M18.75 15H15.75C15.5511 15 15.3603 15.079 15.2197 15.2197C15.079 15.3603 15 15.5511 15 15.75C15 15.9489 15.079 16.1397 15.2197 16.2803C15.3603 16.421 15.5511 16.5 15.75 16.5H18.75C18.9489 16.5 19.1397 16.421 19.2803 16.2803C19.421 16.1397 19.5 15.9489 19.5 15.75C19.5 15.5511 19.421 15.3603 19.2803 15.2197C19.1397 15.079 18.9489 15 18.75 15ZM12.75 15H11.25C11.0511 15 10.8603 15.079 10.7197 15.2197C10.579 15.3603 10.5 15.5511 10.5 15.75C10.5 15.9489 10.579 16.1397 10.7197 16.2803C10.8603 16.421 11.0511 16.5 11.25 16.5H12.75C12.9489 16.5 13.1397 16.421 13.2803 16.2803C13.421 16.1397 13.5 15.9489 13.5 15.75C13.5 15.5511 13.421 15.3603 13.2803 15.2197C13.1397 15.079 12.9489 15 12.75 15Z" fill="#575555"/>
</svg>
