<svg width="37" height="37" viewBox="0 0 37 37" fill="none" xmlns="http://www.w3.org/2000/svg">
    <rect width="37" height="37" rx="10" fill="none"/>
    <path d="M23.9127 18.407C23.9127 17.829 23.5047 17.404 22.9607 17.404C22.3317 17.404 21.9067 17.795 21.9067 18.407C21.9067 18.985 22.3317 19.41 22.8927 19.41C23.5047 19.41 23.9127 19.002 23.9127 18.407ZM18.9997 18.407C18.9997 17.829 18.5747 17.404 18.0307 17.404C17.4017 17.404 16.9937 17.795 16.9937 18.407C16.9937 18.985 17.4017 19.41 17.9627 19.41C18.5747 19.41 18.9997 19.002 18.9997 18.407ZM14.0867 18.407C14.0867 17.829 13.6447 17.404 13.1007 17.404C12.4717 17.404 12.0637 17.795 12.0637 18.407C12.0637 18.985 12.4887 19.41 13.0327 19.41C13.6447 19.41 14.0867 19.002 14.0867 18.407Z" fill="#2F2D2D"/>
</svg>


