<svg xmlns="http://www.w3.org/2000/svg" width="122" height="122" viewBox="0 0 122 122">
  <defs>
    <style>
      .cls-1 {
        fill: none;
      }
      .grey {
        fill:#606060;
      }
    </style>
  </defs>
  <g id="다운로드" transform="translate(-747 -1405)">
    <path class='grey' id="패스_390" data-name="패스 390" d="M2358.2,2953.841v23.491a4.313,4.313,0,0,1-4.313,4.314h-65.568a4.315,4.315,0,0,1-4.314-4.314v-23.491a4.314,4.314,0,0,1,8.627,0v19.178h56.94v-19.178a4.314,4.314,0,0,1,8.627,0Zm-40.178,5.41a4.313,4.313,0,0,0,6.164,0l17.209-17.571a4.314,4.314,0,0,0-6.164-6.037l-9.814,10.02v-37.35a4.314,4.314,0,0,0-8.627,0v37.349l-9.811-10.019a4.314,4.314,0,1,0-6.164,6.037Z" transform="translate(-1513 -1476.999)"/>
    <rect id="사각형_3142" data-name="사각형 3142" class="cls-1" width="122" height="122" transform="translate(747 1405)"/>
  </g>
</svg>
