<svg xmlns="http://www.w3.org/2000/svg" width="36.743" height="18.21" viewBox="0 0 36.743 18.21">
  <defs>
    <style>
      .cls-1 {
        fill: #e9e9e9;
      }
    </style>
  </defs>
  <g id="empty_img" data-name="empty img" transform="translate(-116.254 -237.564)">
    <path id="패스_2392" data-name="패스 2392" class="cls-1" d="M104.062-58.339a1.467,1.467,0,0,0,1.466,1.466h3.829a1.467,1.467,0,0,0,1.466-1.466,1.466,1.466,0,0,0-1.466-1.466h-3.829a1.466,1.466,0,0,0-1.466,1.466Zm0,0" transform="translate(42.173 312.645)"/>
    <path id="패스_2393" data-name="패스 2393" class="cls-1" d="M85.564-127.88a1.458,1.458,0,0,0,.915-.321l2.991-2.391a1.466,1.466,0,0,0,.229-2.061,1.467,1.467,0,0,0-2.061-.23l-2.991,2.392a1.467,1.467,0,0,0-.23,2.061,1.465,1.465,0,0,0,1.147.55Zm0,0" transform="translate(59.536 376.477)"/>
    <path id="패스_2394" data-name="패스 2394" class="cls-1" d="M35.3-170.489a1.461,1.461,0,0,0,.448.071,1.467,1.467,0,0,0,1.4-1.018l1.17-3.646a1.466,1.466,0,0,0-.948-1.844,1.467,1.467,0,0,0-1.844.948l-1.17,3.646a1.466,1.466,0,0,0,.948,1.844Zm0,0" transform="translate(102.858 414.562)"/>
    <path id="패스_2395" data-name="패스 2395" class="cls-1" d="M-34.525-171.439a1.467,1.467,0,0,0,1.4,1.019,1.462,1.462,0,0,0,.448-.071,1.466,1.466,0,0,0,.948-1.844l-1.17-3.646a1.466,1.466,0,0,0-1.844-.948,1.466,1.466,0,0,0-.948,1.844Zm0,0" transform="translate(163.774 414.563)"/>
    <path id="패스_2396" data-name="패스 2396" class="cls-1" d="M-98.988-130.593-96-128.2a1.459,1.459,0,0,0,.915.321,1.465,1.465,0,0,0,1.147-.55,1.467,1.467,0,0,0-.23-2.061l-2.991-2.392a1.467,1.467,0,0,0-2.061.23,1.467,1.467,0,0,0,.229,2.061Zm0,0" transform="translate(219.234 376.477)"/>
    <path id="패스_2397" data-name="패스 2397" class="cls-1" d="M-124.472-56.872h3.829a1.467,1.467,0,0,0,1.466-1.466,1.466,1.466,0,0,0-1.466-1.466h-3.829a1.466,1.466,0,0,0-1.466,1.466,1.467,1.467,0,0,0,1.466,1.466Zm0,0" transform="translate(242.192 312.645)"/>
  </g>
</svg>
