<svg xmlns="http://www.w3.org/2000/svg" width="122" height="122" viewBox="0 0 122 122">
  <defs>
    <style>
      .cls-1 {
        fill: none;
      }

      .cls-2 {
        fill: rgba(201, 107, 18, 1);
      }

    </style>
  </defs>
  <g id="기간초과" transform="translate(-1135 -656)">
    <path id="패스_345" data-name="패스 345" class="cls-2"
      d="M2321.679,2034.808v24.629a3.254,3.254,0,0,1-6.509,0s.163-20.094.163-24.629A3.183,3.183,0,1,1,2321.679,2034.808Zm-3.466,30.651a4.069,4.069,0,1,0,2.88,1.2A4.118,4.118,0,0,0,2318.214,2065.459Zm37.636-13.034A37.425,37.425,0,1,1,2318.425,2015,37.468,37.468,0,0,1,2355.85,2052.425Zm-6.509,0a30.916,30.916,0,1,0-30.916,30.916A30.951,30.951,0,0,0,2349.341,2052.425Z"
      transform="translate(-1122.515 -1335.516)" />
    <rect id="사각형_3126" data-name="사각형 3126" class="cls-1" width="122" height="122" transform="translate(1135 656)" />
  </g>
</svg>
