<svg xmlns="http://www.w3.org/2000/svg" xmlns:xlink="http://www.w3.org/1999/xlink" width="122" height="122" viewBox="0 0 122 122">
  <defs>
    <style>
      .cls-1 {
        fill: #212121;
      }

      .cls-2 {
        fill: none;
      }

      .cls-3 {
        clip-path: url(#clip-path);
      }
    </style>
    <clipPath id="clip-path">
      <rect id="사각형_3913" data-name="사각형 3913" class="cls-1" width="58.65" height="80.473"/>
    </clipPath>
  </defs>
  <g id="다운로드_전_파일" data-name="다운로드 전 파일" transform="translate(-278 -252)">
    <rect id="사각형_3120" data-name="사각형 3120" class="cls-2" width="122" height="122" transform="translate(278 252)"/>
    <g id="그룹_13138" data-name="그룹 13138" transform="translate(-2 -1.999)">
      <path id="패스_2567" data-name="패스 2567" class="cls-1" d="M17.709,26.683a1.454,1.454,0,0,0,2.055.022l.022-.022,5.8-5.924A1.453,1.453,0,0,0,23.5,18.725L20.2,22.1V9.51a1.454,1.454,0,0,0-2.909,0V22.1l-3.3-3.371a1.453,1.453,0,0,0-2.077,2.033Z" transform="translate(322.401 296.693)"/>
      <path id="패스_2568" data-name="패스 2568" class="cls-1" d="M25.355,16.272H13.017a1.606,1.606,0,1,1,0-3.211H25.355a1.606,1.606,0,0,1,0,3.211Z" transform="translate(322.111 313.922)"/>
      <g id="그룹_12696" data-name="그룹 12696" transform="translate(312 275)">
        <g id="그룹_12695" data-name="그룹 12695" transform="translate(0 0)">
          <g id="그룹_12694" data-name="그룹 12694" class="cls-3">
            <path id="패스_2558" data-name="패스 2558" class="cls-1" d="M214.226,127.963H197.59a1.667,1.667,0,0,1-1.664-1.664V109.664A1.665,1.665,0,0,0,194.263,108H160.991A5,5,0,0,0,156,112.991v69.872a5,5,0,0,0,4.991,4.991H210.9a5,5,0,0,0,4.991-4.991V129.627a1.665,1.665,0,0,0-1.664-1.664Zm-1.664,54.9a1.667,1.667,0,0,1-1.664,1.664H160.991a1.667,1.667,0,0,1-1.664-1.664V112.991a1.667,1.667,0,0,1,1.664-1.664H192.6V126.3a5,5,0,0,0,4.991,4.991h14.973Zm0,0" transform="translate(-156.846 -107.751)"/>
            <path id="패스_2559" data-name="패스 2559" class="cls-1" d="M354.8,128.461,334.834,108.5a1.663,1.663,0,1,0-2.352,2.352l19.963,19.963a1.663,1.663,0,0,0,2.352-2.352Zm0,0" transform="translate(-296.243 -107.76)"/>
          </g>
        </g>
      </g>
    </g>
  </g>
</svg>
