<svg xmlns="http://www.w3.org/2000/svg" width="122" height="122" viewBox="0 0 122 122">
  <defs>
    <style>
      .cls-1 {
        fill: none;
      }
    </style>
  </defs>
  <g id="파일_첨부" data-name="파일 첨부" transform="translate(-680 -1560)">
    <rect id="사각형_3148" data-name="사각형 3148" class="cls-1" width="122" height="122" transform="translate(680 1560)"/>
    <path id="패스_388" data-name="패스 388" d="M1690.971,2935.62a3.113,3.113,0,0,1,0,4.4l-35.384,35.351c-5.907,5.9-12.588,9.051-18.923,9.051a18.318,18.318,0,0,1-4.767-.623,17.982,17.982,0,0,1-12.722-12.966c-2.145-8.026.747-16.744,7.932-23.924l39.43-39.394c6.4-6.4,15.312-4.382,20.446.758,6.982,6.991,5.062,15.269.324,20L1647.54,2968c-5.27,5.265-11.166,4.878-14.267,1.774-3.067-3.071-3.416-8.93,1.849-14.189l26.9-26.871a3.113,3.113,0,1,1,4.4,4.405l-26.9,26.87c-2.348,2.346-2.7,4.525-1.844,5.385.891.894,3.11.572,5.464-1.779l39.765-39.727c4.011-4.006,2.33-8.536-.328-11.2-2.982-2.986-7.9-4.494-11.643-.754l-39.43,39.393c-5.571,5.565-7.873,12.093-6.318,17.911a11.824,11.824,0,0,0,8.323,8.562c5.513,1.48,11.792-.94,17.677-6.82l35.384-35.349a3.112,3.112,0,0,1,4.4,0Z" transform="translate(-914.48 -1322.51)"/>
  </g>
</svg>
