<svg width="24" height="24" viewBox="0 0 24 24" fill="none" xmlns="http://www.w3.org/2000/svg">
<path d="M20.0344 7.71564L14.7844 2.46564C14.6415 2.32635 14.4495 2.24889 14.25 2.25001H5.25C4.85218 2.25001 4.47064 2.40805 4.18934 2.68935C3.90804 2.97066 3.75 3.35219 3.75 3.75001V20.25C3.75 20.6478 3.90804 21.0294 4.18934 21.3107C4.47064 21.592 4.85218 21.75 5.25 21.75H18.75C19.1478 21.75 19.5294 21.592 19.8107 21.3107C20.092 21.0294 20.25 20.6478 20.25 20.25V8.25001C20.2511 8.05048 20.1737 7.85851 20.0344 7.71564ZM15 4.80939L17.6906 7.50001H15V4.80939ZM18.75 20.25H5.25V3.75001H13.5V8.25001C13.5 8.44892 13.579 8.63969 13.7197 8.78034C13.8603 8.92099 14.0511 9.00001 14.25 9.00001H18.75V20.25ZM15.1594 14.0906C15.3002 14.2328 15.3792 14.4249 15.3792 14.625C15.3792 14.8251 15.3002 15.0172 15.1594 15.1594L12.5344 17.7844C12.391 17.923 12.1994 18.0005 12 18.0005C11.8006 18.0005 11.609 17.923 11.4656 17.7844L8.84063 15.1594C8.72103 15.0137 8.65991 14.8287 8.66916 14.6404C8.6784 14.4521 8.75736 14.274 8.89066 14.1407C9.02396 14.0074 9.20208 13.9284 9.39037 13.9192C9.57866 13.9099 9.76365 13.971 9.90937 14.0906L11.25 15.4406V11.25C11.25 11.0511 11.329 10.8603 11.4697 10.7197C11.6103 10.579 11.8011 10.5 12 10.5C12.1989 10.5 12.3897 10.579 12.5303 10.7197C12.671 10.8603 12.75 11.0511 12.75 11.25V15.4406L14.0906 14.0906C14.2328 13.9498 14.4249 13.8708 14.625 13.8708C14.8251 13.8708 15.0172 13.9498 15.1594 14.0906Z" fill="#575555"/>
</svg>
