<svg xmlns="http://www.w3.org/2000/svg" width="122" height="122" viewBox="0 0 122 122">
  <defs>
    <style>
      .cls-1 {
        fill: none;
      }

      .cls-2 {
        fill: #212121;
      }
    </style>
  </defs>
  <g id="필터" transform="translate(-1006 -2071)">
    <rect id="사각형_3159" data-name="사각형 3159" class="cls-1" width="122" height="122" transform="translate(1006 2071)"/>
    <path id="필터-2" data-name="필터" class="cls-2" d="M68.513,39.144a4.4,4.4,0,0,0-3.937-2.4H8.373a4.436,4.436,0,0,0-3.591,7.029L25.41,72.83a4.091,4.091,0,0,1,.806,2.434V98.889a4.4,4.4,0,0,0,4.4,4.439A4.346,4.346,0,0,0,32.295,103l11.495-4.382a4.28,4.28,0,0,0,2.952-4.165V75.268a4.144,4.144,0,0,1,.848-2.5L68.167,43.785A4.436,4.436,0,0,0,68.513,39.144Z" transform="translate(1030.053 2062.252)"/>
  </g>
</svg>
