<svg width="24" height="24" viewBox="0 0 24 24" fill="none" xmlns="http://www.w3.org/2000/svg">
<path opacity="0.2" d="M21 12C21 13.78 20.4722 15.5201 19.4832 17.0001C18.4943 18.4802 17.0887 19.6337 15.4442 20.3149C13.7996 20.9961 11.99 21.1743 10.2442 20.8271C8.49836 20.4798 6.89472 19.6226 5.63604 18.364C4.37737 17.1053 3.5202 15.5016 3.17294 13.7558C2.82567 12.01 3.0039 10.2004 3.68509 8.55585C4.36628 6.91131 5.51983 5.50571 6.99987 4.51677C8.47991 3.52784 10.22 3 12 3C14.387 3 16.6761 3.94821 18.364 5.63604C20.0518 7.32387 21 9.61305 21 12Z" fill="#575555"/>
<path d="M17.2499 12C17.2551 15.0305 16.6645 18.0324 15.5118 20.835C15.4558 20.9733 15.36 21.0917 15.2364 21.1752C15.1128 21.2587 14.9671 21.3035 14.818 21.3038C14.7216 21.3028 14.6261 21.2838 14.5368 21.2475C14.4455 21.2101 14.3626 21.155 14.2927 21.0855C14.2227 21.016 14.1672 20.9334 14.1292 20.8424C14.0913 20.7514 14.0716 20.6538 14.0714 20.5552C14.0712 20.4566 14.0904 20.359 14.128 20.2678C15.2055 17.6449 15.7565 14.8356 15.7499 12C15.7499 11.8011 15.8289 11.6103 15.9696 11.4697C16.1102 11.329 16.301 11.25 16.4999 11.25C16.6988 11.25 16.8896 11.329 17.0302 11.4697C17.1709 11.6103 17.2499 11.8011 17.2499 12ZM11.9999 8.25001C12.5274 8.25038 13.0488 8.36185 13.5303 8.57717C14.0119 8.79249 14.4426 9.10682 14.7946 9.49969C14.8597 9.57487 14.9392 9.63633 15.0284 9.6805C15.1175 9.72466 15.2146 9.75064 15.3139 9.75692C15.4132 9.76321 15.5127 9.74968 15.6067 9.71711C15.7008 9.68455 15.7874 9.6336 15.8615 9.56724C15.9356 9.50088 15.9958 9.42044 16.0386 9.33059C16.0813 9.24074 16.1057 9.14329 16.1104 9.04391C16.1151 8.94452 16.1 8.8452 16.066 8.75171C16.0319 8.65823 15.9796 8.57245 15.9121 8.49938C15.2031 7.70718 14.2704 7.14887 13.2372 6.89832C12.2041 6.64776 11.1192 6.71676 10.1261 7.09619C9.13302 7.47562 8.27853 8.1476 7.67566 9.02324C7.0728 9.89888 6.74997 10.9369 6.74988 12C6.74978 14.1596 6.2014 16.2837 5.15613 18.1734C5.10837 18.2596 5.07804 18.3544 5.06689 18.4523C5.05573 18.5502 5.06397 18.6493 5.09113 18.744C5.1183 18.8387 5.16385 18.9272 5.22519 19.0043C5.28653 19.0814 5.36245 19.1457 5.44863 19.1934C5.53481 19.2412 5.62956 19.2715 5.72746 19.2827C5.82536 19.2938 5.9245 19.2856 6.01921 19.2584C6.11393 19.2313 6.20237 19.1857 6.27948 19.1244C6.35659 19.0631 6.42087 18.9871 6.46863 18.9009C7.6368 16.7884 8.24968 14.414 8.24988 12C8.24988 11.0054 8.64497 10.0516 9.34823 9.34836C10.0515 8.6451 11.0053 8.25001 11.9999 8.25001ZM11.9999 2.25001C10.8928 2.24867 9.79353 2.43637 8.74957 2.80501C8.56538 2.87387 8.4156 3.01232 8.33249 3.19055C8.24939 3.36877 8.2396 3.5725 8.30524 3.75786C8.37088 3.94323 8.5067 4.0954 8.68344 4.18161C8.86018 4.26781 9.06371 4.28115 9.2502 4.21876C10.4948 3.77991 11.8265 3.64586 13.1335 3.82785C14.4406 4.00983 15.685 4.50256 16.7624 5.2647C17.8398 6.02684 18.7187 7.03618 19.3255 8.20809C19.9323 9.38 20.2493 10.6803 20.2499 12C20.2508 13.9628 20.0326 15.9197 19.5993 17.8341C19.5552 18.0276 19.5897 18.2307 19.6951 18.3989C19.8006 18.5671 19.9684 18.6866 20.1618 18.7313C20.2165 18.7439 20.2725 18.7502 20.3286 18.75C20.4987 18.75 20.6637 18.6921 20.7965 18.586C20.9294 18.4799 21.0223 18.3318 21.0599 18.1659C21.518 16.1426 21.7494 14.0746 21.7499 12C21.7472 9.41498 20.719 6.93662 18.8912 5.10873C17.0633 3.28084 14.5849 2.25274 11.9999 2.25001ZM6.4977 5.85188C6.57113 5.7862 6.63092 5.7067 6.67363 5.61791C6.71634 5.52913 6.74115 5.4328 6.74663 5.33443C6.75212 5.23605 6.73817 5.13757 6.70559 5.04458C6.67301 4.9516 6.62244 4.86594 6.55676 4.79251C6.49108 4.71907 6.41157 4.65929 6.32279 4.61658C6.234 4.57386 6.13768 4.54906 6.0393 4.54357C5.94093 4.53809 5.84244 4.55203 5.74946 4.58461C5.65648 4.61719 5.57082 4.66776 5.49738 4.73344C4.47619 5.64873 3.65922 6.76884 3.09969 8.02084C2.54016 9.27285 2.2506 10.6287 2.24988 12C2.25198 13.1865 1.99607 14.3592 1.49988 15.4369C1.45876 15.5264 1.43568 15.6231 1.43194 15.7215C1.4282 15.82 1.44388 15.9182 1.4781 16.0105C1.54719 16.1971 1.68756 16.3485 1.86832 16.4316C2.04908 16.5146 2.25543 16.5225 2.44197 16.4534C2.62851 16.3843 2.77996 16.2439 2.86301 16.0631C3.44975 14.7891 3.75237 13.4027 3.74988 12C3.75052 10.8397 3.99554 9.69258 4.46898 8.63329C4.94241 7.57399 5.63366 6.62628 6.4977 5.85188ZM10.6771 18.8194C10.4964 18.7366 10.2903 18.7289 10.104 18.798C9.91765 18.8671 9.76636 19.0073 9.68332 19.1878C9.50238 19.5816 9.30363 19.9744 9.0927 20.3541C9.04474 20.4403 9.01426 20.5351 9.00301 20.6331C8.99176 20.7311 8.99995 20.8304 9.02712 20.9252C9.05429 21.0201 9.09991 21.1086 9.16135 21.1858C9.2228 21.263 9.29886 21.3273 9.3852 21.375C9.49607 21.4369 9.62102 21.4692 9.74801 21.4688C9.88192 21.4688 10.0134 21.433 10.1288 21.3651C10.2442 21.2972 10.3393 21.1996 10.4043 21.0825C10.633 20.6691 10.8486 20.2388 11.0455 19.815C11.0868 19.7255 11.11 19.6286 11.1138 19.5301C11.1176 19.4316 11.102 19.3333 11.0678 19.2408C11.0335 19.1483 10.9814 19.0635 10.9144 18.9912C10.8473 18.9189 10.7667 18.8605 10.6771 18.8194ZM11.9999 11.25C11.801 11.25 11.6102 11.329 11.4696 11.4697C11.3289 11.6103 11.2499 11.8011 11.2499 12C11.2504 13.4546 11.0681 14.9034 10.7071 16.3125C10.6575 16.5051 10.6865 16.7094 10.7876 16.8807C10.8886 17.0519 11.0536 17.176 11.2461 17.2256C11.3074 17.2412 11.3704 17.2491 11.4336 17.2491C11.5998 17.2489 11.7612 17.1936 11.8926 17.0918C12.0239 16.99 12.1177 16.8475 12.1593 16.6866C12.5523 15.1551 12.7508 13.5802 12.7499 11.9991C12.7496 11.8003 12.6705 11.6098 12.5299 11.4693C12.3893 11.3289 12.1986 11.25 11.9999 11.25Z" fill="#575555"/>
</svg>
