<svg width="24" height="24" viewBox="0 0 24 24" fill="none" xmlns="http://www.w3.org/2000/svg">
<path opacity="0.2" d="M19.9942 9.74994L18.3067 6.82681C18.0563 6.39967 17.6471 6.08892 17.1684 5.96236C16.6897 5.83581 16.1804 5.90373 15.7516 6.1513C15.3229 6.39886 15.0094 6.80598 14.8797 7.28381C14.7499 7.76164 14.8145 8.27139 15.0592 8.70181L12.4342 4.15493C12.1786 3.73858 11.7707 3.4384 11.2972 3.31829C10.8236 3.19819 10.3219 3.26765 9.89881 3.51188C9.47572 3.75611 9.16465 4.15582 9.03182 4.62595C8.89899 5.09607 8.9549 5.59947 9.18763 6.029L8.43763 4.73056C8.18722 4.30342 7.77803 3.99267 7.29935 3.86611C6.82067 3.73956 6.31137 3.80748 5.88258 4.05505C5.45379 4.30261 5.14033 4.70973 5.0106 5.18756C4.88088 5.66539 4.94541 6.17514 5.19013 6.60556L6.31513 8.55837L6.20544 8.65212C5.86121 8.38787 5.43597 8.25121 5.00224 8.26544C4.56851 8.27967 4.15314 8.44392 3.82697 8.73016C3.50079 9.01641 3.28401 9.40693 3.21358 9.83514C3.14315 10.2634 3.22344 10.7027 3.44076 11.0784L7.00326 17.2499C7.99782 18.9726 9.63599 20.2297 11.5574 20.7446C13.4788 21.2595 15.526 20.99 17.2487 19.9954C18.9714 19.0008 20.2285 17.3627 20.7434 15.4413C21.2582 13.5199 20.9888 11.4726 19.9942 9.74994ZM14.5951 15.4349L14.6111 15.4256L14.6242 15.4481L14.5951 15.4349Z" fill="#575555"/>
<path d="M20.6438 9.37527L18.9563 6.45215C18.735 6.06838 18.4202 5.74685 18.0412 5.51751C17.6622 5.28817 17.2313 5.15848 16.7887 5.14051C16.3461 5.12254 15.9061 5.21688 15.5097 5.41475C15.1134 5.61262 14.7736 5.90757 14.5219 6.27215L13.0838 3.77933C12.8563 3.38538 12.5303 3.05732 12.1378 2.8273C11.7454 2.59729 11.2998 2.47322 10.845 2.46726C10.3901 2.46131 9.94146 2.57367 9.54309 2.79333C9.14472 3.01299 8.81028 3.33241 8.57255 3.72027C8.10825 3.30227 7.5101 3.06355 6.88558 3.04704C6.26106 3.03052 5.65112 3.23729 5.16539 3.63017C4.67965 4.02305 4.34996 4.57629 4.23556 5.19047C4.12117 5.80464 4.22958 6.43948 4.5413 6.9809L4.85442 7.52371C4.4128 7.5592 3.98735 7.70589 3.6177 7.95011C3.24805 8.19433 2.94623 8.52813 2.74035 8.92043C2.53446 9.31273 2.43122 9.75076 2.44024 10.1937C2.44926 10.6367 2.57024 11.0701 2.79192 11.4537L6.35442 17.6243C6.8939 18.5643 7.61436 19.3879 8.47414 20.0477C9.33392 20.7074 10.316 21.1902 11.3635 21.4681C12.0644 21.6553 12.7868 21.7499 13.5122 21.7493C14.9592 21.7469 16.38 21.364 17.6322 20.6391C18.8844 19.9141 19.9239 18.8725 20.6464 17.6189C21.3689 16.3653 21.749 14.9437 21.7485 13.4967C21.7481 12.0498 21.3671 10.6284 20.6438 9.37527ZM20.0185 15.2468C19.673 16.5364 18.9529 17.6945 17.9492 18.5748C16.9455 19.4551 15.7033 20.018 14.3797 20.1923C13.0561 20.3666 11.7106 20.1445 10.5132 19.5541C9.31581 18.9636 8.32041 18.0314 7.65286 16.8753L4.09036 10.7046C4.01649 10.5767 3.96855 10.4354 3.94928 10.2889C3.93001 10.1424 3.93978 9.99352 3.97804 9.8508C4.05532 9.56255 4.24393 9.3168 4.50239 9.16761C4.76085 9.01843 5.06799 8.97803 5.35624 9.0553C5.49897 9.09356 5.63276 9.15956 5.74998 9.24953C5.8672 9.33949 5.96555 9.45167 6.03942 9.57965L8.10192 13.1515C8.14971 13.2395 8.21465 13.3171 8.2929 13.3796C8.37115 13.4421 8.46113 13.4883 8.55753 13.5155C8.65392 13.5427 8.75479 13.5503 8.85416 13.5378C8.95354 13.5254 9.04942 13.4932 9.13615 13.4431C9.22287 13.393 9.29869 13.326 9.35912 13.2461C9.41955 13.1663 9.46337 13.0751 9.48799 12.978C9.51262 12.881 9.51755 12.7799 9.5025 12.6809C9.48745 12.5819 9.45272 12.4869 9.40036 12.4015L5.83786 6.23183C5.72662 6.03913 5.67502 5.81776 5.68959 5.59573C5.70416 5.3737 5.78425 5.16097 5.91972 4.98446C6.05519 4.80794 6.23997 4.67556 6.45068 4.60406C6.66138 4.53256 6.88856 4.52515 7.10348 4.58277C7.24644 4.62048 7.38048 4.68623 7.49781 4.77619C7.61514 4.86616 7.71341 4.97855 7.78692 5.10683L10.9744 10.6278C11.0766 10.7944 11.2399 10.9146 11.4293 10.9626C11.6188 11.0107 11.8196 10.9829 11.9889 10.8851C12.1582 10.7873 12.2826 10.6273 12.3356 10.4392C12.3887 10.251 12.3661 10.0496 12.2729 9.87777L9.83536 5.65902C9.69261 5.40107 9.65682 5.09739 9.73569 4.81332C9.81456 4.52925 10.0018 4.2875 10.2571 4.14006C10.5124 3.99263 10.8154 3.95131 11.1008 4.02499C11.3863 4.09866 11.6314 4.28145 11.7835 4.53402L15 10.1046C14.1812 10.7831 13.6286 11.7292 13.4399 12.7757C13.2512 13.8222 13.4385 14.9017 13.9688 15.8234C14.0683 15.9957 14.2321 16.1214 14.4242 16.173C14.6164 16.2245 14.8212 16.1975 14.9935 16.0981C15.1658 15.9986 15.2915 15.8348 15.343 15.6426C15.3946 15.4505 15.3676 15.2457 15.2682 15.0734C14.8704 14.3844 14.7626 13.5656 14.9685 12.7971C15.1744 12.0287 15.677 11.3735 16.366 10.9756C16.4513 10.9264 16.5261 10.8608 16.5861 10.7826C16.6461 10.7045 16.6901 10.6153 16.7156 10.5201C16.7411 10.425 16.7476 10.3257 16.7348 10.2281C16.7219 10.1304 16.6899 10.0362 16.6407 9.9509L15.7032 8.32715C15.5604 8.0692 15.5246 7.76552 15.6035 7.48145C15.6824 7.19738 15.8696 6.95562 16.1249 6.80819C16.3802 6.66076 16.6832 6.61943 16.9686 6.69311C17.2541 6.76679 17.4992 6.94957 17.6513 7.20215L19.3388 10.1253C19.7852 10.8914 20.0751 11.7385 20.1918 12.6175C20.3084 13.4965 20.2495 14.3898 20.0185 15.2459V15.2468ZM17.2754 2.80621C17.3008 2.71103 17.3448 2.62179 17.4047 2.54361C17.4647 2.46542 17.5395 2.39981 17.6248 2.35054C17.7101 2.30126 17.8043 2.26928 17.902 2.25642C17.9997 2.24356 18.0989 2.25007 18.1941 2.27558C19.6857 2.6759 20.9129 3.5984 21.6497 4.87527C21.699 4.96059 21.7309 5.05477 21.7438 5.15244C21.7566 5.25011 21.7501 5.34935 21.7246 5.4445C21.6991 5.53966 21.6551 5.62885 21.5951 5.707C21.5351 5.78514 21.4604 5.85071 21.375 5.89996C21.2897 5.9492 21.1955 5.98116 21.0979 5.99401C21.0002 6.00686 20.901 6.00034 20.8058 5.97483C20.7107 5.94933 20.6215 5.90533 20.5433 5.84535C20.4652 5.78537 20.3996 5.71059 20.3504 5.62527C19.8141 4.69527 18.9104 4.02027 17.806 3.72496C17.7108 3.6995 17.6216 3.65554 17.5434 3.59558C17.4652 3.53562 17.3996 3.46085 17.3503 3.37553C17.301 3.2902 17.2691 3.19601 17.2562 3.09832C17.2433 3.00064 17.2498 2.90138 17.2754 2.80621ZM7.58536 22.219C7.52438 22.2964 7.44874 22.3611 7.36277 22.4092C7.2768 22.4574 7.18218 22.4882 7.08432 22.4997C6.98646 22.5113 6.88728 22.5035 6.79244 22.4767C6.6976 22.4499 6.60897 22.4048 6.53161 22.3437C5.50036 21.529 4.6463 20.5081 3.85036 19.13C3.7509 18.9577 3.72397 18.7529 3.77548 18.5607C3.827 18.3686 3.95274 18.2047 4.12505 18.1053C4.29735 18.0058 4.50211 17.9789 4.69428 18.0304C4.88645 18.0819 5.05028 18.2077 5.14973 18.38C5.84723 19.5875 6.5813 20.4725 7.46067 21.1662C7.61674 21.2893 7.71754 21.4694 7.74092 21.6668C7.7643 21.8642 7.70835 22.0628 7.58536 22.219Z" fill="#575555"/>
</svg>
