<svg xmlns="http://www.w3.org/2000/svg" width="122" height="122" viewBox="0 0 122 122">
  <defs>
    <style>
      .cls-1 {
        fill: none;
      }
      .grey {
        fill:#c9c9c9;
      }
    </style>
  </defs>
  <g id="도움말" transform="translate(-1135 -656)">
    <path class='grey' id="패스_345" data-name="패스 345" d="M2333.855,2037.119a15.1,15.1,0,0,1,3.508,11.848c-1,8.331-7.093,11.3-12.514,11.3a3.981,3.981,0,0,0-.469.015v2.106a3.47,3.47,0,0,1-6.941,0v-2.8c0-2.859,1.192-6.266,7.41-6.266,3.355,0,5.153-1.745,5.566-5.186a8.325,8.325,0,0,0-1.781-6.414c-1.649-1.858-4.323-2.8-7.951-2.8-7.852,0-8.078,5.076-8.078,5.655a3.47,3.47,0,1,1-6.941,0c0-3.5,2.7-12.6,15.019-12.6C2327.781,2031.984,2331.777,2034.777,2333.855,2037.119Zm-13.172,31.689a4.339,4.339,0,1,0,3.071,1.275A4.392,4.392,0,0,0,2320.684,2068.808Zm40.135-13.9A39.909,39.909,0,1,1,2320.909,2015,39.955,39.955,0,0,1,2360.819,2054.909Zm-6.941,0a32.968,32.968,0,1,0-32.968,32.968A33.006,33.006,0,0,0,2353.878,2054.909Z" transform="translate(-1124.999 -1338.001)"/>
    <rect id="사각형_3126" data-name="사각형 3126" class="cls-1" width="122" height="122" transform="translate(1135 656)"/>
  </g>
</svg>
