<svg
    width="30"
    height="30"
    viewBox="0 0 30 30"
    fill="none"
    xmlns="http://www.w3.org/2000/svg"
>
    <path
        fill-rule="evenodd"
        clip-rule="evenodd"
        d="M4 0C1.79086 0 0 1.79086 0 4V5H10V0H4ZM11 0V5V6V11V12V17V18V23V24L11 30H20V24V23V18V17V12V11H21H30V4C30 1.79086 28.2091 0 26 0H11ZM30 12H21V17H30V12ZM30 18H21V23H30V18ZM30 24H21V30H26C28.2091 30 30 28.2091 30 26V24ZM10 30L10 24H0V26C0 28.2091 1.79086 30 4 30H10ZM0 23H10V18H0V23ZM0 17H10V12H0V17ZM0 11H10V6H0V11Z"
        fill="#F5F6FB"
    />
</svg>
