<svg width="35" height="35" viewBox="0 0 35 35" fill="none" xmlns="http://www.w3.org/2000/svg">
<path opacity="0.2" d="M9.53791 14.7502C9.53499 13.7124 9.73779 12.6844 10.1346 11.7255C10.5313 10.7666 11.1142 9.89587 11.8496 9.16359C12.5849 8.43132 13.4581 7.85205 14.4186 7.45926C15.3791 7.06648 16.408 6.86796 17.4457 6.87519C21.777 6.908 25.2442 10.5064 25.2442 14.8486V15.6252C25.2442 19.5408 26.0645 21.8158 26.7863 23.0518C26.8658 23.1848 26.9084 23.3366 26.91 23.4915C26.9115 23.6465 26.8719 23.799 26.7951 23.9336C26.7183 24.0682 26.6072 24.1801 26.4731 24.2576C26.3389 24.3352 26.1866 24.3758 26.0317 24.3752H8.75041C8.59546 24.3758 8.44313 24.3352 8.30899 24.2576C8.17486 24.1801 8.06373 24.0682 7.98697 23.9336C7.91021 23.799 7.87058 23.6465 7.87211 23.4915C7.87365 23.3366 7.91631 23.1848 7.99572 23.0518C8.7176 21.8158 9.53791 19.5408 9.53791 15.6252V14.7502Z" fill="#141414"/>
<path d="M27.5408 22.6141C26.8955 21.4984 26.1189 19.3766 26.1189 15.625V14.8484C26.1189 10.0031 22.2361 6.03281 17.4564 6H17.3908C16.2432 6.00144 15.1071 6.2289 14.0474 6.66941C12.9876 7.10991 12.0251 7.75483 11.2146 8.56734C10.4041 9.37986 9.76158 10.344 9.32373 11.4049C8.88588 12.4657 8.66126 13.6024 8.6627 14.75V15.625C8.6627 19.3766 7.88614 21.4984 7.24082 22.6141C7.08476 22.8799 7.00169 23.1823 7.00003 23.4906C6.99836 23.7988 7.07816 24.1021 7.23135 24.3696C7.38454 24.6371 7.60568 24.8594 7.87239 25.014C8.1391 25.1686 8.44192 25.25 8.7502 25.25H13.0158C13.0158 26.4103 13.4768 27.5231 14.2972 28.3436C15.1177 29.1641 16.2305 29.625 17.3908 29.625C18.5511 29.625 19.6639 29.1641 20.4844 28.3436C21.3049 27.5231 21.7658 26.4103 21.7658 25.25H26.0314C26.3397 25.252 26.6429 25.172 26.91 25.0182C27.1771 24.8645 27.3986 24.6425 27.5518 24.375C27.7036 24.106 27.7825 23.802 27.7805 23.4931C27.7786 23.1842 27.696 22.8812 27.5408 22.6141ZM17.3908 27.875C16.6955 27.8721 16.0295 27.5946 15.5378 27.103C15.0462 26.6113 14.7687 25.9453 14.7658 25.25H20.0158C20.0129 25.9453 19.7355 26.6113 19.2438 27.103C18.7521 27.5946 18.0861 27.8721 17.3908 27.875ZM8.7502 23.5C9.50489 22.1875 10.4127 19.7703 10.4127 15.625V14.75C10.4098 13.8318 10.5882 12.922 10.9376 12.0729C11.287 11.2237 11.8005 10.4519 12.4488 9.80157C13.0971 9.15128 13.8673 8.63531 14.7153 8.28326C15.5634 7.93121 16.4726 7.75 17.3908 7.75H17.4455C21.2627 7.77188 24.3689 10.9656 24.3689 14.8484V15.625C24.3689 19.7703 25.2768 22.1875 26.0314 23.5H8.7502Z" fill="#141414"/>
</svg>
