<svg width="35" height="35" viewBox="0 0 35 35" fill="none" xmlns="http://www.w3.org/2000/svg">
<path d="M9.28614 7.15956C9.12805 6.99418 8.91148 6.89729 8.68283 6.88965C8.45417 6.88201 8.23162 6.96423 8.06285 7.1187C7.89408 7.27316 7.79253 7.48758 7.77994 7.71602C7.76735 7.94446 7.84474 8.16874 7.99551 8.34081L9.83301 10.3642C9.06483 11.6982 8.66121 13.2108 8.6627 14.7502V15.6252C8.6627 19.3767 7.88614 21.4986 7.24082 22.6142C7.08476 22.8801 7.00169 23.1825 7.00003 23.4907C6.99836 23.799 7.07816 24.1023 7.23135 24.3698C7.38454 24.6373 7.60568 24.8596 7.87239 25.0142C8.1391 25.1688 8.44192 25.2502 8.7502 25.2502H13.0158C13.0158 26.4105 13.4768 27.5233 14.2972 28.3438C15.1177 29.1642 16.2305 29.6252 17.3908 29.6252C18.5511 29.6252 19.6639 29.1642 20.4844 28.3438C21.3049 27.5233 21.7658 26.4105 21.7658 25.2502H23.3627L25.4955 27.5908C25.5775 27.6804 25.6772 27.7519 25.7883 27.8009C25.8993 27.8498 26.0194 27.8751 26.1408 27.8752C26.3591 27.873 26.5691 27.7914 26.7314 27.6455C26.8175 27.5687 26.8872 27.4755 26.9367 27.3714C26.9861 27.2672 27.0142 27.1542 27.0193 27.0391C27.0244 26.9239 27.0064 26.8088 26.9663 26.7007C26.9263 26.5926 26.865 26.4936 26.7861 26.4096L9.28614 7.15956ZM17.3908 27.8752C16.6955 27.8723 16.0295 27.5948 15.5378 27.1032C15.0462 26.6115 14.7687 25.9455 14.7658 25.2502H20.0158C20.0129 25.9455 19.7355 26.6115 19.2438 27.1032C18.7521 27.5948 18.0861 27.8723 17.3908 27.8752ZM8.7502 23.5002C9.50489 22.1986 10.4127 19.7705 10.4127 15.6252V14.7502C10.4094 13.7093 10.6412 12.6811 11.0908 11.7424L21.7768 23.5002H8.7502ZM12.7533 8.34081C12.6375 8.13882 12.6058 7.89935 12.6652 7.6742C12.7245 7.44904 12.8701 7.25631 13.0705 7.13768C14.4082 6.38239 15.9203 5.99024 17.4564 6.00018C22.2361 6.033 26.1189 10.0033 26.1189 14.8486V15.6252C26.1189 18.0205 26.4252 20.0111 27.0377 21.5752C27.0803 21.6822 27.1013 21.7965 27.0996 21.9116C27.0979 22.0268 27.0734 22.1404 27.0277 22.2461C26.982 22.3518 26.9159 22.4474 26.8331 22.5275C26.7504 22.6075 26.6526 22.6705 26.5455 22.7127C26.4434 22.7476 26.3363 22.7661 26.2283 22.7674C26.0524 22.7692 25.8801 22.7166 25.7352 22.6168C25.5903 22.5169 25.4799 22.3747 25.4189 22.2096C24.7189 20.4486 24.3689 18.2392 24.3689 15.6252V14.8486C24.3689 10.9658 21.2627 7.783 17.4455 7.75018C16.2193 7.7395 15.012 8.05265 13.9455 8.658C13.7452 8.77331 13.5074 8.80468 13.284 8.74525C13.0606 8.68582 12.8699 8.54042 12.7533 8.34081Z" fill="#141414"/>
</svg>
