<svg width="35" height="35" viewBox="0 0 35 35" fill="none" xmlns="http://www.w3.org/2000/svg">
<path d="M7.45918 22.6141C8.10449 21.4984 8.88105 19.3766 8.88105 15.625V14.8484C8.88105 10.0031 12.7639 6.03281 17.5436 6H17.6092C18.7568 6.00144 19.8929 6.2289 20.9526 6.66941C22.0124 7.10991 22.9749 7.75483 23.7854 8.56734C24.5959 9.37986 25.2384 10.344 25.6763 11.4049C26.1141 12.4657 26.3387 13.6024 26.3373 14.75V15.625C26.3373 19.3766 27.1139 21.4984 27.7592 22.6141C27.9152 22.8799 27.9983 23.1823 28 23.4906C28.0016 23.7988 27.9218 24.1021 27.7686 24.3696C27.6155 24.6371 27.3943 24.8594 27.1276 25.014C26.8609 25.1686 26.5581 25.25 26.2498 25.25H21.9842C21.9842 26.4103 21.5232 27.5231 20.7028 28.3436C19.8823 29.1641 18.7695 29.625 17.6092 29.625C16.4489 29.625 15.3361 29.1641 14.5156 28.3436C13.6951 27.5231 13.2342 26.4103 13.2342 25.25H8.96855C8.66033 25.252 8.35713 25.172 8.08999 25.0182C7.82285 24.8645 7.60138 24.6425 7.44824 24.375C7.29641 24.106 7.21754 23.802 7.21946 23.4931C7.22138 23.1842 7.30402 22.8812 7.45918 22.6141ZM17.6092 27.875C18.3045 27.8721 18.9705 27.5946 19.4622 27.103C19.9538 26.6113 20.2313 25.9453 20.2342 25.25H14.9842C14.9871 25.9453 15.2645 26.6113 15.7562 27.103C16.2479 27.5946 16.9139 27.8721 17.6092 27.875ZM26.2498 23.5C25.4951 22.1875 24.5873 19.7703 24.5873 15.625V14.75C24.5902 13.8318 24.4118 12.922 24.0624 12.0729C23.713 11.2237 23.1995 10.4519 22.5512 9.80157C21.9029 9.15128 21.1327 8.63531 20.2847 8.28326C19.4366 7.93121 18.5274 7.75 17.6092 7.75H17.5545C13.7373 7.77188 10.6311 10.9656 10.6311 14.8484V15.625C10.6311 19.7703 9.72324 22.1875 8.96855 23.5H26.2498Z" fill="#141414"/>
</svg>
