<svg xmlns="http://www.w3.org/2000/svg" width="122" height="122" viewBox="0 0 122 122">
  <defs>
    <style>
      .cls-1 {
        fill: none;
      }

      .cls-2 {
        fill: #212121;
      }
    </style>
  </defs>
  <g id="초대" transform="translate(-161 -764)">
    <rect id="사각형_3123" data-name="사각형 3123" class="cls-1" width="122" height="122" transform="translate(161 764)"/>
    <path id="초대-2" data-name="초대" class="cls-2" d="M-64.751-255.235c-.008-.131-.02-.267-.04-.4a.744.744,0,0,0-.04-.294,3.308,3.308,0,0,0-.1-.322c-.032-.107-.068-.215-.111-.322-.04-.088-.092-.171-.139-.259-.06-.112-.127-.223-.2-.33,0-.02-.024-.044-.04-.064s-.1-.111-.155-.171c-.08-.092-.159-.183-.247-.271s-.171-.143-.259-.211-.171-.135-.263-.195-.2-.112-.3-.163-.195-.1-.294-.135-.215-.072-.326-.1a2.347,2.347,0,0,0-.31-.076c-.131-.02-.267-.032-.4-.04-.072,0-.143-.02-.219-.02h-72.075a.846.846,0,0,0-.223.02,3.168,3.168,0,0,0-.374.04c-.123.04-.207.048-.314.076s-.219.06-.326.1-.2.087-.294.139-.2.1-.3.163a3.2,3.2,0,0,0-.263.195c-.084.068-.175.135-.259.211s-.167.179-.247.271c-.048.06-.107.107-.155.171l-.04.064c-.072.107-.135.219-.2.33-.048.087-.1.171-.139.259a3.408,3.408,0,0,0-.111.322,3,3,0,0,0-.1.322,2.865,2.865,0,0,0-.04.294c-.02.131-.032.267-.04.4v55.353a3.432,3.432,0,0,0,3.433,3.434h72.075a3.432,3.432,0,0,0,3.433-3.434h0V-255.16Zm-13.8,3.5L-104.21-228.7l-25.661-23.032Zm-58.265,48.415v-45.021l30.559,26.656a3.426,3.426,0,0,0,4.09,0l30.563-26.656v45.021Z" transform="translate(326.685 1052.609)"/>
  </g>
</svg>
