<svg xmlns="http://www.w3.org/2000/svg" width="122" height="122" viewBox="0 0 122 122">
  <defs>
    <style>
      .cls-1 {
        fill: none;
      }

      .cls-2 {
        fill: #212121;
      }

      .white {
        fill: #ffffff;
      }
    </style>
  </defs>
  <g id="운동일지" transform="translate(-501 -567)">
    <rect id="사각형_3114" data-name="사각형 3114" class="cls-1" width="122" height="122" transform="translate(501 567)"/>
    <path id="패스_669" data-name="패스 669" class="white" d="M75.435,109.114a4.675,4.675,0,0,1-4.006-7.059L82.8,82.978a4.662,4.662,0,0,1,7.785-.352l4.857,6.692,10.309-17.529a4.65,4.65,0,0,1,7.763-.426l9,12.048,23.6-39.226a4.667,4.667,0,0,1,8,4.813L126.959,94.183a4.666,4.666,0,0,1-6.406,1.585,4.746,4.746,0,0,1-1.335-1.2l-8.952-11.989-10.36,17.61a4.666,4.666,0,0,1-6.384,1.651,4.717,4.717,0,0,1-1.416-1.277l-4.879-6.728-7.748,13A4.657,4.657,0,0,1,75.435,109.114Z" transform="translate(449.224 552.078)"/>
  </g>
</svg>
