<svg xmlns="http://www.w3.org/2000/svg" width="122" height="122" viewBox="0 0 122 122">
  <defs>
    <style>
      .cls-1 {
        fill: none;
      }

      .cls-2 {
        fill: #212121;
      }
    </style>
  </defs>
  <g id="나가기" transform="translate(-154 -1534)">
    <rect id="사각형_3141" data-name="사각형 3141" class="cls-1" width="122" height="122" transform="translate(154 1534)"/>
    <path id="나가기-2" data-name="나가기" class="cls-2" d="M-90.106-79.985v15.971a3.356,3.356,0,0,1-3.211,3.487H-139a3.49,3.49,0,0,1-3.492-3.487v-57.632A3.49,3.49,0,0,1-139-125.133h45.567a3.355,3.355,0,0,1,3.338,3.372l-.006.115v15.971a3.5,3.5,0,0,1-3.492,3.5,3.5,3.5,0,0,1-3.492-3.5v-12.478h-38.422v50.648h38.422V-79.985A3.5,3.5,0,0,1-93.6-83.477a3.5,3.5,0,0,1,3.492,3.492ZM-63.154-95.4l-13.683-13.82a3.494,3.494,0,0,0-4.937-.029,3.5,3.5,0,0,0-.029,4.943l7.81,7.885-42.378.1a3.491,3.491,0,0,0-3.492,3.492,3.5,3.5,0,0,0,3.492,3.492h0l42.327-.1L-81.82-81.59a3.494,3.494,0,0,0,.029,4.937,3.489,3.489,0,0,0,4.937-.023L-63.171-90.5a3.732,3.732,0,0,0,0-4.909Z" transform="translate(317.497 1688.133)"/>
  </g>
</svg>
