<svg xmlns="http://www.w3.org/2000/svg" width="122" height="122" viewBox="0 0 122 122">
  <defs>
    <style>
      .cls-1 {
        fill: none;
      }

      .cls-2 {
        fill: #ffffff;
      }
    </style>
  </defs>
  <g id="락커" transform="translate(-798 -370)">
    <rect id="사각형_3091" data-name="사각형 3091" class="cls-1" width="122" height="122" transform="translate(798 370)"/>
    <g id="그룹_5144" data-name="그룹 5144" transform="translate(819 391)">
      <g id="사각형_2835" data-name="사각형 2835">
        <rect id="사각형_3112" data-name="사각형 3112" class="cls-1" width="80.75" height="80.75" rx="2"/>
        <path id="패스_2231" data-name="패스 2231" class="cls-2" d="M203.175,83.25h-64.6a8.083,8.083,0,0,1-8.075-8.075v-64.6A8.083,8.083,0,0,1,138.575,2.5h64.6a8.083,8.083,0,0,1,8.075,8.075v64.6A8.083,8.083,0,0,1,203.175,83.25Zm-64.6-75.1a2.424,2.424,0,0,0-2.423,2.423v64.6a2.424,2.424,0,0,0,2.423,2.423h64.6a2.424,2.424,0,0,0,2.423-2.423v-64.6a2.424,2.424,0,0,0-2.423-2.423Z" transform="translate(-130.5 -2.5)"/>
      </g>
      <g id="패스_1914" data-name="패스 1914" transform="translate(29.054 24.003)">
        <path id="패스_2232" data-name="패스 2232" class="cls-1" d="M149,8.445A11.305,11.305,0,1,1,137.7,19.75,11.307,11.307,0,0,1,149,8.445Z" transform="translate(-137.696 -8.445)"/>
        <path id="패스_2233" data-name="패스 2233" class="cls-2" d="M149.017,14.1a5.667,5.667,0,1,0,5.665,5.669,5.676,5.676,0,0,0-5.665-5.669m0-5.653A11.319,11.319,0,1,1,137.7,19.766,11.318,11.318,0,0,1,149.017,8.445Z" transform="translate(-137.696 -8.445)"/>
      </g>
      <path id="패스_2234" data-name="패스 2234" class="cls-2" d="M142.626,28.307A2.827,2.827,0,0,1,139.8,25.48v-9.7a2.826,2.826,0,1,1,5.653,0v9.7A2.827,2.827,0,0,1,142.626,28.307Z" transform="translate(-102.251 29.248)"/>
    </g>
  </g>
</svg>
