<svg xmlns="http://www.w3.org/2000/svg" width="21" height="21" viewBox="0 0 21 21">
  <g id="그룹_7443" data-name="그룹 7443" transform="translate(-318 -893)">
    <rect id="사각형_3374" data-name="사각형 3374" width="21" height="21" transform="translate(318 893)" fill="none"/>
    <g id="그룹_6618" data-name="그룹 6618" transform="translate(321.204 895.069)">
      <path id="패스_2436" data-name="패스 2436" d="M251.024,0a4.028,4.028,0,0,0-2.608,1.412,3.5,3.5,0,0,0-.854,2.719,3.4,3.4,0,0,0,2.632-1.344A3.777,3.777,0,0,0,251.024,0Z" transform="translate(-240.475 0)" fill="#212121"/>
      <path id="패스_2437" data-name="패스 2437" d="M51.5,121.581a4.345,4.345,0,0,0-3.28-1.741c-1.54,0-2.191.737-3.26.737-1.1,0-1.941-.735-3.272-.735a4.452,4.452,0,0,0-3.583,2.166c-1.241,1.925-1.029,5.543.983,8.626.72,1.1,1.681,2.343,2.938,2.354,1.119.011,1.434-.718,2.95-.725s1.8.735,2.92.723c1.258-.01,2.272-1.384,2.992-2.487A12.37,12.37,0,0,0,52,128.417,3.784,3.784,0,0,1,51.5,121.581Z" transform="translate(-37.336 -115.822)" fill="#212121"/>
    </g>
  </g>
</svg>
