<svg width="22" height="23" viewBox="0 0 22 23" fill="none" xmlns="http://www.w3.org/2000/svg">
    <path opacity="0.2" d="M11.6875 6.43754V15.1877L3.63 17.6593C3.52761 17.6891 3.41967 17.6948 3.31473 17.6757C3.20978 17.6567 3.11071 17.6135 3.02534 17.5495C2.93998 17.4856 2.87066 17.4026 2.82287 17.3073C2.77508 17.2119 2.75013 17.1068 2.75 17.0001V4.62512C2.75013 4.51846 2.77508 4.41329 2.82287 4.31794C2.87066 4.22259 2.93998 4.13966 3.02534 4.07572C3.11071 4.01178 3.20978 3.96857 3.31473 3.94953C3.41967 3.93048 3.52761 3.93611 3.63 3.96598L11.6875 6.43754Z" fill="#575555"/>
    <path d="M18.9527 7.94758L3.8225 3.30695C3.61772 3.24722 3.40184 3.23596 3.19196 3.27406C2.98207 3.31215 2.78392 3.39855 2.61319 3.52644C2.44245 3.65432 2.30382 3.82017 2.20824 4.01088C2.11266 4.20159 2.06277 4.41192 2.0625 4.62523V17.0002C2.0625 17.3649 2.20737 17.7146 2.46523 17.9725C2.72309 18.2304 3.07283 18.3752 3.4375 18.3752C3.56898 18.3753 3.6998 18.3565 3.82594 18.3194L11 16.1177V17.0002C11 17.3649 11.1449 17.7146 11.4027 17.9725C11.6606 18.2304 12.0103 18.3752 12.375 18.3752H15.125C15.4897 18.3752 15.8394 18.2304 16.0973 17.9725C16.3551 17.7146 16.5 17.3649 16.5 17.0002V14.4307L18.9527 13.6788C19.2365 13.5935 19.4855 13.4192 19.6628 13.1817C19.8401 12.9442 19.9364 12.656 19.9375 12.3596V9.26586C19.9362 8.96961 19.8398 8.68161 19.6625 8.44427C19.4852 8.20694 19.2364 8.03282 18.9527 7.94758ZM11 14.6799L3.4375 17.0002V4.62523L11 6.94555V14.6799ZM15.125 17.0002H12.375V15.6957L15.125 14.8518V17.0002ZM18.5625 12.3596H18.553L12.375 14.2571V7.36836L18.553 9.25899H18.5625V12.3527V12.3596Z" fill="#575555"/>
</svg>
