<svg xmlns="http://www.w3.org/2000/svg" width="122" height="122" viewBox="0 0 122 122">
  <defs>
    <style>
      .cls-1 {
        fill: #212121;
      }

      .cls-2 {
        fill: none;
      }
    </style>
  </defs>
  <g id="그룹_10970" data-name="그룹 10970" transform="translate(-1296 -194)">
    <path id="패스_2542" data-name="패스 2542" class="cls-1" d="M112.319,53.651A41.485,41.485,0,1,0,124.47,82.985,41.214,41.214,0,0,0,112.319,53.651ZM82.985,65.166A12.662,12.662,0,1,1,70.323,77.828,12.676,12.676,0,0,1,82.985,65.166Zm0,30.941a20.332,20.332,0,0,1,20.046,16.6,35.789,35.789,0,0,1-40.093,0A20.332,20.332,0,0,1,82.985,96.107Zm17.45,1.1a25.931,25.931,0,0,0-6.878-4.48,18.279,18.279,0,1,0-21.145,0,26.061,26.061,0,0,0-14.285,16.085,35.868,35.868,0,1,1,49.714,0A25.986,25.986,0,0,0,100.435,97.211Z" transform="translate(1274.5 172.5)"/>
    <g id="그룹_10818" data-name="그룹 10818" transform="translate(88 -3)">
      <rect id="사각형_3622" data-name="사각형 3622" class="cls-2" width="122" height="122" transform="translate(1208 197)"/>
    </g>
  </g>
</svg>
