<svg xmlns="http://www.w3.org/2000/svg" width="122" height="122" viewBox="0 0 122 122">
  <defs>
    <style>
      .cls-1 {
        fill: none;
      }

      .cls-2 {
        fill: rgba(201, 107, 18, 0.5);
      }

    </style>
  </defs>
  <g id="더보기" transform="translate(-1242 -1295)">
    <rect id="사각형_3138" data-name="사각형 3138" class="cls-1" width="122" height="122" transform="translate(1242 1295)" />
    <path id="더보기-2" data-name="더보기" class="cls-2"
      d="M-56.969-150.462a7.76,7.76,0,0,1,7.761-7.772h.011a7.766,7.766,0,0,1,7.766,7.766v.005A7.77,7.77,0,0,1-49.2-142.7a7.766,7.766,0,0,1-7.772-7.761Zm2.272,33.216a7.774,7.774,0,0,0,10.988,0,7.776,7.776,0,0,0-.058-10.993,7.758,7.758,0,0,0-5.431-2.246,7.775,7.775,0,0,0-7.777,7.766,7.774,7.774,0,0,0,2.278,5.5Zm0,27.749a7.774,7.774,0,0,0,10.988,0,7.776,7.776,0,0,0-.005-10.993,7.766,7.766,0,0,0-5.489-2.272,7.772,7.772,0,0,0-7.772,7.772A7.774,7.774,0,0,0-54.7-89.5Z"
      transform="translate(1351.974 1478.235)" />
  </g>
</svg>
