<svg xmlns="http://www.w3.org/2000/svg" width="122" height="122" viewBox="0 0 122 122">
  <defs>
    <style>
      .cls-1 {
        fill: none;
      }

      .cls-2 {
        fill: #212121;
      }

      .white {
        fill: #ffffff;
      }
    </style>
  </defs>
  <g id="미션관리" transform="translate(-671 -567)">
    <rect id="사각형_3116" data-name="사각형 3116" class="cls-1" width="122" height="122" transform="translate(671 567)"/>
    <path id="패스_670" data-name="패스 670" class="white" d="M177.214,40.5a3.515,3.515,0,0,0-3.955,2.087A29.438,29.438,0,0,1,154.946,54.84a22.991,22.991,0,0,1-13.294-6.288,26.1,26.1,0,0,0-20.466-7.425,27.773,27.773,0,0,0-18.127,13.766,3.515,3.515,0,0,0-.292,2.366l3.536,15.7h0l10.27,45.586a3.516,3.516,0,0,0,6.86-1.542L117.45,90.375a22.852,22.852,0,0,1,13.108-10.1,19.87,19.87,0,0,1,11.453,1.442,26.918,26.918,0,0,0,15.567,1.642c13.214-3.024,22.248-18.851,22.474-39.391A3.509,3.509,0,0,0,177.214,40.5Zm-21.271,36.02a20.393,20.393,0,0,1-11.772-1.456,26.43,26.43,0,0,0-15.242-1.635,27.16,27.16,0,0,0-13.52,8.143l-.366-1.622-5.151-22.879a20.167,20.167,0,0,1,12.576-9.033c5.258-1,9.751,2.32,14.963,6.175a28.87,28.87,0,0,0,17.794,7.664A30.186,30.186,0,0,0,171.9,54.342c-2.114,10.556-7.285,20.194-15.926,22.175Z" transform="translate(590.32 547.576)"/>
  </g>
</svg>
