<svg width="24" height="24" viewBox="0 0 24 24" fill="none" xmlns="http://www.w3.org/2000/svg">
<g clip-path="url(#clip0_2912_15709)">
<path fill-rule="evenodd" clip-rule="evenodd" d="M8.96713 7.64567C9.9331 5.47272 12.7907 4.75899 13.6007 4.6187C13.6302 4.61358 13.6593 4.60829 13.6883 4.60305C14.171 4.51557 14.5796 4.44152 15.2196 5.38159C15.5925 5.92949 15.5787 6.29129 15.4908 6.50598C15.4187 6.68171 15.297 6.75888 15.297 6.75888C15.4077 6.84218 15.4906 6.95652 15.5349 7.08708C15.5428 7.11048 15.5495 7.1342 15.5548 7.15815C15.5792 7.26782 15.5762 7.38216 15.5455 7.49105C15.389 8.44799 14.0578 7.51665 14.0578 7.51665C13.9032 7.67189 13.7324 7.81055 13.5485 7.93035C13.0789 8.28005 11.3562 8.04709 11.3562 8.04709C10.6499 9.05119 10.2346 10.2278 10.1552 11.4494C10.1872 12.3474 10.2769 13.2421 10.4237 14.128C10.4965 14.5677 10.5834 15.0052 10.6842 15.4399C10.6842 15.4399 11.1898 15.1006 11.8251 14.7777C12.4017 14.4845 13.0852 14.205 13.5945 14.205C13.878 14.1867 14.1621 14.2325 14.4251 14.339C14.6882 14.4454 14.9235 14.6097 15.1131 14.8194C15.1131 14.8194 18.3132 13.053 19.6831 13.053C20.4073 13.053 21.1974 13.4164 21.7812 13.759C22.3018 14.0645 22.6585 14.3535 22.6585 14.3535C22.6585 14.3535 22.8425 14.0866 23.1593 13.746C23.3665 13.5232 23.6305 13.2689 23.9369 13.0371C24.2851 12.7737 24.6882 12.5393 25.1251 12.413C25.1893 12.8143 25.224 13.2481 25.2262 13.7047C25.2402 16.5728 27.3319 21.7031 24.0876 23.9999C23.8697 24.1542 19.9708 24.0875 19.9708 24.0875C19.9708 24.0875 19.9708 23.8248 19.6635 23.2992C19.6635 23.2992 18.757 21.7247 18.1472 20.5753C17.8563 20.0271 17.633 19.5756 17.6076 19.4377C17.6076 19.4377 17.3043 19.6752 16.4385 19.9129C15.5722 20.1506 14.1428 20.3885 11.8909 20.3885C9.68107 20.4382 7.49885 19.8945 5.57541 18.8151C5.40041 18.7101 5.26103 18.5557 5.17516 18.3717C5.08929 18.1877 5.06084 17.9825 5.09346 17.7824C5.32119 16.287 5.683 14.8148 6.17462 13.3832C6.7207 11.8847 7.50349 10.4344 8.13542 9.26364C8.47724 8.63035 8.77492 8.07883 8.96713 7.64567Z" fill="#D8D8D8"/>
</g>
<defs>
<clipPath id="clip0_2912_15709">
<rect width="24" height="24" fill="white"/>
</clipPath>
</defs>
</svg>
