<svg width="24" height="24" viewBox="0 0 24 24" fill="none" xmlns="http://www.w3.org/2000/svg">
<path d="M19.6594 11.4654C19.8002 11.6076 19.8792 11.7996 19.8792 11.9997C19.8792 12.1999 19.8002 12.3919 19.6594 12.5341L11.9625 20.2122C10.9779 21.1969 9.64248 21.75 8.25002 21.75C6.85757 21.75 5.52214 21.1969 4.53752 20.2122C3.55291 19.2276 2.99976 17.8922 2.99976 16.4997C2.99976 15.1073 3.55291 13.7719 4.53752 12.7872L13.8469 3.35599C14.1913 2.99282 14.605 2.70227 15.0635 2.50148C15.522 2.30069 16.016 2.19372 16.5165 2.18687C17.017 2.18003 17.5138 2.27344 17.9776 2.46162C18.4414 2.64979 18.8629 2.92891 19.2171 3.28253C19.5714 3.63615 19.8512 4.0571 20.0402 4.52058C20.2292 4.98406 20.3235 5.48069 20.3175 5.98119C20.3116 6.48168 20.2055 6.97592 20.0055 7.43477C19.8055 7.89362 19.5157 8.30779 19.1531 8.65287L9.84377 18.0841C9.63569 18.2954 9.38757 18.4631 9.11392 18.5774C8.84027 18.6917 8.54658 18.7503 8.25002 18.7497C7.80421 18.7508 7.36812 18.6195 6.9971 18.3723C6.62607 18.1252 6.33683 17.7733 6.16607 17.3615C5.99532 16.9497 5.95075 16.4965 6.03803 16.0593C6.1253 15.6221 6.34049 15.2207 6.65627 14.906L14.4656 6.97474C14.5332 6.89894 14.6155 6.83766 14.7075 6.7946C14.7994 6.75154 14.8992 6.72761 15.0007 6.72425C15.1022 6.7209 15.2033 6.73818 15.2979 6.77507C15.3925 6.81196 15.4786 6.86767 15.5511 6.93884C15.6235 7.01001 15.6808 7.09514 15.7193 7.18909C15.7579 7.28303 15.7769 7.38383 15.7754 7.48537C15.7738 7.5869 15.7517 7.68707 15.7102 7.77978C15.6688 7.8725 15.609 7.95584 15.5344 8.02474L7.72502 15.9654C7.65393 16.0351 7.59743 16.1182 7.5588 16.2099C7.52017 16.3017 7.50019 16.4002 7.50002 16.4997C7.4989 16.6993 7.57636 16.8912 7.71565 17.0341C7.85962 17.1717 8.05087 17.2489 8.25002 17.2497C8.44956 17.2509 8.64152 17.1734 8.7844 17.0341L18.0844 7.59349C18.2957 7.38541 18.4634 7.13729 18.5777 6.86364C18.692 6.58999 18.7506 6.2963 18.75 5.99974C18.7511 5.55393 18.6198 5.11784 18.3726 4.74682C18.1254 4.37579 17.7736 4.08655 17.3618 3.91579C16.95 3.74504 16.4967 3.70047 16.0596 3.78775C15.6224 3.87502 15.221 4.09021 14.9063 4.40599L5.60627 13.8466C5.2431 14.1911 4.95255 14.6047 4.75176 15.0632C4.55097 15.5217 4.444 16.0157 4.43715 16.5162C4.43031 17.0167 4.52372 17.5135 4.7119 17.9773C4.90007 18.4411 5.17919 18.8626 5.53281 19.2168C5.88643 19.5711 6.30738 19.8509 6.77086 20.0399C7.23434 20.2289 7.73097 20.3232 8.23147 20.3173C8.73196 20.3113 9.2262 20.2052 9.68505 20.0052C10.1439 19.8052 10.5581 19.5154 10.9031 19.1529L18.5906 11.4654C18.7328 11.3245 18.9249 11.2455 19.125 11.2455C19.3252 11.2455 19.5172 11.3245 19.6594 11.4654Z" fill="#575555"/>
</svg>
