<svg xmlns="http://www.w3.org/2000/svg" width="122" height="122" viewBox="0 0 122 122">
  <defs>
    <style>
      .cls-1 {
        fill: none;
      }

      .cls-2 {
        fill: #c9c9c9;
      }
    </style>
  </defs>
  <g id="비밀번호" transform="translate(-1565 -1855)">
    <rect id="사각형_3149" data-name="사각형 3149" class="cls-1" width="122" height="122" transform="translate(1565 1855)"/>
    <path id="패스_1999" data-name="패스 1999" class="cls-2" d="M152.13,34.142h-2.9V27.5a23.189,23.189,0,0,0-46.332-2.084c-.028.7-.028,1.393,0,2.084v6.643H100a3.879,3.879,0,0,0-3.863,3.872V86.266A3.866,3.866,0,0,0,100,90.133H152.13a3.866,3.866,0,0,0,3.863-3.867h0V38.014A3.879,3.879,0,0,0,152.13,34.142ZM110.62,27.5a15.479,15.479,0,0,1,30.891-2.018,16.039,16.039,0,0,1,0,2.018v6.643H110.62Zm37.638,54.9h-44.4V41.862h44.4Z" transform="translate(1499.861 1869.73)"/>
  </g>
</svg>
