<svg width="24" height="24" viewBox="0 0 24 24" fill="none" xmlns="http://www.w3.org/2000/svg">
<path opacity="0.2" d="M18.75 3.75H15.375C14.9608 3.75 14.625 4.08579 14.625 4.5V19.5C14.625 19.9142 14.9608 20.25 15.375 20.25H18.75C19.1642 20.25 19.5 19.9142 19.5 19.5V4.5C19.5 4.08579 19.1642 3.75 18.75 3.75Z" fill="#575555"/>
<path opacity="0.2" d="M8.625 3.75H5.25C4.83579 3.75 4.5 4.08579 4.5 4.5V19.5C4.5 19.9142 4.83579 20.25 5.25 20.25H8.625C9.03921 20.25 9.375 19.9142 9.375 19.5V4.5C9.375 4.08579 9.03921 3.75 8.625 3.75Z" fill="#575555"/>
<path d="M18.75 3H15.375C14.9772 3 14.5956 3.15804 14.3143 3.43934C14.033 3.72064 13.875 4.10218 13.875 4.5V19.5C13.875 19.8978 14.033 20.2794 14.3143 20.5607C14.5956 20.842 14.9772 21 15.375 21H18.75C19.1478 21 19.5294 20.842 19.8107 20.5607C20.092 20.2794 20.25 19.8978 20.25 19.5V4.5C20.25 4.10218 20.092 3.72064 19.8107 3.43934C19.5294 3.15804 19.1478 3 18.75 3ZM18.75 19.5H15.375V4.5H18.75V19.5ZM8.625 3H5.25C4.85218 3 4.47064 3.15804 4.18934 3.43934C3.90804 3.72064 3.75 4.10218 3.75 4.5V19.5C3.75 19.8978 3.90804 20.2794 4.18934 20.5607C4.47064 20.842 4.85218 21 5.25 21H8.625C9.02282 21 9.40436 20.842 9.68566 20.5607C9.96696 20.2794 10.125 19.8978 10.125 19.5V4.5C10.125 4.10218 9.96696 3.72064 9.68566 3.43934C9.40436 3.15804 9.02282 3 8.625 3ZM8.625 19.5H5.25V4.5H8.625V19.5Z" fill="#575555"/>
</svg>
