<svg width="24" height="24" viewBox="0 0 24 24" fill="none" xmlns="http://www.w3.org/2000/svg">
<path opacity="0.2" d="M8.67187 11.6998C9.44364 13.2935 10.7324 14.579 12.3281 15.3467C12.4458 15.4024 12.576 15.4265 12.7059 15.4167C12.8358 15.4068 12.9608 15.3633 13.0687 15.2904L15.4125 13.7248C15.516 13.6546 15.6357 13.6117 15.7603 13.6002C15.8849 13.5887 16.0104 13.609 16.125 13.6592L20.5125 15.5435C20.6625 15.6059 20.7877 15.7159 20.869 15.8565C20.9504 15.9971 20.9832 16.1606 20.9625 16.3217C20.8234 17.407 20.2937 18.4046 19.4723 19.1276C18.6509 19.8506 17.5943 20.2495 16.5 20.2498C13.1185 20.2498 9.87548 18.9065 7.48439 16.5154C5.0933 14.1243 3.75 10.8813 3.75 7.49979C3.75025 6.40553 4.1492 5.34886 4.87221 4.5275C5.59522 3.70613 6.59274 3.17635 7.67812 3.03729C7.83922 3.01659 8.00266 3.04943 8.14326 3.13074C8.28386 3.21206 8.39384 3.33733 8.45625 3.48729L10.3406 7.88416C10.3896 7.99699 10.4101 8.12013 10.4003 8.24275C10.3905 8.36537 10.3507 8.48369 10.2844 8.58729L8.71875 10.9685C8.64905 11.0762 8.60814 11.2 8.59993 11.328C8.59172 11.4561 8.61649 11.5841 8.67187 11.6998Z" fill="#575555"/>
<path d="M16.5 21.0001C9.05625 21.0001 3 14.9439 3 7.50013C3.00281 6.22331 3.46919 4.99095 4.31243 4.03218C5.15566 3.07342 6.31837 2.45348 7.58437 2.28763C7.90711 2.25185 8.23284 2.31979 8.51435 2.48162C8.79586 2.64345 9.01851 2.89074 9.15 3.18763L11.0344 7.5845C11.1321 7.81273 11.1713 8.06176 11.1484 8.30897C11.1255 8.55619 11.0412 8.79376 10.9031 9.00013L9.34687 11.3814C10.0516 12.8115 11.2127 13.9661 12.6469 14.6626L15 13.097C15.2061 12.958 15.4443 12.8739 15.692 12.8526C15.9397 12.8313 16.1888 12.8734 16.4156 12.9751L20.8125 14.8501C21.1094 14.9816 21.3567 15.2043 21.5185 15.4858C21.6803 15.7673 21.7483 16.093 21.7125 16.4158C21.5467 17.6818 20.9267 18.8445 19.9679 19.6877C19.0092 20.5309 17.7768 20.9973 16.5 21.0001ZM7.77187 3.77825C6.86714 3.89456 6.03582 4.33664 5.43356 5.02173C4.8313 5.70683 4.4994 6.58795 4.5 7.50013C4.50248 10.682 5.76756 13.7328 8.01746 15.9827C10.2674 18.2326 13.3182 19.4976 16.5 19.5001C17.4122 19.5007 18.2933 19.1688 18.9784 18.5666C19.6635 17.9643 20.1056 17.133 20.2219 16.2283L15.825 14.3533L13.4812 15.9189C13.2656 16.0614 13.0168 16.1459 12.7589 16.1639C12.501 16.182 12.2428 16.1331 12.0094 16.022C10.2628 15.1771 8.84994 13.7709 7.99687 12.0283C7.8844 11.7956 7.83393 11.5379 7.85036 11.28C7.86678 11.0221 7.94955 10.7729 8.09062 10.5564L9.65625 8.17513L7.77187 3.77825Z" fill="#575555"/>
</svg>
