<svg xmlns="http://www.w3.org/2000/svg" width="122" height="122" viewBox="0 0 122 122">
  <defs>
    <style>
      .cls-1 {
        fill: none;
      }

      .cls-2 {
        fill: #cfcfcf;
      }
    </style>
  </defs>
  <g id="플러스" transform="translate(-684 -1295)">
    <rect id="사각형_3140" data-name="사각형 3140" class="cls-1" width="122" height="122" transform="translate(684 1295)"/>
    <path id="플러스-2" data-name="플러스" class="cls-2" d="M-73.237-122.978a5.838,5.838,0,0,1-5.841,5.841h-23.363v22.08a5.838,5.838,0,0,1-5.862,5.82,5.843,5.843,0,0,1-5.82-5.82v-22.08H-136.2a5.838,5.838,0,0,1-5.841-5.841,5.841,5.841,0,0,1,5.841-5.841h22.08v-23.363a5.841,5.841,0,0,1,5.82-5.862,5.838,5.838,0,0,1,5.862,5.82v23.405h23.363a5.841,5.841,0,0,1,5.841,5.841Z" transform="translate(853.044 1480.046)"/>
  </g>
</svg>
