<svg width="24" height="24" viewBox="0 0 24 24" fill="none" xmlns="http://www.w3.org/2000/svg">
<path opacity="0.2" d="M12 21C16.9706 21 21 16.9706 21 12C21 7.02944 16.9706 3 12 3C7.02944 3 3 7.02944 3 12C3 16.9706 7.02944 21 12 21Z" fill="#575555"/>
<path d="M12 2.25C10.0716 2.25 8.18657 2.82183 6.58319 3.89317C4.97982 4.96451 3.73013 6.48726 2.99218 8.26884C2.25422 10.0504 2.06114 12.0108 2.43735 13.9021C2.81355 15.7934 3.74215 17.5307 5.10571 18.8943C6.46928 20.2579 8.20656 21.1865 10.0979 21.5627C11.9892 21.9389 13.9496 21.7458 15.7312 21.0078C17.5127 20.2699 19.0355 19.0202 20.1068 17.4168C21.1782 15.8134 21.75 13.9284 21.75 12C21.75 9.41414 20.7228 6.93419 18.8943 5.10571C17.0658 3.27723 14.5859 2.25 12 2.25ZM12 20.25C10.3683 20.25 8.77326 19.7661 7.41655 18.8596C6.05984 17.9531 5.00242 16.6646 4.378 15.1571C3.75358 13.6496 3.5902 11.9908 3.90853 10.3905C4.22685 8.79016 5.01259 7.32015 6.16637 6.16637C7.32016 5.01259 8.79017 4.22685 10.3905 3.90852C11.9909 3.59019 13.6497 3.75357 15.1571 4.37799C16.6646 5.00242 17.9531 6.05984 18.8596 7.41655C19.7661 8.77325 20.25 10.3683 20.25 12C20.2475 14.1873 19.3775 16.2843 17.8309 17.8309C16.2843 19.3775 14.1873 20.2475 12 20.25Z" fill="#575555"/>
<path d="M15.75 11.25H12.75V8.25C12.75 8.05109 12.671 7.86032 12.5303 7.71967C12.3897 7.57902 12.1989 7.5 12 7.5C11.8011 7.5 11.6103 7.57902 11.4697 7.71967C11.329 7.86032 11.25 8.05109 11.25 8.25V11.25H8.25C8.05109 11.25 7.86032 11.329 7.71967 11.4697C7.57902 11.6103 7.5 11.8011 7.5 12C7.5 12.1989 7.57902 12.3897 7.71967 12.5303C7.86032 12.671 8.05109 12.75 8.25 12.75H11.25V15.75C11.25 15.9489 11.329 16.1397 11.4697 16.2803C11.6103 16.421 11.8011 16.5 12 16.5C12.1989 16.5 12.3897 16.421 12.5303 16.2803C12.671 16.1397 12.75 15.9489 12.75 15.75V12.75H15.75C15.9489 12.75 16.1397 12.671 16.2803 12.5303C16.421 12.3897 16.5 12.1989 16.5 12C16.5 11.8011 16.421 11.6103 16.2803 11.4697C16.1397 11.329 15.9489 11.25 15.75 11.25Z" fill="#575555"/>
</svg>
