<svg width="24" height="24" viewBox="0 0 24 24" fill="none" xmlns="http://www.w3.org/2000/svg">
<path d="M18.9561 18.8249C20.7836 16.9974 21.8103 14.5188 21.8103 11.9343C21.8103 9.34978 20.7836 6.87115 18.9561 5.04364C17.1286 3.21614 14.65 2.18945 12.0655 2.18945C9.48103 2.18945 7.0024 3.21614 5.17489 5.04364C5.14851 5.0605 5.12612 5.08289 5.10927 5.10927C5.08289 5.12612 5.0605 5.14851 5.04364 5.17489C3.21614 7.0024 2.18945 9.48103 2.18945 12.0655C2.18945 14.65 3.21614 17.1286 5.04364 18.9561C6.87115 20.7836 9.34978 21.8103 11.9343 21.8103C14.5188 21.8103 16.9974 20.7836 18.8249 18.9561C18.8513 18.9393 18.8737 18.9169 18.8905 18.8905C18.9169 18.8737 18.9393 18.8513 18.9561 18.8249ZM20.2499 11.9999C20.2498 13.9289 19.573 15.7967 18.3374 17.278L6.72177 5.66239C7.92642 4.65961 9.39181 4.02075 10.9464 3.82059C12.501 3.62043 14.0804 3.86727 15.4997 4.5322C16.9191 5.19713 18.1197 6.25264 18.961 7.57517C19.8022 8.89769 20.2493 10.4325 20.2499 11.9999ZM3.74989 11.9999C3.74998 10.0709 4.42678 8.20307 5.66239 6.72177L17.278 18.3374C16.0734 19.3402 14.608 19.979 13.0534 20.1792C11.4988 20.3794 9.91941 20.1325 8.50004 19.4676C7.08066 18.8027 5.88008 17.7471 5.03883 16.4246C4.19759 15.1021 3.75049 13.5673 3.74989 11.9999Z" fill="#575555"/>
</svg>
