<svg xmlns="http://www.w3.org/2000/svg" width="122" height="122" viewBox="0 0 122 122">
  <defs>
    <style>
      .cls-1 {
        fill: none;
      }
    </style>
  </defs>
  <g id="사용불가해제" transform="translate(-1163 -544)">
    <path id="패스_287" data-name="패스 287" d="M2124.091,716.441,2113.9,726.788a2.949,2.949,0,0,1-4.2,0l-10.187-10.347a2.95,2.95,0,1,1,4.2-4.139l5.694,5.784a20.3,20.3,0,1,0-20.226,22.105,19.911,19.911,0,0,0,11.455-3.6,2.949,2.949,0,1,1,3.377,4.836,25.788,25.788,0,0,1-14.833,4.667,26.547,26.547,0,1,1,26.06-29.071l4.643-4.717a2.95,2.95,0,0,1,4.2,4.139Z" transform="translate(-869.969 -114.545)"/>
    <rect id="사각형_3114" data-name="사각형 3114" class="cls-1" width="122" height="122" transform="translate(1163 544)"/>
  </g>
</svg>
