<svg xmlns="http://www.w3.org/2000/svg" width="122" height="122" viewBox="0 0 122 122">
  <defs>
    <style>
      .cls-1 {
        fill: none;
      }

      .cls-2 {
        fill: #212121;
      }
    </style>
  </defs>
  <g id="그룹_9638" data-name="그룹 9638" transform="translate(-1229 -197)">
    <g id="그룹_9635" data-name="그룹 9635" transform="translate(1244.785 212.605)">
      <g id="타원_564" data-name="타원 564" transform="translate(3.215 2.973)">
        <circle id="타원_566" data-name="타원 566" class="cls-1" cx="42.5" cy="42.5" r="42.5" transform="translate(0 0.422)"/>
        <path id="패스_2472" data-name="패스 2472" class="cls-2" d="M45.735,87.471A41.735,41.735,0,1,1,87.471,45.735,41.78,41.78,0,0,1,45.735,87.471Zm0-77.911A36.175,36.175,0,1,0,81.911,45.735,36.219,36.219,0,0,0,45.735,9.56Z" transform="translate(-3.152 -2.897)"/>
      </g>
      <g id="타원_565" data-name="타원 565" transform="translate(16.269 16.281)">
        <circle id="타원_567" data-name="타원 567" class="cls-1" cx="29" cy="29" r="29" transform="translate(0.945 0.113)"/>
        <path id="패스_2473" data-name="패스 2473" class="cls-2" d="M35.529,65.059A29.529,29.529,0,1,1,65.059,35.529,29.562,29.562,0,0,1,35.529,65.059Zm0-54A24.471,24.471,0,1,0,60,35.529,24.5,24.5,0,0,0,35.529,11.058Z" transform="translate(-6 -6)"/>
      </g>
      <path id="패스_2474" data-name="패스 2474" class="cls-2" d="M15.182,34.514A2.785,2.785,0,0,1,12.4,31.731V13.182a2.782,2.782,0,1,1,5.565,0V31.731A2.785,2.785,0,0,1,15.182,34.514Z" transform="translate(30.616 23.354)"/>
    </g>
    <g id="그룹_9637" data-name="그룹 9637" transform="translate(21)">
      <rect id="사각형_3622" data-name="사각형 3622" class="cls-1" width="122" height="122" transform="translate(1208 197)"/>
    </g>
  </g>
</svg>
