<svg xmlns="http://www.w3.org/2000/svg" width="122" height="122" viewBox="0 0 122 122">
  <defs>
    <style>
      .cls-1 {
        fill: none;
      }

      .cls-2 {
        fill: #c9c9c9;
      }
    </style>
  </defs>
  <g id="돋보기" transform="translate(-1412 -1295)">
    <rect id="사각형_3139" data-name="사각형 3139" class="cls-1" width="122" height="122" transform="translate(1412 1295)"/>
    <path id="돋보기-2" data-name="돋보기" class="cls-2" d="M43.224-86.289,19.406-107.836a31.061,31.061,0,0,0,6.743-19.329A31.687,31.687,0,0,0-5.279-159.1a31.687,31.687,0,0,0-31.936,31.428A31.683,31.683,0,0,0-5.787-95.737a31.659,31.659,0,0,0,18.593-5.848L36.841-79.832a4.534,4.534,0,0,0,6.42-.27,4.541,4.541,0,0,0-.032-6.187Zm-72.51-40.865A23.681,23.681,0,0,1-5.94-151.162a23.682,23.682,0,0,1,24.008,23.352,23.68,23.68,0,0,1-23.352,24l-.323.005A23.544,23.544,0,0,1-29.3-127.154Z" transform="translate(1469.216 1475.102)"/>
  </g>
</svg>
