<svg xmlns="http://www.w3.org/2000/svg" width="122" height="122" viewBox="0 0 122 122">
  <defs>
    <style>
      .cls-1 {
        fill: #212121;
      }

      .cls-2 {
        fill: none;
      }
    </style>
  </defs>
  <g id="보내기" transform="translate(-165 -374)">
    <path id="패스_306" data-name="패스 306" class="cls-1" d="M1878.448,1199.582a3.145,3.145,0,0,1-.522-.043,3.264,3.264,0,0,1-2.727-2.892l-2.885-28.376-28.377-2.887a3.265,3.265,0,0,1-1.008-6.228l62.051-27.869a3.266,3.266,0,0,1,4.317,4.317l-27.87,62.049A3.267,3.267,0,0,1,1878.448,1199.582Zm-21.724-39.462,18.9,1.922a3.265,3.265,0,0,1,2.919,2.919l1.922,18.9,19.354-43.091Z" transform="translate(-1649.999 -730)"/>
    <rect id="사각형_3120" data-name="사각형 3120" class="cls-2" width="122" height="122" transform="translate(165 374)"/>
  </g>
</svg>
