<svg id="아래짧은화살표" xmlns="http://www.w3.org/2000/svg" width="23" height="23" viewBox="0 0 23 23">
  <rect id="Rectangle_3128" data-name="Rectangle 3128" width="23" height="23" fill="none"/>
  <path id="아래짧은화살표-2" data-name="아래짧은화살표" d="M47.92-210.018a.76.76,0,0,1-.541-.232l-4.7-4.893a.759.759,0,0,1-.115-1.066.758.758,0,0,1,1.065-.115.756.756,0,0,1,.132.137l4.163,4.328,4.163-4.328a.757.757,0,0,1,1.06-.154.756.756,0,0,1,.153,1.059.716.716,0,0,1-.131.137l-4.7,4.893A.762.762,0,0,1,47.92-210.018Z" transform="translate(-36.236 224.997)" fill="#212121"/>
</svg>
