<svg xmlns="http://www.w3.org/2000/svg" width="122" height="122" viewBox="0 0 122 122">
  <defs>
    <style>
      .cls-1 {
        fill: none;
      }

      .cls-2 {
        fill: #212121;
      }
      .grey {
        fill: #C9C9C9;
      }
    </style>
  </defs>
  <g id="오른짧은화살표" transform="translate(-1006 -1001)">
    <rect id="사각형_3126" data-name="사각형 3126" class="cls-1" width="122" height="122" transform="translate(1006 1001)"/>
    <path id="오른짧은화살표-2" data-name="오른짧은화살표" class="grey" d="M26.578-190.987a3.868,3.868,0,0,1-1.189,2.764l-25,24.038a3.866,3.866,0,0,1-5.44.586,3.866,3.866,0,0,1-.58-5.44,3.631,3.631,0,0,1,.691-.675l22.114-21.268L-4.94-212.25a3.871,3.871,0,0,1,.586-5.44,3.868,3.868,0,0,1,4.743-.088l25,24.038A3.875,3.875,0,0,1,26.578-190.987Z" transform="translate(1057.49 1252.547)"/>
  </g>
</svg>
