<svg xmlns="http://www.w3.org/2000/svg" width="122" height="122" viewBox="0 0 122 122">
  <defs>
    <style>
      .cls-1 {
        fill: none;
      }

      .cls-2 {
        fill: #212121;
      }
    </style>
  </defs>
  <g id="왼짧은화살표" transform="translate(-836 -1001)">
    <rect id="사각형_3125" data-name="사각형 3125" class="cls-1" width="122" height="122" transform="translate(836 1001)"/>
    <path id="왼짧은화살표-2" data-name="왼짧은화살표" class="cls-2" d="M-1-169.092a3.867,3.867,0,0,1,.785,5.418,3.871,3.871,0,0,1-5.412.785,3.864,3.864,0,0,1-.7-.674l-25-24.038a3.874,3.874,0,0,1-.055-5.473l.055-.055,25-24.038a3.878,3.878,0,0,1,5.446-.586,3.871,3.871,0,0,1,.586,5.44,3.855,3.855,0,0,1-.7.674l-22.114,21.268Z" transform="translate(911.489 1252.609)"/>
  </g>
</svg>
