<svg width="24" height="24" viewBox="0 0 24 24" fill="none" xmlns="http://www.w3.org/2000/svg">
<path d="M13.2844 12.5344L9.34687 16.4719C9.20291 16.6095 9.01166 16.6867 8.8125 16.6875C8.71593 16.6878 8.62029 16.6686 8.53125 16.6312C8.39299 16.5753 8.27455 16.4794 8.19106 16.3559C8.10756 16.2323 8.0628 16.0866 8.0625 15.9375V12.75H2.25C2.05109 12.75 1.86032 12.671 1.71967 12.5303C1.57902 12.3897 1.5 12.1989 1.5 12C1.5 11.8011 1.57902 11.6103 1.71967 11.4697C1.86032 11.329 2.05109 11.25 2.25 11.25H8.0625V8.0625C8.0628 7.91336 8.10756 7.7677 8.19106 7.64413C8.27455 7.52055 8.39299 7.42468 8.53125 7.36875C8.66818 7.31436 8.81785 7.30047 8.96245 7.32872C9.10706 7.35698 9.24049 7.42619 9.34687 7.52813L13.2844 11.4656C13.4252 11.6078 13.5042 11.7999 13.5042 12C13.5042 12.2001 13.4252 12.3922 13.2844 12.5344ZM18 3H12.75C12.5511 3 12.3603 3.07902 12.2197 3.21967C12.079 3.36032 12 3.55109 12 3.75C12 3.94891 12.079 4.13968 12.2197 4.28033C12.3603 4.42098 12.5511 4.5 12.75 4.5H18V19.5H12.75C12.5511 19.5 12.3603 19.579 12.2197 19.7197C12.079 19.8603 12 20.0511 12 20.25C12 20.4489 12.079 20.6397 12.2197 20.7803C12.3603 20.921 12.5511 21 12.75 21H18C18.3978 21 18.7794 20.842 19.0607 20.5607C19.342 20.2794 19.5 19.8978 19.5 19.5V4.5C19.5 4.10218 19.342 3.72064 19.0607 3.43934C18.7794 3.15804 18.3978 3 18 3Z" fill="#575555"/>
</svg>
