<svg width="24" height="24" viewBox="0 0 24 24" fill="none" xmlns="http://www.w3.org/2000/svg">
<path opacity="0.2" d="M5.25 14.625C6.28553 14.625 7.125 13.7855 7.125 12.75C7.125 11.7145 6.28553 10.875 5.25 10.875C4.21447 10.875 3.375 11.7145 3.375 12.75C3.375 13.7855 4.21447 14.625 5.25 14.625Z" fill="#575555"/>
<path d="M12.75 5.7375V3.75C12.75 3.55109 12.671 3.36032 12.5303 3.21967C12.3897 3.07902 12.1989 3 12 3C11.8011 3 11.6103 3.07902 11.4697 3.21967C11.329 3.36032 11.25 3.55109 11.25 3.75V5.7375C10.7107 5.90069 10.2382 6.23309 9.90238 6.68555C9.56656 7.13802 9.38525 7.68653 9.38525 8.25C9.38525 8.81347 9.56656 9.36198 9.90238 9.81445C10.2382 10.2669 10.7107 10.5993 11.25 10.7625V20.25C11.25 20.4489 11.329 20.6397 11.4697 20.7803C11.6103 20.921 11.8011 21 12 21C12.1989 21 12.3897 20.921 12.5303 20.7803C12.671 20.6397 12.75 20.4489 12.75 20.25V10.7625C13.2893 10.5993 13.7618 10.2669 14.0976 9.81445C14.4335 9.36198 14.6148 8.81347 14.6148 8.25C14.6148 7.68653 14.4335 7.13802 14.0976 6.68555C13.7618 6.23309 13.2893 5.90069 12.75 5.7375ZM12 9.375C11.7775 9.375 11.56 9.30902 11.375 9.1854C11.19 9.06179 11.0458 8.88609 10.9606 8.68052C10.8755 8.47495 10.8532 8.24875 10.8966 8.03052C10.94 7.81229 11.0472 7.61184 11.2045 7.4545C11.3618 7.29717 11.5623 7.19002 11.7805 7.14662C11.9988 7.10321 12.225 7.12549 12.4305 7.21064C12.6361 7.29578 12.8118 7.43998 12.9354 7.62498C13.059 7.80999 13.125 8.0275 13.125 8.25C13.125 8.54837 13.0065 8.83452 12.7955 9.0455C12.5845 9.25647 12.2984 9.375 12 9.375ZM21.375 15.75C21.3743 15.1852 21.1916 14.6357 20.8538 14.1831C20.516 13.7305 20.0412 13.3989 19.5 13.2375V3.75C19.5 3.55109 19.421 3.36032 19.2803 3.21967C19.1397 3.07902 18.9489 3 18.75 3C18.5511 3 18.3603 3.07902 18.2197 3.21967C18.079 3.36032 18 3.55109 18 3.75V13.2375C17.4607 13.4007 16.9882 13.7331 16.6524 14.1856C16.3166 14.638 16.1353 15.1865 16.1353 15.75C16.1353 16.3135 16.3166 16.862 16.6524 17.3144C16.9882 17.7669 17.4607 18.0993 18 18.2625V20.25C18 20.4489 18.079 20.6397 18.2197 20.7803C18.3603 20.921 18.5511 21 18.75 21C18.9489 21 19.1397 20.921 19.2803 20.7803C19.421 20.6397 19.5 20.4489 19.5 20.25V18.2625C20.0412 18.1011 20.516 17.7695 20.8538 17.3169C21.1916 16.8643 21.3743 16.3148 21.375 15.75ZM18.75 16.875C18.5275 16.875 18.31 16.809 18.125 16.6854C17.94 16.5618 17.7958 16.3861 17.7106 16.1805C17.6255 15.975 17.6032 15.7488 17.6466 15.5305C17.69 15.3123 17.7972 15.1118 17.9545 14.9545C18.1119 14.7972 18.3123 14.69 18.5305 14.6466C18.7488 14.6032 18.975 14.6255 19.1805 14.7106C19.3861 14.7958 19.5618 14.94 19.6854 15.125C19.809 15.31 19.875 15.5275 19.875 15.75C19.875 16.0484 19.7565 16.3345 19.5455 16.5455C19.3345 16.7565 19.0484 16.875 18.75 16.875ZM6.00001 10.2375V3.75C6.00001 3.55109 5.92099 3.36032 5.78034 3.21967C5.63969 3.07902 5.44892 3 5.25001 3C5.0511 3 4.86033 3.07902 4.71968 3.21967C4.57903 3.36032 4.50001 3.55109 4.50001 3.75V10.2375C3.96069 10.4007 3.4882 10.7331 3.15238 11.1856C2.81656 11.638 2.63525 12.1865 2.63525 12.75C2.63525 13.3135 2.81656 13.862 3.15238 14.3144C3.4882 14.7669 3.96069 15.0993 4.50001 15.2625V20.25C4.50001 20.4489 4.57903 20.6397 4.71968 20.7803C4.86033 20.921 5.0511 21 5.25001 21C5.44892 21 5.63969 20.921 5.78034 20.7803C5.92099 20.6397 6.00001 20.4489 6.00001 20.25V15.2625C6.53933 15.0993 7.01183 14.7669 7.34764 14.3144C7.68346 13.862 7.86477 13.3135 7.86477 12.75C7.86477 12.1865 7.68346 11.638 7.34764 11.1856C7.01183 10.7331 6.53933 10.4007 6.00001 10.2375ZM5.25001 13.875C5.02751 13.875 4.81 13.809 4.62499 13.6854C4.43999 13.5618 4.2958 13.3861 4.21065 13.1805C4.1255 12.975 4.10322 12.7488 4.14663 12.5305C4.19004 12.3123 4.29718 12.1118 4.45452 11.9545C4.61185 11.7972 4.81231 11.69 5.03053 11.6466C5.24876 11.6032 5.47496 11.6255 5.68053 11.7106C5.8861 11.7958 6.0618 11.94 6.18542 12.125C6.30903 12.31 6.37501 12.5275 6.37501 12.75C6.37501 13.0484 6.25649 13.3345 6.04551 13.5455C5.83453 13.7565 5.54838 13.875 5.25001 13.875Z" fill="#575555"/>
</svg>
