<svg width="24" height="24" viewBox="0 0 24 24" fill="none" xmlns="http://www.w3.org/2000/svg">
<path opacity="0.2" d="M21 12C21 13.78 20.4722 15.5201 19.4832 17.0001C18.4943 18.4802 17.0887 19.6337 15.4442 20.3149C13.7996 20.9961 11.99 21.1743 10.2442 20.8271C8.49836 20.4798 6.89472 19.6226 5.63604 18.364C4.37737 17.1053 3.5202 15.5016 3.17294 13.7558C2.82567 12.01 3.0039 10.2004 3.68509 8.55585C4.36628 6.91131 5.51983 5.50571 6.99987 4.51677C8.47992 3.52784 10.22 3 12 3C14.387 3 16.6761 3.94821 18.364 5.63604C20.0518 7.32387 21 9.61305 21 12Z" fill="#575555"/>
<path d="M12 2.25C10.0716 2.25 8.18657 2.82183 6.58319 3.89317C4.97982 4.96452 3.73013 6.48726 2.99218 8.26884C2.25422 10.0504 2.06114 12.0108 2.43735 13.9021C2.81355 15.7934 3.74215 17.5307 5.10571 18.8943C6.46928 20.2579 8.20656 21.1865 10.0979 21.5627C11.9892 21.9389 13.9496 21.7458 15.7312 21.0078C17.5127 20.2699 19.0355 19.0202 20.1068 17.4168C21.1782 15.8134 21.75 13.9284 21.75 12C21.7451 9.41566 20.7162 6.93859 18.8888 5.11118C17.0614 3.28378 14.5843 2.25496 12 2.25ZM12 20.25C10.3683 20.25 8.77326 19.7661 7.41655 18.8596C6.05984 17.9531 5.00242 16.6646 4.378 15.1571C3.75358 13.6496 3.5902 11.9908 3.90853 10.3905C4.22685 8.79016 5.01259 7.32015 6.16637 6.16637C7.32016 5.01259 8.79017 4.22685 10.3905 3.90852C11.9909 3.59019 13.6497 3.75357 15.1571 4.37799C16.6646 5.00242 17.9531 6.05984 18.8596 7.41655C19.7662 8.77325 20.25 10.3683 20.25 12C20.2475 14.1873 19.3775 16.2843 17.8309 17.8309C16.2843 19.3775 14.1873 20.2475 12 20.25ZM7.5 10.125C7.5 9.9025 7.56598 9.68499 7.6896 9.49998C7.81322 9.31498 7.98892 9.17078 8.19449 9.08564C8.40005 9.00049 8.62625 8.97821 8.84448 9.02162C9.06271 9.06503 9.26317 9.17217 9.4205 9.32951C9.57783 9.48684 9.68498 9.68729 9.72839 9.90552C9.7718 10.1238 9.74952 10.35 9.66437 10.5555C9.57922 10.7611 9.43503 10.9368 9.25002 11.0604C9.06502 11.184 8.84751 11.25 8.625 11.25C8.32664 11.25 8.04049 11.1315 7.82951 10.9205C7.61853 10.7095 7.5 10.4234 7.5 10.125ZM14.25 10.125C14.25 9.9025 14.316 9.68499 14.4396 9.49998C14.5632 9.31498 14.7389 9.17078 14.9445 9.08564C15.1501 9.00049 15.3763 8.97821 15.5945 9.02162C15.8127 9.06503 16.0132 9.17217 16.1705 9.32951C16.3278 9.48684 16.435 9.68729 16.4784 9.90552C16.5218 10.1238 16.4995 10.35 16.4144 10.5555C16.3292 10.7611 16.185 10.9368 16 11.0604C15.815 11.184 15.5975 11.25 15.375 11.25C15.0766 11.25 14.7905 11.1315 14.5795 10.9205C14.3685 10.7095 14.25 10.4234 14.25 10.125ZM16.5469 14.625C16.0861 15.4232 15.4234 16.0861 14.6252 16.5469C13.8271 17.0078 12.9217 17.2504 12 17.2504C11.0784 17.2504 10.1729 17.0078 9.3748 16.5469C8.57664 16.0861 7.91388 15.4232 7.45313 14.625C7.39443 14.5398 7.35398 14.4435 7.33432 14.3419C7.31466 14.2404 7.31621 14.1359 7.33888 14.035C7.36154 13.9341 7.40484 13.8389 7.46604 13.7556C7.52724 13.6722 7.60502 13.6024 7.69449 13.5505C7.78397 13.4986 7.88321 13.4658 7.98597 13.4541C8.08874 13.4425 8.19281 13.4522 8.29164 13.4826C8.39047 13.5131 8.48193 13.5637 8.56028 13.6312C8.63862 13.6988 8.70215 13.7817 8.74688 13.875C9.07718 14.4453 9.55159 14.9187 10.1226 15.2478C10.6935 15.577 11.341 15.7502 12 15.7502C12.659 15.7502 13.3065 15.577 13.8775 15.2478C14.4484 14.9187 14.9228 14.4453 15.2531 13.875C15.3603 13.7196 15.5221 13.6103 15.7063 13.5689C15.8905 13.5275 16.0835 13.5571 16.2468 13.6518C16.4101 13.7465 16.5317 13.8993 16.5873 14.0797C16.643 14.2601 16.6285 14.4548 16.5469 14.625Z" fill="#575555"/>
</svg>
