<svg width="24" height="24" viewBox="0 0 24 24" fill="none" xmlns="http://www.w3.org/2000/svg">
<path d="M17.5593 21.7503C17.2697 21.749 16.9865 21.6644 16.7437 21.5065L12.0093 18.5159H11.9905L7.59366 21.3003C7.30963 21.4795 6.97858 21.5699 6.64289 21.5599C6.30719 21.5498 5.98213 21.4399 5.70929 21.244C5.42918 21.0381 5.21704 20.7531 5.1001 20.4257C4.98316 20.0983 4.96677 19.7434 5.05304 19.4065L6.31866 14.4284C6.32264 14.4154 6.323 14.4015 6.31969 14.3883C6.31639 14.3751 6.30955 14.363 6.29991 14.3534L2.06241 10.8284C1.82094 10.6266 1.64544 10.3572 1.55855 10.0547C1.47166 9.75227 1.47736 9.43072 1.57491 9.13155C1.66878 8.83622 1.8497 8.57614 2.09395 8.38542C2.3382 8.19471 2.63438 8.08225 2.94366 8.0628L8.47491 7.70655C8.48308 7.70556 8.49085 7.70245 8.49743 7.69751C8.50401 7.69257 8.50918 7.68599 8.51241 7.67842L10.5749 2.4753C10.6862 2.18782 10.8819 1.94074 11.1362 1.7665C11.3906 1.59226 11.6916 1.49902 11.9999 1.49902C12.3082 1.49902 12.6093 1.59226 12.8636 1.7665C13.1179 1.94074 13.3136 2.18782 13.4249 2.4753L15.4874 7.67842C15.4906 7.68599 15.4958 7.69257 15.5024 7.69751C15.509 7.70245 15.5167 7.70556 15.5249 7.70655L21.0562 8.0628C21.3654 8.08225 21.6616 8.19471 21.9059 8.38542C22.1501 8.57614 22.331 8.83622 22.4249 9.13155C22.5225 9.43072 22.5282 9.75227 22.4413 10.0547C22.3544 10.3572 22.1789 10.6266 21.9374 10.8284L17.6999 14.3534C17.6903 14.363 17.6834 14.3751 17.6801 14.3883C17.6768 14.4015 17.6772 14.4154 17.6812 14.4284L19.0405 19.8003C19.1212 20.1042 19.108 20.4254 19.0026 20.7216C18.8971 21.0178 18.7045 21.2751 18.4499 21.4597C18.1894 21.6446 17.8788 21.746 17.5593 21.7503ZM11.9999 17.0159C12.2887 17.0139 12.5719 17.0953 12.8155 17.2503L17.5405 20.2409H17.5593C17.5713 20.2347 17.5812 20.2249 17.5874 20.2128C17.5968 20.2034 17.5968 20.194 17.5874 20.1565L16.228 14.7847C16.1543 14.4983 16.1627 14.1969 16.2522 13.9151C16.3417 13.6332 16.5088 13.3823 16.7343 13.1909L20.9812 9.66592C20.9905 9.65655 21.0093 9.6378 20.9905 9.59092C20.9718 9.54405 20.9718 9.55342 20.9624 9.55342L15.4218 9.19717C15.1318 9.17626 14.8537 9.07356 14.6197 8.90099C14.3858 8.72841 14.2055 8.49304 14.0999 8.22217L12.028 3.02842C12.0187 3.0003 12.0093 3.0003 11.9999 3.0003C11.9905 3.0003 11.9812 3.0003 11.9718 3.02842L9.89991 8.23155C9.7943 8.50241 9.61406 8.73779 9.38009 8.91036C9.14612 9.08293 8.86801 9.18563 8.57804 9.20655L3.03741 9.5628C3.02804 9.5628 3.01866 9.5628 3.00929 9.6003C2.99991 9.6378 3.00929 9.66592 3.01866 9.6753L7.26554 13.2003C7.49104 13.3916 7.65811 13.6426 7.74764 13.9244C7.83717 14.2063 7.84554 14.5077 7.77179 14.794L6.50616 19.7815C6.49484 19.826 6.4968 19.8727 6.5118 19.9161C6.5268 19.9594 6.55417 19.9974 6.59054 20.0253C6.61669 20.0504 6.65103 20.0651 6.68722 20.0669C6.72341 20.0686 6.759 20.0571 6.78741 20.0347L11.1843 17.2503C11.4279 17.0953 11.7111 17.0139 11.9999 17.0159Z" fill="#575555"/>
</svg>
