<svg width="24" height="24" viewBox="0 0 24 24" fill="none" xmlns="http://www.w3.org/2000/svg">
<path d="M21.9374 10.8281L17.6999 14.3531L19.0405 19.8C19.1022 20.0283 19.1106 20.2677 19.0653 20.4998C19.0199 20.7319 18.922 20.9505 18.7789 21.1389C18.6359 21.3272 18.4515 21.4802 18.2401 21.5861C18.0287 21.6921 17.7958 21.7481 17.5593 21.75C17.2697 21.7487 16.9865 21.6641 16.7437 21.5062L12.0093 18.5156H11.9905L7.59366 21.3C7.30963 21.4792 6.97858 21.5696 6.64289 21.5596C6.30719 21.5495 5.98213 21.4396 5.70929 21.2438C5.4282 21.0386 5.2153 20.7537 5.09826 20.426C4.98123 20.0983 4.96547 19.743 5.05304 19.4062L6.31866 14.4281L2.06241 10.8281C1.82094 10.6263 1.64544 10.3569 1.55855 10.0544C1.47166 9.75197 1.47736 9.43043 1.57491 9.13125C1.66991 8.83659 1.85114 8.57722 2.09516 8.38668C2.33918 8.19614 2.63476 8.08321 2.94366 8.0625L8.47491 7.70625L10.5749 2.475C10.6875 2.1885 10.8836 1.94241 11.1376 1.76858C11.3917 1.59475 11.6921 1.50118 11.9999 1.5C12.3077 1.50118 12.6081 1.59475 12.8622 1.76858C13.1163 1.94241 13.3123 2.1885 13.4249 2.475L15.4874 7.67813L21.0562 8.0625C21.3654 8.08195 21.6616 8.19441 21.9059 8.38513C22.1501 8.57585 22.331 8.83592 22.4249 9.13125C22.5225 9.43043 22.5282 9.75197 22.4413 10.0544C22.3544 10.3569 22.1789 10.6263 21.9374 10.8281Z" fill="#575555"/>
</svg>
