<svg xmlns="http://www.w3.org/2000/svg" width="122" height="122" viewBox="0 0 122 122">
  <defs>
    <style>
      .cls-1 {
        fill: none;
      }

      .cls-2 {
        fill: #606060;
      }
    </style>
  </defs>
  <g id="휴지통" transform="translate(-324 -1534)">
    <rect id="사각형_3142" data-name="사각형 3142" class="cls-1" width="122" height="122" transform="translate(324 1534)"/>
    <path id="휴지통-2" data-name="휴지통" class="cls-2" d="M-51.328-101l-2.609,49.424a3.413,3.413,0,0,1-3.413,3.237h-43.337a3.413,3.413,0,0,1-3.413-3.237L-106.709-101a3.418,3.418,0,0,1,3.237-3.594,3.418,3.418,0,0,1,3.594,3.237l2.439,46.187h36.846l2.439-46.187a3.418,3.418,0,0,1,3.594-3.237A3.418,3.418,0,0,1-51.322-101Zm9.065-11.446a3.418,3.418,0,0,1-3.418,3.418H-112.35a3.418,3.418,0,0,1-3.418-3.418,3.418,3.418,0,0,1,3.418-3.418h18.8v-7.693a2.458,2.458,0,0,1,2.328-2.58,2.59,2.59,0,0,1,.428.018h23.554A2.456,2.456,0,0,1-64.5-123.98a2.635,2.635,0,0,1,.018.428v7.693h18.8A3.417,3.417,0,0,1-42.263-112.441Zm-45.3-3.418h17.092v-4.275H-87.564ZM-86.134-60.3h.07a3.128,3.128,0,0,0,2.932-3.243L-84-100.485a3.017,3.017,0,0,0-3.061-2.967,2.973,2.973,0,0,0-2.932,3.014v.023l.868,37.034a3.146,3.146,0,0,0,2.99,3.084Zm14.072,0a3.056,3.056,0,0,0,2.99-3l.868-36.905a3.011,3.011,0,0,0-2.932-3.084h0a2.988,2.988,0,0,0-3.061,2.9v.035l-.868,36.94a3.035,3.035,0,0,0,2.932,3.137Z" transform="translate(463.668 1681.912)"/>
  </g>
</svg>
