<svg
    width="122" height="122" viewBox="0 0 13 13" fill="none" xmlns="http://www.w3.org/2000/svg">
    <path d="M10.5203 10.4266C11.5743 9.37268 12.1663 7.94326 12.1663 6.4528C12.1663 4.96234 11.5743 3.53292 10.5203 2.47901C9.46642 1.42509 8.03701 0.833008 6.54654 0.833008C5.05608 0.833008 3.62667 1.42509 2.57275 2.47901C2.55322 2.48993 2.53562 2.50401 2.52067 2.52067L2.47901 2.57275C1.42509 3.62667 0.833008 5.05608 0.833008 6.54654C0.833008 8.03701 1.42509 9.46642 2.47901 10.5203C3.53292 11.5743 4.96234 12.1663 6.4528 12.1663C7.94326 12.1663 9.37268 11.5743 10.4266 10.5203L10.4787 10.4787L10.5203 10.4266ZM10.8745 6.49967C10.8756 7.44484 10.5684 8.36458 9.99953 9.11935L3.87999 2.99461C4.53033 2.50837 5.30316 2.21272 6.11198 2.14076C6.92079 2.0688 7.73368 2.22336 8.45964 2.58716C9.18561 2.95095 9.796 3.50961 10.2225 4.20061C10.649 4.8916 10.8747 5.68766 10.8745 6.49967ZM2.12485 6.49967C2.12257 5.55432 2.42988 4.63422 2.99982 3.87999L9.11935 9.99953C8.36512 10.5695 7.44502 10.8768 6.49967 10.8745C5.33982 10.8731 4.22787 10.4118 3.40773 9.59161C2.58759 8.77147 2.12623 7.65952 2.12485 6.49967V6.49967Z" fill="#606060"/>
</svg>
