<svg xmlns="http://www.w3.org/2000/svg" width="122" height="122" viewBox="0 0 122 122">
  <defs>
    <style>
      .cls-1 {
        fill: none;
      }

      .cls-2 {
        fill: #ffffff;
      }
    </style>
  </defs>
  <g id="그룹_10249" data-name="그룹 10249" transform="translate(-1423 -726)">
    <rect id="사각형_3126" data-name="사각형 3126" class="cls-1" width="122" height="122" transform="translate(1423 726)"/>
    <g id="그룹_10248" data-name="그룹 10248" transform="translate(1440.455 744.361)">
      <path id="패스_2535" data-name="패스 2535" class="cls-2" d="M43.657,5.639A37.651,37.651,0,0,0,6.12,43.224c.95,25.6,20.118,37.265,37.519,37.265h.006c17.413,0,36.587-11.665,37.555-37.3A37.653,37.653,0,0,0,43.657,5.639ZM75.089,43.188A31.429,31.429,0,1,1,43.657,11.75,31.517,31.517,0,0,1,75.089,43.188Z" transform="translate(0.426 0)"/>
      <path id="패스_2536" data-name="패스 2536" class="cls-2" d="M48.168,9.6a2.668,2.668,0,0,0-3.454,1.724L40.868,22.948H35.956L32.11,11.316a2.671,2.671,0,0,0-1.378-1.555A2.757,2.757,0,0,0,28.643,9.6a2.725,2.725,0,0,0-1.776,1.724L23.014,22.948H18.108L14.244,11.287A2.779,2.779,0,0,0,10.7,9.7a2.651,2.651,0,0,0-1.692,3.261l3.3,9.96h-.752a2.753,2.753,0,0,0-1.9.888,2.571,2.571,0,0,0-.692,1.935,2.727,2.727,0,0,0,2.643,2.525h2.456L17.91,39.9a2.73,2.73,0,0,0,1.372,1.561,2.8,2.8,0,0,0,2.107.158,2.707,2.707,0,0,0,1.764-1.724l3.853-11.62h4.912L35.764,39.9a2.709,2.709,0,0,0,1.372,1.561,2.822,2.822,0,0,0,1.252.286,2.623,2.623,0,0,0,.849-.129,2.716,2.716,0,0,0,1.77-1.724l3.859-11.62,2.5-.006a2.745,2.745,0,0,0,1.9-.894,2.592,2.592,0,0,0,.7-1.935,2.728,2.728,0,0,0-2.649-2.519h-.68l3.3-9.954A2.7,2.7,0,0,0,48.168,9.6ZM39.086,28.29l-.68,2.063L37.72,28.29Zm-8.921-5.354h-1.36l.68-2.069ZM21.244,28.29l-.686,2.063-.68-2.063Z" transform="translate(14.641 18.303)"/>
    </g>
  </g>
</svg>
