<svg width="24" height="24" viewBox="0 0 24 24" fill="none" xmlns="http://www.w3.org/2000/svg">
<g clip-path="url(#clip0_1218_10690)">
<path d="M23.9999 12.7495C23.9999 12.9484 23.9209 13.1392 23.7803 13.2799C23.6396 13.4205 23.4488 13.4995 23.2499 13.4995H21.7499V14.9995C21.7499 15.1984 21.6709 15.3892 21.5303 15.5299C21.3896 15.6705 21.1988 15.7495 20.9999 15.7495C20.801 15.7495 20.6102 15.6705 20.4696 15.5299C20.3289 15.3892 20.2499 15.1984 20.2499 14.9995V13.4995H18.7499C18.551 13.4995 18.3602 13.4205 18.2196 13.2799C18.0789 13.1392 17.9999 12.9484 17.9999 12.7495C17.9999 12.5506 18.0789 12.3599 18.2196 12.2192C18.3602 12.0786 18.551 11.9995 18.7499 11.9995H20.2499V10.4995C20.2499 10.3006 20.3289 10.1099 20.4696 9.96921C20.6102 9.82855 20.801 9.74954 20.9999 9.74954C21.1988 9.74954 21.3896 9.82855 21.5303 9.96921C21.6709 10.1099 21.7499 10.3006 21.7499 10.4995V11.9995H23.2499C23.4488 11.9995 23.6396 12.0786 23.7803 12.2192C23.9209 12.3599 23.9999 12.5506 23.9999 12.7495ZM18.7405 18.2714C18.8039 18.3462 18.8518 18.4329 18.8815 18.5264C18.9111 18.6199 18.9219 18.7183 18.9131 18.816C18.9044 18.9137 18.8764 19.0087 18.8307 19.0954C18.7849 19.1822 18.7224 19.259 18.6468 19.3214C18.5725 19.386 18.486 19.435 18.3923 19.4653C18.2987 19.4957 18.1999 19.5068 18.1018 19.498C18.0038 19.4893 17.9085 19.4608 17.8217 19.4144C17.735 19.3679 17.6584 19.3044 17.5968 19.2277C16.6798 18.1389 15.536 17.2637 14.2453 16.6632C12.9547 16.0628 11.5484 15.7517 10.1249 15.7517C8.70145 15.7517 7.29517 16.0628 6.00451 16.6632C4.71386 17.2637 3.57002 18.1389 2.65305 19.2277C2.51975 19.3553 2.34405 19.4294 2.15958 19.4356C1.97511 19.4418 1.79482 19.3798 1.65321 19.2614C1.51161 19.143 1.41863 18.9766 1.39208 18.7939C1.36553 18.6113 1.40726 18.4252 1.5093 18.2714C2.87924 16.6256 4.696 15.4112 6.74055 14.7745C5.56794 14.04 4.66617 12.9438 4.1714 11.6516C3.67663 10.3594 3.61572 8.94128 3.99788 7.6114C4.38003 6.28153 5.18449 5.11209 6.2898 4.27968C7.3951 3.44727 8.74123 2.99707 10.1249 2.99707C11.5086 2.99707 12.8547 3.44727 13.96 4.27968C15.0653 5.11209 15.8698 6.28153 16.252 7.6114C16.6341 8.94128 16.5732 10.3594 16.0784 11.6516C15.5837 12.9438 14.6819 14.04 13.5093 14.7745C15.5538 15.4112 17.3706 16.6256 18.7405 18.2714ZM10.1249 14.2495C11.0891 14.2495 12.0316 13.9636 12.8333 13.4279C13.635 12.8923 14.2599 12.1309 14.6288 11.2401C14.9978 10.3493 15.0944 9.36913 14.9062 8.42347C14.7181 7.47781 14.2538 6.60917 13.5721 5.92739C12.8903 5.24561 12.0216 4.78131 11.076 4.59321C10.1303 4.4051 9.15013 4.50165 8.25934 4.87062C7.36855 5.2396 6.60718 5.86444 6.07151 6.66613C5.53584 7.46782 5.24992 8.41035 5.24992 9.37454C5.24992 10.6675 5.76354 11.9074 6.67778 12.8217C7.59202 13.7359 8.83199 14.2495 10.1249 14.2495Z" fill="#575555"/>
</g>
<defs>
<clipPath id="clip0_1218_10690">
<rect width="24" height="24" fill="white"/>
</clipPath>
</defs>
</svg>
