<svg width="35" height="35" viewBox="0 0 35 35" fill="none" xmlns="http://www.w3.org/2000/svg">
    <path fill-rule="evenodd" clip-rule="evenodd"
        d="M13.0442 4.47137C14.1694 3.34615 15.6955 2.71401 17.2868 2.71401C18.8781 2.71401 20.4043 3.34615 21.5295 4.47137C22.6547 5.59658 23.2868 7.12271 23.2868 8.71401C23.2868 10.3053 22.6547 11.8314 21.5295 12.9566C20.4043 14.0819 18.8781 14.714 17.2868 14.714C15.6955 14.714 14.1694 14.0819 13.0442 12.9566C11.919 11.8314 11.2868 10.3053 11.2868 8.71401C11.2868 7.12271 11.919 5.59658 13.0442 4.47137ZM14.9797 16.9691C13.573 16.5759 12.277 15.826 11.2259 14.7749C9.61846 13.1675 8.7154 10.9873 8.7154 8.71401C8.7154 6.44072 9.61846 4.26055 11.2259 2.65309C12.8334 1.04564 15.0135 0.142578 17.2868 0.142578C19.5601 0.142578 21.7403 1.04564 23.3477 2.65309C24.9552 4.26055 25.8583 6.44072 25.8583 8.71401C25.8583 10.9873 24.9552 13.1675 23.3477 14.7749C22.2967 15.826 21.0007 16.5759 19.594 16.9691C18.8493 17.1773 18.0737 17.2854 17.2868 17.2854C16.5 17.2854 15.7243 17.1773 14.9797 16.9691ZM14.7951 19.5747C6.98504 20.4857 0.143974 25.4895 0.143974 30.1426C0.143974 34.4283 17.2868 34.4283 17.2868 34.4283C17.2868 34.4283 34.4297 34.4283 34.4297 30.1426C34.4297 25.4895 27.5886 20.4857 19.7786 19.5747C18.9565 19.4788 18.1236 19.4283 17.2868 19.4283C16.4501 19.4283 15.6172 19.4788 14.7951 19.5747ZM2.7503 29.751C2.96175 28.5116 4.15201 26.7183 6.80483 25.024C9.59693 23.2408 13.4053 21.9997 17.2868 21.9997C21.1683 21.9997 24.9767 23.2408 27.7688 25.024C30.4217 26.7183 31.6119 28.5116 31.8234 29.751C31.633 29.8732 31.3215 30.0351 30.8482 30.2126C29.5284 30.7075 27.6255 31.0802 25.5393 31.341C23.4918 31.5969 21.4253 31.7268 19.8584 31.7921C19.0782 31.8246 18.4291 31.8408 17.9775 31.8489C17.7519 31.8529 17.5759 31.8549 17.4579 31.8559L17.3256 31.8568L17.2942 31.8569L17.2874 31.8569L17.2795 31.8569L17.248 31.8568L17.1157 31.8559C16.9978 31.8549 16.8218 31.8529 16.5961 31.8489C16.1445 31.8408 15.4955 31.8246 14.7153 31.7921C13.1484 31.7268 11.0819 31.5969 9.03435 31.341C6.9482 31.0802 5.0453 30.7075 3.72544 30.2126C3.25217 30.0351 2.94068 29.8732 2.7503 29.751Z"
        fill="white" />
</svg>
