<svg xmlns="http://www.w3.org/2000/svg" width="122" height="122" viewBox="0 0 122 122">
  <defs>
    <style>
      .cls-1 {
        fill: none;
      }

      .cls-2 {
        fill: #212121;
      }
    </style>
  </defs>
  <g id="경고" transform="translate(-331 -1295)">
    <rect id="사각형_3135" data-name="사각형 3135" class="cls-1" width="122" height="122" transform="translate(331 1295)"/>
    <path id="경고-2" data-name="경고" class="cls-2" d="M-29.852-109.084h-80.913a3.852,3.852,0,0,1-3.858-3.84,3.844,3.844,0,0,1,.51-1.92l40.452-71.278a3.852,3.852,0,0,1,5.259-1.436,3.836,3.836,0,0,1,1.444,1.436l40.452,71.278a3.863,3.863,0,0,1-1.453,5.259A3.828,3.828,0,0,1-29.852-109.084Zm-74.3-7.706h67.68L-70.3-176.409Zm37.693-23.033v-17.921a3.854,3.854,0,0,0-3.858-3.849,3.846,3.846,0,0,0-3.849,3.849v17.921a3.854,3.854,0,0,0,3.849,3.858A3.861,3.861,0,0,0-66.456-139.823Zm-.441,16a4.834,4.834,0,0,0,.009-6.833,4.826,4.826,0,0,0-6.833-.017,4.836,4.836,0,0,0-.017,6.841,4.857,4.857,0,0,0,3.434,1.418,4.86,4.86,0,0,0,3.416-1.41Z" transform="translate(462.623 1504.611)"/>
  </g>
</svg>
