<svg xmlns="http://www.w3.org/2000/svg" xmlns:xlink="http://www.w3.org/1999/xlink" width="122" height="122" viewBox="0 0 122 122">
  <defs>
    <style>
      .cls-1 {
        fill: #e34a5e;
      }

      .cls-2 {
        fill: none;
      }

      .cls-3 {
        clip-path: url(#clip-path);
      }

      .cls-4 {
        fill: #fff;
      }

      .cls-5 {
        clip-path: url(#clip-path-2);
      }
    </style>
    <clipPath id="clip-path">
      <rect id="사각형_3913" data-name="사각형 3913" class="cls-1" width="77.143" height="105.848"/>
    </clipPath>
    <clipPath id="clip-path-2">
      <rect id="사각형_2816" data-name="사각형 2816" class="cls-2" width="37.734" height="44.494"/>
    </clipPath>
  </defs>
  <g id="웹_드래그앤드롭" data-name="웹 드래그앤드롭" transform="translate(-52 -128)">
    <g id="그룹_13135" data-name="그룹 13135" transform="translate(-484 -909)">
      <rect id="사각형_3092" data-name="사각형 3092" class="cls-2" width="122" height="122" transform="translate(536 1037)"/>
    </g>
    <g id="그룹_12697" data-name="그룹 12697" transform="translate(70 132)">
      <g id="그룹_12696" data-name="그룹 12696" transform="translate(0 0)">
        <g id="그룹_12695" data-name="그룹 12695" transform="translate(0 0)">
          <g id="그룹_12694" data-name="그룹 12694" class="cls-3" transform="translate(0 0)">
            <path id="패스_2558" data-name="패스 2558" class="cls-1" d="M232.586,134.258H210.7a2.192,2.192,0,0,1-2.188-2.188V110.188A2.19,2.19,0,0,0,206.328,108H162.565A6.573,6.573,0,0,0,156,114.565v91.9a6.573,6.573,0,0,0,6.565,6.564H228.21a6.573,6.573,0,0,0,6.564-6.564V136.446a2.19,2.19,0,0,0-2.188-2.188Zm-2.188,72.21a2.192,2.192,0,0,1-2.188,2.188H162.565a2.192,2.192,0,0,1-2.188-2.188v-91.9a2.192,2.192,0,0,1,2.188-2.188H204.14V132.07a6.573,6.573,0,0,0,6.565,6.565H230.4Zm0,0" transform="translate(-157.113 -107.673)"/>
            <path id="패스_2559" data-name="패스 2559" class="cls-1" d="M361.988,134.909,335.73,108.651a2.188,2.188,0,0,0-3.094,3.094L358.894,138a2.188,2.188,0,1,0,3.094-3.094Zm0,0" transform="translate(-284.969 -107.68)"/>
          </g>
        </g>
      </g>
      <g id="그룹_8233" data-name="그룹 8233" transform="translate(48.35 70.131)">
        <g id="그룹_5083" data-name="그룹 5083">
          <g id="그룹_5506" data-name="그룹 5506">
            <path id="패스_1905" data-name="패스 1905" class="cls-4" d="M10.389,24.726,7.712,22.157,5.724,20.476,3.481,19.24H1.408s-.344,1.506,0,1.946a35.679,35.679,0,0,1,1.555,3.54l2.762,5.4,3.713,4.246,1.64,4.25,2.073,2.212H30.939L33.79,28.266a10.764,10.764,0,0,0,0-2.39c-.174-.444-.433-3.718-.433-3.718l.952-3.98L33.357,14.9s-1.814-.353-2.417-.444S29.385,17.2,29.385,17.2l-1.075-1.6-.476-2.118a2.575,2.575,0,0,0-1.644-.531,17.14,17.14,0,0,0-2.328.531s-1.3-1.324-1.555-1.5-2.417-1.328-2.417-1.328l-2.162.8-1.81-4.071-.607-5.312-2.158-.44-1.64,2.83-.433,19.559Z" transform="translate(1.23 0.644)"/>
            <g id="그룹_5082" data-name="그룹 5082" class="cls-5">
              <path id="패스_640" data-name="패스 640" d="M892.135,434.708a4.441,4.441,0,0,0-1.769.367,4.491,4.491,0,0,0-4.168-2.85,4.442,4.442,0,0,0-1.959.454,4.487,4.487,0,0,0-3.978-2.433,4.42,4.42,0,0,0-1.451.245v-4.973a4.486,4.486,0,1,0-8.972,0v17.894l-3.231-3.7c-.023-.026-.046-.051-.07-.075a4.5,4.5,0,0,0-3.18-1.325h-.023a4.438,4.438,0,0,0-3.163,1.3c-1.483,1.484-1.565,3.687-.224,6.044,1.735,3.05,3.622,5.925,5.287,8.463,1.216,1.854,2.365,3.605,3.205,5.053.729,1.256,2.663,5.332,2.682,5.373a1.517,1.517,0,0,0,1.371.868h19.183a1.518,1.518,0,0,0,1.445-1.052c.357-1.112,3.5-10.978,3.5-14.788V439.226a4.508,4.508,0,0,0-4.486-4.517Zm-1.451,4.517a1.451,1.451,0,1,1,2.9,0V449.58c0,2.532-1.946,9.338-3.02,12.805H873.453c-.63-1.309-1.808-3.733-2.386-4.728-.881-1.52-2.052-3.306-3.293-5.2-1.64-2.5-3.5-5.333-5.186-8.3-.441-.775-.845-1.82-.267-2.4a1.45,1.45,0,0,1,1.024-.416,1.486,1.486,0,0,1,1.018.408l5.851,6.693a1.517,1.517,0,0,0,2.659-1V425.517a1.452,1.452,0,1,1,2.9,0v14.165a1.517,1.517,0,0,0,3.035,0v-4.92a1.451,1.451,0,1,1,2.9,0v6.9a1.517,1.517,0,0,0,3.034,0v-4.919a1.452,1.452,0,1,1,2.9,0v6.9a1.517,1.517,0,0,0,3.034,0v-4.416Zm0,0" transform="translate(-859 -421)"/>
            </g>
          </g>
        </g>
      </g>
    </g>
  </g>
</svg>
