<svg
  xmlns="http://www.w3.org/2000/svg" width="25" height="25" viewBox="0 0 25 25"
>
  <g
    id="Group_12356" data-name="Group 12356"
    transform="translate(-877.891 -1430.238)"
  >
    <rect
      id="Rectangle_3889"
      data-name="Rectangle 3889"
      width="25" height="25"
      transform="translate(877.891 1430.238)"
      fill="none"
    />
    <path
      id="Path_381"
      data-name="Path 381"
      d="M2295.227,2698.713a.936.936,0,0,1-.934.9h-.041a.935.935,0,0,1-.895-.974c.1-2.408-.474-4.22-1.716-5.386a7.2,7.2,0,0,0-5.1-1.549.935.935,0,0,1-.205-1.859,9,9,0,0,1,6.578,2.031C2294.575,2693.426,2295.354,2695.727,2295.227,2698.713Zm-7.35-3.621a2.212,2.212,0,1,0,1.563.647A2.227,2.227,0,0,0,2287.877,2695.092Zm8.276-6.592c-3.9-3.611-9.589-2.975-9.83-2.947a.935.935,0,1,0,.224,1.857c.05-.006,5.063-.568,8.335,2.461,2.053,1.9,3.01,4.849,2.843,8.76a.935.935,0,0,0,.895.974h.04a.935.935,0,0,0,.934-.9C2299.786,2694.227,2298.628,2690.792,2296.153,2688.5Z"
      transform="translate(-1401.878 -1249.739)"
      fill="#212121"
    />
  </g>
</svg>
