<svg xmlns="http://www.w3.org/2000/svg" width="122" height="122" viewBox="0 0 122 122">
  <defs>
    <style>
      .cls-1 {
        fill: none;
      }

      .cls-2 {
        fill: #212121;
      }
    </style>
  </defs>
  <g id="수업" transform="translate(-635 -370)">
    <rect id="사각형_3090" data-name="사각형 3090" class="cls-1" width="122" height="122" transform="translate(635 370)"/>
    <path id="패스_2219" data-name="패스 2219" class="cls-2" d="M195.67,27.9h-4.122V17.763a13.135,13.135,0,0,0-13.12-13.12h-7.09a13.134,13.134,0,0,0-13.115,13.12V27.9H145.167V17.763a13.135,13.135,0,0,0-13.12-13.12h-7.085a13.135,13.135,0,0,0-13.12,13.12V27.9h-4.524A11.082,11.082,0,0,0,96.251,38.969v4.92a11.081,11.081,0,0,0,11.068,11.068h4.524v7.437a13.135,13.135,0,0,0,13.12,13.12h7.085a13.135,13.135,0,0,0,13.12-13.12V54.957h13.056v7.437a13.134,13.134,0,0,0,13.115,13.12h7.09a13.135,13.135,0,0,0,13.12-13.12V54.957h4.122a11.081,11.081,0,0,0,11.068-11.068v-4.92A11.082,11.082,0,0,0,195.67,27.9ZM107.319,49.215a5.334,5.334,0,0,1-5.326-5.326v-4.92a5.334,5.334,0,0,1,5.326-5.331h4.524V49.215Zm32.107,13.178a7.387,7.387,0,0,1-7.378,7.378h-7.085a7.387,7.387,0,0,1-7.378-7.378V17.763a7.387,7.387,0,0,1,7.378-7.378h7.085a7.387,7.387,0,0,1,7.378,7.378V62.394Zm5.741-13.178V33.638h13.056V49.215Zm40.64,13.178a7.387,7.387,0,0,1-7.378,7.378h-7.09a7.386,7.386,0,0,1-7.374-7.378V17.763a7.386,7.386,0,0,1,7.374-7.378h7.09a7.387,7.387,0,0,1,7.378,7.378V62.394ZM201,43.889a5.334,5.334,0,0,1-5.326,5.326h-4.122V33.638h4.122A5.334,5.334,0,0,1,201,38.969Z" transform="translate(544.749 391.357)"/>
  </g>
</svg>
