<svg
    class="d-flex align-items-center justify-content-center"
    [style.width]="width"
    [style.height]="width"
    [style.margin]="margin"
    [attr.fill] = "bgColor"
    viewBox="0 0 24 24"
    xmlns="http://www.w3.org/2000/svg"
>
    <path
        opacity="0.2"
        d="M20.4656 8.78429L18 11.2499L12.75 5.99992L15.2156 3.53429C15.2854 3.46343 15.3686 3.40715 15.4603 3.36874C15.5521 3.33033 15.6505 3.31055 15.75 3.31055C15.8495 3.31055 15.9479 3.33033 16.0397 3.36874C16.1314 3.40715 16.2146 3.46343 16.2844 3.53429L20.4656 7.71554C20.5365 7.78533 20.5928 7.86851 20.6312 7.96025C20.6696 8.052 20.6894 8.15046 20.6894 8.24992C20.6894 8.34938 20.6696 8.44784 20.6312 8.53958C20.5928 8.63132 20.5365 8.71451 20.4656 8.78429Z"
        [attr.fill]="color"
    />
    <path
        d="M21 7.19021L16.8094 2.99958C16.6708 2.85956 16.5058 2.7484 16.3239 2.67254C16.1421 2.59668 15.947 2.55762 15.75 2.55762C15.553 2.55762 15.3579 2.59668 15.1761 2.67254C14.9942 2.7484 14.8292 2.85956 14.6906 2.99958L3.44063 14.2496C3.30084 14.3883 3.18993 14.5533 3.1143 14.7352C3.03867 14.917 2.99983 15.112 3 15.309V19.4996C3 19.8974 3.15804 20.2789 3.43934 20.5602C3.72064 20.8415 4.10218 20.9996 4.5 20.9996H8.69063C8.88756 20.9998 9.08257 20.9609 9.26441 20.8853C9.44624 20.8097 9.61128 20.6987 9.75 20.559L21 9.30896C21.2783 9.02656 21.4342 8.64603 21.4342 8.24958C21.4342 7.85313 21.2783 7.4726 21 7.19021ZM4.80938 14.9996L12.75 7.05896L14.3156 8.62458L6.375 16.5652L4.80938 14.9996ZM4.5 16.809L7.19063 19.4996H4.5V16.809ZM9 19.1902L7.43438 17.6246L15.375 9.68396L16.9406 11.2496L9 19.1902ZM18 10.1902L13.8094 5.99958L15.75 4.05896L19.9406 8.24958L18 10.1902Z"
        [attr.fill]="color"
    />
</svg>
