<svg
    [style.width]="width"
    [style.height]="width"
    [style.margin]="margin"
    [attr.fill] = "bgColor"
    viewBox="0 0 24 24"
    xmlns="http://www.w3.org/2000/svg"
>
    <path
        opacity="0.2"
        d="M7.5 13.5C6.75832 13.5 6.0333 13.2801 5.41661 12.868C4.79993 12.456 4.31928 11.8703 4.03545 11.1851C3.75162 10.4998 3.67736 9.74584 3.82206 9.01841C3.96675 8.29098 4.3239 7.6228 4.84835 7.09835C5.3728 6.5739 6.04098 6.21675 6.76841 6.07206C7.49584 5.92736 8.24984 6.00162 8.93506 6.28545C9.62029 6.56928 10.206 7.04993 10.618 7.66661C11.0301 8.2833 11.25 9.00832 11.25 9.75C11.25 10.7446 10.8549 11.6984 10.1517 12.4017C9.44839 13.1049 8.49456 13.5 7.5 13.5Z"
        [attr.fill]="color"
    />
    <path
        d="M13.4999 7.50002C13.4999 7.30111 13.5789 7.11035 13.7196 6.96969C13.8602 6.82904 14.051 6.75002 14.2499 6.75002H23.2499C23.4488 6.75002 23.6396 6.82904 23.7803 6.96969C23.9209 7.11035 23.9999 7.30111 23.9999 7.50002C23.9999 7.69894 23.9209 7.8897 23.7803 8.03035C23.6396 8.17101 23.4488 8.25002 23.2499 8.25002H14.2499C14.051 8.25002 13.8602 8.17101 13.7196 8.03035C13.5789 7.8897 13.4999 7.69894 13.4999 7.50002ZM23.2499 11.25H14.2499C14.051 11.25 13.8602 11.329 13.7196 11.4697C13.5789 11.6103 13.4999 11.8011 13.4999 12C13.4999 12.1989 13.5789 12.3897 13.7196 12.5304C13.8602 12.671 14.051 12.75 14.2499 12.75H23.2499C23.4488 12.75 23.6396 12.671 23.7803 12.5304C23.9209 12.3897 23.9999 12.1989 23.9999 12C23.9999 11.8011 23.9209 11.6103 23.7803 11.4697C23.6396 11.329 23.4488 11.25 23.2499 11.25ZM23.2499 15.75H16.4999C16.301 15.75 16.1102 15.829 15.9696 15.9697C15.8289 16.1103 15.7499 16.3011 15.7499 16.5C15.7499 16.6989 15.8289 16.8897 15.9696 17.0304C16.1102 17.171 16.301 17.25 16.4999 17.25H23.2499C23.4488 17.25 23.6396 17.171 23.7803 17.0304C23.9209 16.8897 23.9999 16.6989 23.9999 16.5C23.9999 16.3011 23.9209 16.1103 23.7803 15.9697C23.6396 15.829 23.4488 15.75 23.2499 15.75ZM14.0343 17.8125C14.0596 17.9073 14.0659 18.0062 14.0527 18.1035C14.0395 18.2007 14.007 18.2944 13.9573 18.379C13.9076 18.4636 13.8416 18.5375 13.763 18.5964C13.6845 18.6552 13.5951 18.6979 13.4999 18.7219L13.3124 18.75C13.1457 18.7495 12.9837 18.6942 12.8516 18.5925C12.7194 18.4909 12.6244 18.3486 12.5812 18.1875C12.2888 17.0624 11.6313 16.0661 10.7117 15.3549C9.79206 14.6437 8.66243 14.2579 7.49992 14.2579C6.33741 14.2579 5.20778 14.6437 4.28818 15.3549C3.36859 16.0661 2.71104 17.0624 2.41867 18.1875C2.39362 18.283 2.34994 18.3727 2.29016 18.4513C2.23037 18.5299 2.15566 18.5959 2.07029 18.6455C1.98493 18.6952 1.8906 18.7275 1.79272 18.7406C1.69484 18.7537 1.59534 18.7473 1.49992 18.7219C1.40476 18.6979 1.31532 18.6552 1.2368 18.5964C1.15828 18.5375 1.09224 18.4636 1.04252 18.379C0.992795 18.2944 0.960387 18.2007 0.947173 18.1035C0.93396 18.0062 0.940205 17.9073 0.965546 17.8125C1.21965 16.8252 1.69413 15.9082 2.35335 15.1304C3.01257 14.3527 3.83941 13.7344 4.7718 13.3219C4.02308 12.7511 3.47223 11.9599 3.1968 11.0597C2.92137 10.1594 2.93524 9.1954 3.23645 8.30342C3.53767 7.41145 4.11105 6.63641 4.87588 6.08743C5.64071 5.53844 6.55846 5.24316 7.49992 5.24316C8.44138 5.24316 9.35913 5.53844 10.124 6.08743C10.8888 6.63641 11.4622 7.41145 11.7634 8.30342C12.0646 9.1954 12.0785 10.1594 11.803 11.0597C11.5276 11.9599 10.9768 12.7511 10.228 13.3219C11.1604 13.7344 11.9873 14.3527 12.6465 15.1304C13.3057 15.9082 13.7802 16.8252 14.0343 17.8125ZM7.49992 12.75C8.09326 12.75 8.67328 12.5741 9.16663 12.2444C9.65998 11.9148 10.0445 11.4463 10.2716 10.8981C10.4986 10.3499 10.558 9.7467 10.4423 9.16475C10.3265 8.58281 10.0408 8.04826 9.62124 7.6287C9.20168 7.20914 8.66713 6.92342 8.08519 6.80767C7.50325 6.69191 6.90005 6.75132 6.35187 6.97838C5.80369 7.20545 5.33516 7.58997 5.00551 8.08331C4.67587 8.57666 4.49992 9.15668 4.49992 9.75002C4.50239 10.5449 4.81926 11.3065 5.38133 11.8686C5.94341 12.4307 6.70503 12.7476 7.49992 12.75Z"
        [attr.fill]="color"
    />
</svg>
