<svg width="24" height="24" viewBox="0 0 24 24" fill="none" xmlns="http://www.w3.org/2000/svg">
<path d="M19.125 8.25V18C19.125 18.2984 19.0065 18.5845 18.7955 18.7955C18.5845 19.0065 18.2984 19.125 18 19.125H8.25C7.95163 19.125 7.66548 19.0065 7.4545 18.7955C7.24352 18.5845 7.125 18.2984 7.125 18C7.125 17.7016 7.24352 17.4155 7.4545 17.2045C7.66548 16.9935 7.95163 16.875 8.25 16.875H15.2812L5.20312 6.79687C4.99178 6.58553 4.87305 6.29888 4.87305 6C4.87305 5.70111 4.99178 5.41447 5.20312 5.20312C5.41447 4.99178 5.70111 4.87305 6 4.87305C6.29888 4.87305 6.58553 4.99178 6.79687 5.20312L16.875 15.2812V8.25C16.875 7.95163 16.9935 7.66548 17.2045 7.4545C17.4155 7.24352 17.7016 7.125 18 7.125C18.2984 7.125 18.5845 7.24352 18.7955 7.4545C19.0065 7.66548 19.125 7.95163 19.125 8.25Z" fill="#575555"/>
</svg>
