<svg width="24" height="24" viewBox="0 0 24 24" fill="none" xmlns="http://www.w3.org/2000/svg">
<path d="M18.7969 18.7969C18.5846 19.0064 18.2983 19.1239 18 19.1239C17.7017 19.1239 17.4154 19.0064 17.2031 18.7969L7.125 8.71875V15.75C7.125 16.0484 7.00647 16.3345 6.7955 16.5455C6.58452 16.7565 6.29837 16.875 6 16.875C5.70163 16.875 5.41548 16.7565 5.2045 16.5455C4.99353 16.3345 4.875 16.0484 4.875 15.75V6C4.875 5.70163 4.99353 5.41548 5.2045 5.2045C5.41548 4.99353 5.70163 4.875 6 4.875H15.75C16.0484 4.875 16.3345 4.99353 16.5455 5.2045C16.7565 5.41548 16.875 5.70163 16.875 6C16.875 6.29837 16.7565 6.58452 16.5455 6.7955C16.3345 7.00647 16.0484 7.125 15.75 7.125H8.71875L18.7969 17.2031C18.9018 17.3076 18.985 17.4318 19.0418 17.5686C19.0985 17.7053 19.1278 17.8519 19.1278 18C19.1278 18.1481 19.0985 18.2947 19.0418 18.4314C18.985 18.5682 18.9018 18.6924 18.7969 18.7969Z" fill="#575555"/>
</svg>
