<svg width="24" height="24" viewBox="0 0 24 24" fill="none" xmlns="http://www.w3.org/2000/svg">
<path d="M18.7969 6.79687L8.71875 16.875H15.75C16.0484 16.875 16.3345 16.9935 16.5455 17.2045C16.7565 17.4155 16.875 17.7016 16.875 18C16.875 18.2984 16.7565 18.5845 16.5455 18.7955C16.3345 19.0065 16.0484 19.125 15.75 19.125H6C5.70163 19.125 5.41548 19.0065 5.2045 18.7955C4.99353 18.5845 4.875 18.2984 4.875 18V8.25C4.875 7.95163 4.99353 7.66548 5.2045 7.4545C5.41548 7.24352 5.70163 7.125 6 7.125C6.29837 7.125 6.58452 7.24352 6.7955 7.4545C7.00647 7.66548 7.125 7.95163 7.125 8.25V15.2812L17.2031 5.20312C17.4145 4.99178 17.7011 4.87305 18 4.87305C18.2989 4.87305 18.5855 4.99178 18.7969 5.20312C19.0082 5.41447 19.127 5.70111 19.127 6C19.127 6.29888 19.0082 6.58553 18.7969 6.79687Z" fill="#C96B12"/>
</svg>
