<svg width="24" height="24" viewBox="0 0 24 24" fill="none" xmlns="http://www.w3.org/2000/svg">
<path d="M19.1251 6V15.75C19.1251 16.0484 19.0065 16.3345 18.7956 16.5455C18.5846 16.7565 18.2984 16.875 18.0001 16.875C17.7017 16.875 17.4156 16.7565 17.2046 16.5455C16.9936 16.3345 16.8751 16.0484 16.8751 15.75V8.71875L6.79695 18.7969C6.58466 19.0064 6.29837 19.1239 6.00008 19.1239C5.70179 19.1239 5.4155 19.0064 5.2032 18.7969C5.09832 18.6924 5.01511 18.5682 4.95832 18.4314C4.90154 18.2947 4.87231 18.1481 4.87231 18C4.87231 17.8519 4.90154 17.7053 4.95832 17.5686C5.01511 17.4318 5.09832 17.3076 5.2032 17.2031L15.2813 7.125H8.25008C7.95171 7.125 7.66556 7.00647 7.45458 6.7955C7.2436 6.58452 7.12508 6.29837 7.12508 6C7.12508 5.70163 7.2436 5.41548 7.45458 5.2045C7.66556 4.99353 7.95171 4.875 8.25008 4.875H18.0001C18.2984 4.875 18.5846 4.99353 18.7956 5.2045C19.0065 5.41548 19.1251 5.70163 19.1251 6Z" fill="#575555"/>
</svg>
