<svg width="24" height="24" viewBox="0 0 24 24" fill="none" xmlns="http://www.w3.org/2000/svg">
<path d="M12 2.25C10.0716 2.25 8.18657 2.82183 6.58319 3.89317C4.97982 4.96451 3.73013 6.48726 2.99218 8.26884C2.25422 10.0504 2.06114 12.0108 2.43735 13.9021C2.81355 15.7934 3.74215 17.5307 5.10571 18.8943C6.46928 20.2579 8.20656 21.1865 10.0979 21.5627C11.9892 21.9389 13.9496 21.7458 15.7312 21.0078C17.5127 20.2699 19.0355 19.0202 20.1068 17.4168C21.1782 15.8134 21.75 13.9284 21.75 12C21.745 9.41566 20.7162 6.93859 18.8888 5.11118C17.0614 3.28378 14.5843 2.25496 12 2.25ZM12 20.25C10.3683 20.25 8.77326 19.7661 7.41655 18.8596C6.05984 17.9531 5.00242 16.6646 4.378 15.1571C3.75358 13.6496 3.5902 11.9908 3.90853 10.3905C4.22685 8.79016 5.01259 7.32015 6.16637 6.16637C7.32016 5.01259 8.79017 4.22685 10.3905 3.90852C11.9909 3.59019 13.6497 3.75357 15.1571 4.37799C16.6646 5.00242 17.9531 6.05984 18.8596 7.41655C19.7661 8.77325 20.25 10.3683 20.25 12C20.2475 14.1873 19.3775 16.2843 17.8309 17.8309C16.2843 19.3775 14.1873 20.2475 12 20.25ZM14.0063 9.17813L10.875 12L14.0063 14.8219C14.1529 14.9562 14.2402 15.1432 14.249 15.3419C14.2578 15.5405 14.1874 15.7345 14.0531 15.8812C13.9833 15.9585 13.8979 16.0201 13.8026 16.0621C13.7073 16.1041 13.6042 16.1255 13.5 16.125C13.3129 16.1232 13.1329 16.0532 12.9938 15.9281L9.24375 12.5531C9.16702 12.4829 9.10575 12.3974 9.06383 12.3022C9.02191 12.2069 9.00026 12.104 9.00026 12C9.00026 11.896 9.02191 11.7931 9.06383 11.6978C9.10575 11.6026 9.16702 11.5171 9.24375 11.4469L12.9938 8.07187C13.0659 8.00288 13.1512 7.94899 13.2445 7.91337C13.3378 7.87775 13.4372 7.86112 13.537 7.86446C13.6368 7.86779 13.735 7.89102 13.8257 7.93278C13.9164 7.97455 13.9978 8.03401 14.0652 8.10767C14.1327 8.18133 14.1847 8.26771 14.2183 8.36175C14.2519 8.45579 14.2663 8.55559 14.2608 8.6553C14.2554 8.75501 14.23 8.85261 14.1863 8.94239C14.1426 9.03217 14.0814 9.11232 14.0063 9.17813Z" fill="#575555"/>
</svg>
