<svg width="24" height="24" viewBox="0 0 24 24" fill="none" xmlns="http://www.w3.org/2000/svg">
<path opacity="0.2" d="M12 21C16.9706 21 21 16.9706 21 12C21 7.02944 16.9706 3 12 3C7.02944 3 3 7.02944 3 12C3 16.9706 7.02944 21 12 21Z" fill="#575555"/>
<path d="M12 2.25C10.0716 2.25 8.18657 2.82183 6.58319 3.89317C4.97982 4.96451 3.73013 6.48726 2.99218 8.26884C2.25422 10.0504 2.06114 12.0108 2.43735 13.9021C2.81355 15.7934 3.74215 17.5307 5.10571 18.8943C6.46928 20.2579 8.20656 21.1865 10.0979 21.5627C11.9892 21.9389 13.9496 21.7458 15.7312 21.0078C17.5127 20.2699 19.0355 19.0202 20.1068 17.4168C21.1782 15.8134 21.75 13.9284 21.75 12C21.745 9.41566 20.7162 6.93859 18.8888 5.11118C17.0614 3.28378 14.5843 2.25496 12 2.25ZM12 20.25C10.3683 20.25 8.77326 19.7661 7.41655 18.8596C6.05984 17.9531 5.00242 16.6646 4.378 15.1571C3.75358 13.6496 3.5902 11.9908 3.90853 10.3905C4.22685 8.79016 5.01259 7.32015 6.16637 6.16637C7.32016 5.01259 8.79017 4.22685 10.3905 3.90852C11.9909 3.59019 13.6497 3.75357 15.1571 4.37799C16.6646 5.00242 17.9531 6.05984 18.8596 7.41655C19.7661 8.77325 20.25 10.3683 20.25 12C20.2475 14.1873 19.3775 16.2843 17.8309 17.8309C16.2843 19.3775 14.1873 20.2475 12 20.25Z" fill="#575555"/>
<path d="M14.0531 8.1185C13.9188 7.97185 13.7318 7.88452 13.5331 7.87573C13.3345 7.86694 13.1405 7.93741 12.9937 8.07163L9.24373 11.4466C9.167 11.5169 9.10573 11.6024 9.06381 11.6976C9.02189 11.7928 9.00024 11.8957 9.00024 11.9998C9.00024 12.1038 9.02189 12.2067 9.06381 12.3019C9.10573 12.3972 9.167 12.4826 9.24373 12.5529L12.9937 15.9279C13.1329 16.0529 13.3129 16.1229 13.5 16.1248C13.6041 16.1253 13.7072 16.1039 13.8025 16.0619C13.8979 16.0199 13.9832 15.9582 14.0531 15.881C14.1873 15.7343 14.2578 15.5403 14.249 15.3416C14.2402 15.143 14.1529 14.9559 14.0062 14.8216L10.875 11.9998L14.0062 9.17788C14.1529 9.04359 14.2402 8.85655 14.249 8.65789C14.2578 8.45924 14.1873 8.26522 14.0531 8.1185Z" fill="#575555"/>
</svg>
