<svg width="24" height="24" viewBox="0 0 24 24" fill="none" xmlns="http://www.w3.org/2000/svg">
<path opacity="0.2" d="M5.25 4.5L12.75 12L5.25 19.5V4.5Z" fill="#575555"/>
<path d="M13.2844 11.4652L5.78438 3.96516C5.67594 3.86342 5.54091 3.79445 5.39491 3.76625C5.24891 3.73804 5.09791 3.75175 4.95938 3.80579C4.82288 3.86316 4.70641 3.95966 4.62467 4.08312C4.54292 4.20658 4.49954 4.35147 4.5 4.49954V19.4995C4.49954 19.6476 4.54292 19.7925 4.62467 19.916C4.70641 20.0394 4.82288 20.1359 4.95938 20.1933C5.05189 20.23 5.15047 20.2491 5.25 20.2495C5.44916 20.2487 5.64041 20.1715 5.78438 20.0339L13.2844 12.5339C13.4252 12.3917 13.5042 12.1997 13.5042 11.9995C13.5042 11.7994 13.4252 11.6074 13.2844 11.4652ZM6 17.6902V6.30891L11.6906 11.9995L6 17.6902Z" fill="#575555"/>
<path d="M20.7844 11.4654L13.2844 3.96535C13.1387 3.84575 12.9537 3.78464 12.7654 3.79388C12.5771 3.80313 12.399 3.88208 12.2657 4.01539C12.1324 4.14869 12.0535 4.3268 12.0442 4.51509C12.035 4.70338 12.0961 4.88838 12.2157 5.0341L19.1907 11.9997L12.2157 18.9654C12.0749 19.1075 11.9958 19.2996 11.9958 19.4997C11.9958 19.6999 12.0749 19.8919 12.2157 20.0341C12.359 20.1727 12.5507 20.2502 12.7501 20.2502C12.9495 20.2502 13.1411 20.1727 13.2844 20.0341L20.7844 12.5341C20.9253 12.3919 21.0043 12.1999 21.0043 11.9997C21.0043 11.7996 20.9253 11.6075 20.7844 11.4654Z" fill="#575555"/>
</svg>
