<svg width="24" height="24" viewBox="0 0 24 24" fill="none" xmlns="http://www.w3.org/2000/svg">
<path d="M18.8906 5.10982C17.9866 4.20332 16.9126 3.48409 15.7302 2.99335C14.5478 2.50261 13.2802 2.25 12 2.25C10.7197 2.25 9.45212 2.50261 8.2697 2.99335C7.08728 3.48409 6.01332 4.20332 5.10933 5.10982C4.20283 6.0138 3.4836 7.08777 2.99286 8.27019C2.50212 9.45261 2.24951 10.7202 2.24951 12.0004C2.24951 13.2807 2.50212 14.5483 2.99286 15.7307C3.4836 16.9131 4.20283 17.9871 5.10933 18.8911C6.01332 19.7976 7.08728 20.5168 8.2697 21.0076C9.45212 21.4983 10.7197 21.7509 12 21.7509C13.2802 21.7509 14.5478 21.4983 15.7302 21.0076C16.9126 20.5168 17.9866 19.7976 18.8906 18.8911C19.7971 17.9871 20.5163 16.9131 21.0071 15.7307C21.4978 14.5483 21.7504 13.2807 21.7504 12.0004C21.7504 10.7202 21.4978 9.45261 21.0071 8.27019C20.5163 7.08777 19.7971 6.0138 18.8906 5.10982ZM17.8312 17.8317C16.6777 18.9862 15.2077 19.7726 13.6072 20.0914C12.0066 20.4103 10.3475 20.2473 8.83962 19.6231C7.33173 18.9989 6.04286 17.9415 5.13604 16.5846C4.22922 15.2278 3.7452 13.6324 3.7452 12.0004C3.7452 10.3685 4.22922 8.77315 5.13604 7.41629C6.04286 6.05944 7.33173 5.00202 8.83962 4.3778C10.3475 3.75357 12.0066 3.59059 13.6072 3.90946C15.2077 4.22834 16.6777 5.01474 17.8312 6.1692C19.3746 7.71739 20.2413 9.81434 20.2413 12.0004C20.2413 14.1866 19.3746 16.2835 17.8312 17.8317ZM15.5343 15.2161C15.6752 15.3583 15.7542 15.5503 15.7542 15.7504C15.7542 15.9506 15.6752 16.1426 15.5343 16.2848C15.391 16.4234 15.1994 16.5009 15 16.5009C14.8005 16.5009 14.6089 16.4234 14.4656 16.2848L12 13.8098L9.53433 16.2848C9.38861 16.4044 9.20362 16.4655 9.01533 16.4563C8.82704 16.447 8.64892 16.3681 8.51562 16.2348C8.38232 16.1015 8.30336 15.9234 8.29412 15.7351C8.28487 15.5468 8.34599 15.3618 8.46559 15.2161L11.4656 12.2161C11.6078 12.0752 11.7998 11.9962 12 11.9962C12.2001 11.9962 12.3921 12.0752 12.5343 12.2161L15.5343 15.2161ZM15.5343 9.96607C15.6752 10.1083 15.7542 10.3003 15.7542 10.5004C15.7542 10.7006 15.6752 10.8926 15.5343 11.0348C15.391 11.1734 15.1994 11.2509 15 11.2509C14.8005 11.2509 14.6089 11.1734 14.4656 11.0348L12 8.55982L9.53433 11.0348C9.38861 11.1544 9.20362 11.2155 9.01533 11.2063C8.82704 11.197 8.64892 11.1181 8.51562 10.9848C8.38232 10.8515 8.30336 10.6734 8.29412 10.4851C8.28487 10.2968 8.34599 10.1118 8.46559 9.96607L11.4656 6.96607C11.6078 6.82524 11.7998 6.74623 12 6.74623C12.2001 6.74623 12.3921 6.82524 12.5343 6.96607L15.5343 9.96607Z" fill="#575555"/>
</svg>
