<svg width="24" height="24" viewBox="0 0 24 24" fill="none" xmlns="http://www.w3.org/2000/svg">
<path opacity="0.2" d="M19.5 4.5L12 12L4.5 4.5H19.5Z" fill="#575555"/>
<path d="M20.0343 11.4659C19.8922 11.3251 19.7001 11.2461 19.5 11.2461C19.2998 11.2461 19.1078 11.3251 18.9656 11.4659L12 18.4409L5.03435 11.4659C4.88862 11.3463 4.70363 11.2852 4.51534 11.2945C4.32705 11.3037 4.14893 11.3827 4.01563 11.516C3.88233 11.6493 3.80338 11.8274 3.79413 12.0157C3.78488 12.204 3.846 12.389 3.9656 12.5347L11.4656 20.0347C11.609 20.1733 11.8006 20.2508 12 20.2508C12.1994 20.2508 12.391 20.1733 12.5343 20.0347L20.0343 12.5347C20.1752 12.3925 20.2542 12.2004 20.2542 12.0003C20.2542 11.8002 20.1752 11.6081 20.0343 11.4659Z" fill="#575555"/>
<path d="M11.4657 12.5344C11.609 12.673 11.8006 12.7505 12 12.7505C12.1994 12.7505 12.391 12.673 12.5344 12.5344L20.0344 5.03438C20.1361 4.92594 20.2051 4.79091 20.2333 4.64491C20.2615 4.49891 20.2478 4.34791 20.1938 4.20938C20.1364 4.07288 20.0399 3.95641 19.9164 3.87467C19.793 3.79292 19.6481 3.74954 19.5 3.75H4.50002C4.35196 3.74954 4.20706 3.79292 4.08361 3.87467C3.96015 3.95641 3.86365 4.07288 3.80627 4.20938C3.75224 4.34791 3.73853 4.49891 3.76674 4.64491C3.79494 4.79091 3.86391 4.92594 3.96565 5.03438L11.4657 12.5344ZM17.6906 5.25L12 10.9406L6.3094 5.25H17.6906Z" fill="#575555"/>
</svg>
