<svg width="24" height="24" viewBox="0 0 24 24" fill="none" xmlns="http://www.w3.org/2000/svg">
<path opacity="0.2" d="M12 21C16.9706 21 21 16.9706 21 12C21 7.02944 16.9706 3 12 3C7.02944 3 3 7.02944 3 12C3 16.9706 7.02944 21 12 21Z" fill="#575555"/>
<path d="M18.8906 5.10982C17.9866 4.20332 16.9126 3.48409 15.7302 2.99335C14.5478 2.50261 13.2802 2.25 12 2.25C10.7197 2.25 9.45212 2.50261 8.2697 2.99335C7.08728 3.48409 6.01332 4.20332 5.10933 5.10982C4.20283 6.0138 3.4836 7.08777 2.99286 8.27019C2.50212 9.45261 2.24951 10.7202 2.24951 12.0004C2.24951 13.2807 2.50212 14.5483 2.99286 15.7307C3.4836 16.9131 4.20283 17.9871 5.10933 18.8911C6.01332 19.7976 7.08728 20.5168 8.2697 21.0076C9.45212 21.4983 10.7197 21.7509 12 21.7509C13.2802 21.7509 14.5478 21.4983 15.7302 21.0076C16.9126 20.5168 17.9866 19.7976 18.8906 18.8911C19.7971 17.9871 20.5163 16.9131 21.0071 15.7307C21.4978 14.5483 21.7504 13.2807 21.7504 12.0004C21.7504 10.7202 21.4978 9.45261 21.0071 8.27019C20.5163 7.08777 19.7971 6.0138 18.8906 5.10982ZM17.8312 17.8317C16.6777 18.9862 15.2077 19.7726 13.6072 20.0914C12.0066 20.4103 10.3475 20.2473 8.83962 19.6231C7.33173 18.9989 6.04286 17.9415 5.13604 16.5846C4.22922 15.2278 3.7452 13.6324 3.7452 12.0004C3.7452 10.3685 4.22922 8.77315 5.13604 7.41629C6.04286 6.05944 7.33173 5.00202 8.83962 4.3778C10.3475 3.75357 12.0066 3.59059 13.6072 3.90946C15.2077 4.22834 16.6777 5.01474 17.8312 6.1692C19.3746 7.71739 20.2413 9.81434 20.2413 12.0004C20.2413 14.1866 19.3746 16.2835 17.8312 17.8317Z" fill="#575555"/>
<path d="M14.4656 7.71535L12 10.1904L9.53435 7.71535C9.38862 7.59576 9.20363 7.53464 9.01534 7.54388C8.82705 7.55313 8.64893 7.63208 8.51563 7.76539C8.38233 7.89869 8.30338 8.0768 8.29413 8.26509C8.28488 8.45338 8.346 8.63838 8.4656 8.7841L11.4656 11.7841C11.609 11.9227 11.8006 12.0002 12 12.0002C12.1994 12.0002 12.391 11.9227 12.5343 11.7841L15.5343 8.7841C15.6539 8.63838 15.7151 8.45338 15.7058 8.26509C15.6966 8.0768 15.6176 7.89869 15.4843 7.76539C15.351 7.63208 15.1729 7.55313 14.9846 7.54388C14.7963 7.53464 14.6113 7.59576 14.4656 7.71535ZM14.4656 12.9654L12 15.4404L9.53435 12.9654C9.38862 12.8458 9.20363 12.7846 9.01534 12.7939C8.82705 12.8031 8.64893 12.8821 8.51563 13.0154C8.38233 13.1487 8.30338 13.3268 8.29413 13.5151C8.28488 13.7034 8.346 13.8884 8.4656 14.0341L11.4656 17.0341C11.609 17.1727 11.8006 17.2502 12 17.2502C12.1994 17.2502 12.391 17.1727 12.5343 17.0341L15.5343 14.0341C15.6539 13.8884 15.7151 13.7034 15.7058 13.5151C15.6966 13.3268 15.6176 13.1487 15.4843 13.0154C15.351 12.8821 15.1729 12.8031 14.9846 12.7939C14.7963 12.7846 14.6113 12.8458 14.4656 12.9654Z" fill="#575555"/>
</svg>
