<svg width="24" height="24" viewBox="0 0 24 24" fill="none" xmlns="http://www.w3.org/2000/svg">
<path opacity="0.2" d="M12 21C16.9706 21 21 16.9706 21 12C21 7.02944 16.9706 3 12 3C7.02944 3 3 7.02944 3 12C3 16.9706 7.02944 21 12 21Z" fill="#575555"/>
<path d="M12 2.25C10.0716 2.25 8.18657 2.82183 6.58319 3.89317C4.97982 4.96451 3.73013 6.48726 2.99218 8.26884C2.25422 10.0504 2.06114 12.0108 2.43735 13.9021C2.81355 15.7934 3.74215 17.5307 5.10571 18.8943C6.46928 20.2579 8.20656 21.1865 10.0979 21.5627C11.9892 21.9389 13.9496 21.7458 15.7312 21.0078C17.5127 20.2699 19.0355 19.0202 20.1068 17.4168C21.1782 15.8134 21.75 13.9284 21.75 12C21.745 9.41566 20.7162 6.93859 18.8888 5.11118C17.0614 3.28378 14.5843 2.25496 12 2.25ZM12 20.25C10.3683 20.25 8.77326 19.7661 7.41655 18.8596C6.05984 17.9531 5.00242 16.6646 4.378 15.1571C3.75358 13.6496 3.5902 11.9908 3.90853 10.3905C4.22685 8.79016 5.01259 7.32015 6.16637 6.16637C7.32016 5.01259 8.79017 4.22685 10.3905 3.90852C11.9909 3.59019 13.6497 3.75357 15.1571 4.37799C16.6646 5.00242 17.9531 6.05984 18.8596 7.41655C19.7661 8.77325 20.25 10.3683 20.25 12C20.2475 14.1873 19.3775 16.2843 17.8309 17.8309C16.2843 19.3775 14.1873 20.2475 12 20.25Z" fill="#575555"/>
<path d="M11.3812 8.07165C11.2338 7.94242 11.0415 7.87609 10.8457 7.88688C10.6499 7.89767 10.4661 7.98472 10.3337 8.12937C10.2013 8.27403 10.1308 8.46479 10.1374 8.66078C10.1439 8.85677 10.227 9.04241 10.3687 9.17791L13.5 11.9998L10.3687 14.8217C10.2221 14.9559 10.1348 15.143 10.126 15.3416C10.1172 15.5403 10.1876 15.7343 10.3219 15.881C10.3917 15.9583 10.4771 16.0199 10.5724 16.0619C10.6677 16.1039 10.7708 16.1253 10.875 16.1248C11.0621 16.1229 11.2421 16.0529 11.3812 15.9279L15.1312 12.5529C15.208 12.4826 15.2693 12.3972 15.3112 12.302C15.3531 12.2067 15.3747 12.1038 15.3747 11.9998C15.3747 11.8957 15.3531 11.7928 15.3112 11.6976C15.2693 11.6024 15.208 11.5169 15.1312 11.4467L11.3812 8.07165Z" fill="#575555"/>
</svg>
