<svg width="24" height="24" viewBox="0 0 24 24" fill="none" xmlns="http://www.w3.org/2000/svg">
<path opacity="0.2" d="M15 19.5L7.5 12L15 4.5V19.5Z" fill="#575555"/>
<path d="M15.0001 20.2495C14.8009 20.2487 14.6097 20.1715 14.4657 20.0339L6.96569 12.5339C6.82486 12.3917 6.74585 12.1997 6.74585 11.9995C6.74585 11.7994 6.82486 11.6074 6.96569 11.4652L14.4657 3.96516C14.5741 3.86342 14.7092 3.79445 14.8552 3.76625C15.0012 3.73804 15.1522 3.75175 15.2907 3.80579C15.4272 3.86316 15.5437 3.95966 15.6254 4.08312C15.7072 4.20658 15.7505 4.35147 15.7501 4.49954V19.4995C15.7505 19.6476 15.7072 19.7925 15.6254 19.916C15.5437 20.0394 15.4272 20.1359 15.2907 20.1933C15.1982 20.23 15.0996 20.2491 15.0001 20.2495ZM8.55944 11.9995L14.2501 17.6902V6.30891L8.55944 11.9995Z" fill="#575555"/>
</svg>
