<svg width="24" height="24" viewBox="0 0 24 24" fill="none" xmlns="http://www.w3.org/2000/svg">
<path opacity="0.2" d="M12 21C16.9706 21 21 16.9706 21 12C21 7.02944 16.9706 3 12 3C7.02944 3 3 7.02944 3 12C3 16.9706 7.02944 21 12 21Z" fill="#575555"/>
<path d="M18.8906 5.10982C17.9866 4.20332 16.9126 3.48409 15.7302 2.99335C14.5478 2.50261 13.2802 2.25 12 2.25C10.7197 2.25 9.45212 2.50261 8.2697 2.99335C7.08728 3.48409 6.01332 4.20332 5.10933 5.10982C4.20283 6.0138 3.4836 7.08777 2.99286 8.27019C2.50212 9.45261 2.24951 10.7202 2.24951 12.0004C2.24951 13.2807 2.50212 14.5483 2.99286 15.7307C3.4836 16.9131 4.20283 17.9871 5.10933 18.8911C6.01332 19.7976 7.08728 20.5168 8.2697 21.0076C9.45212 21.4983 10.7197 21.7509 12 21.7509C13.2802 21.7509 14.5478 21.4983 15.7302 21.0076C16.9126 20.5168 17.9866 19.7976 18.8906 18.8911C19.7971 17.9871 20.5163 16.9131 21.0071 15.7307C21.4978 14.5483 21.7504 13.2807 21.7504 12.0004C21.7504 10.7202 21.4978 9.45261 21.0071 8.27019C20.5163 7.08777 19.7971 6.0138 18.8906 5.10982ZM17.8312 17.8317C16.6777 18.9862 15.2077 19.7726 13.6072 20.0914C12.0066 20.4103 10.3475 20.2473 8.83962 19.6231C7.33173 18.9989 6.04286 17.9415 5.13604 16.5846C4.22922 15.2278 3.7452 13.6324 3.7452 12.0004C3.7452 10.3685 4.22922 8.77315 5.13604 7.41629C6.04286 6.05944 7.33173 5.00202 8.83962 4.3778C10.3475 3.75357 12.0066 3.59059 13.6072 3.90946C15.2077 4.22834 16.6777 5.01474 17.8312 6.1692C19.3746 7.71739 20.2413 9.81434 20.2413 12.0004C20.2413 14.1866 19.3746 16.2835 17.8312 17.8317Z" fill="#575555"/>
<path d="M8.78444 8.46535C8.63872 8.34576 8.45372 8.28464 8.26544 8.29388C8.07715 8.30313 7.89903 8.38208 7.76573 8.51539C7.63243 8.64869 7.55347 8.8268 7.54423 9.01509C7.53498 9.20338 7.5961 9.38838 7.71569 9.5341L10.1907 11.9997L7.71569 14.4654C7.57486 14.6075 7.49585 14.7996 7.49585 14.9997C7.49585 15.1999 7.57486 15.3919 7.71569 15.5341C7.85905 15.6727 8.05066 15.7502 8.25007 15.7502C8.44948 15.7502 8.64109 15.6727 8.78444 15.5341L11.7844 12.5341C11.9253 12.3919 12.0043 12.1999 12.0043 11.9997C12.0043 11.7996 11.9253 11.6075 11.7844 11.4654L8.78444 8.46535ZM14.0344 8.46535C13.8887 8.34576 13.7037 8.28464 13.5154 8.29388C13.3271 8.30313 13.149 8.38208 13.0157 8.51539C12.8824 8.64869 12.8035 8.8268 12.7942 9.01509C12.785 9.20338 12.8461 9.38838 12.9657 9.5341L15.4407 11.9997L12.9657 14.4654C12.8249 14.6075 12.7459 14.7996 12.7459 14.9997C12.7459 15.1999 12.8249 15.3919 12.9657 15.5341C13.109 15.6727 13.3007 15.7502 13.5001 15.7502C13.6995 15.7502 13.8911 15.6727 14.0344 15.5341L17.0344 12.5341C17.1753 12.3919 17.2543 12.1999 17.2543 11.9997C17.2543 11.7996 17.1753 11.6075 17.0344 11.4654L14.0344 8.46535Z" fill="#575555"/>
</svg>
