<svg width="24" height="24" viewBox="0 0 24 24" fill="none" xmlns="http://www.w3.org/2000/svg">
<path opacity="0.2" d="M9 4.5L16.5 12L9 19.5V4.5Z" fill="#575555"/>
<path d="M9 20.2495C8.90047 20.2491 8.80189 20.23 8.70938 20.1933C8.57288 20.1359 8.45641 20.0394 8.37467 19.916C8.29292 19.7925 8.24954 19.6476 8.25 19.4995V4.49954C8.24954 4.35147 8.29292 4.20658 8.37467 4.08312C8.45641 3.95966 8.57288 3.86316 8.70938 3.80579C8.84791 3.75175 8.99891 3.73804 9.14491 3.76625C9.29091 3.79445 9.42594 3.86342 9.53438 3.96516L17.0344 11.4652C17.1752 11.6074 17.2542 11.7994 17.2542 11.9995C17.2542 12.1997 17.1752 12.3917 17.0344 12.5339L9.53438 20.0339C9.39041 20.1715 9.19916 20.2487 9 20.2495ZM9.75 6.30891V17.6902L15.4406 11.9995L9.75 6.30891Z" fill="#575555"/>
</svg>
