<svg width="24" height="24" viewBox="0 0 24 24" fill="none" xmlns="http://www.w3.org/2000/svg">
<path opacity="0.2" d="M18.75 19.5L11.25 12L18.75 4.5V19.5Z" fill="#575555"/>
<path d="M19.0407 3.80579C18.9022 3.75175 18.7512 3.73804 18.6052 3.76625C18.4592 3.79445 18.3241 3.86342 18.2157 3.96516L10.7157 11.4652C10.5749 11.6074 10.4958 11.7994 10.4958 11.9995C10.4958 12.1997 10.5749 12.3917 10.7157 12.5339L18.2157 20.0339C18.3597 20.1715 18.5509 20.2487 18.7501 20.2495C18.8496 20.2491 18.9482 20.23 19.0407 20.1933C19.1772 20.1359 19.2937 20.0394 19.3754 19.916C19.4572 19.7925 19.5005 19.6476 19.5001 19.4995V4.49954C19.5005 4.35147 19.4572 4.20658 19.3754 4.08312C19.2937 3.95966 19.1772 3.86316 19.0407 3.80579ZM18.0001 17.6902L12.3094 11.9995L18.0001 6.30891V17.6902Z" fill="#575555"/>
<path d="M4.80944 11.9997L11.7844 5.0341C11.904 4.88838 11.9652 4.70338 11.9559 4.51509C11.9467 4.3268 11.8677 4.14869 11.7344 4.01539C11.6011 3.88208 11.423 3.80313 11.2347 3.79388C11.0464 3.78464 10.8614 3.84575 10.7157 3.96535L3.21569 11.4654C3.07486 11.6075 2.99585 11.7996 2.99585 11.9997C2.99585 12.1999 3.07486 12.3919 3.21569 12.5341L10.7157 20.0341C10.859 20.1727 11.0507 20.2502 11.2501 20.2502C11.4495 20.2502 11.6411 20.1727 11.7844 20.0341C11.9253 19.8919 12.0043 19.6999 12.0043 19.4997C12.0043 19.2996 11.9253 19.1075 11.7844 18.9654L4.80944 11.9997Z" fill="#575555"/>
</svg>
