<svg width="24" height="24" viewBox="0 0 24 24" fill="none" xmlns="http://www.w3.org/2000/svg">
<path d="M18.8906 5.10982C17.9866 4.20332 16.9126 3.48409 15.7302 2.99335C14.5478 2.50261 13.2802 2.25 12 2.25C10.7197 2.25 9.45212 2.50261 8.2697 2.99335C7.08728 3.48409 6.01332 4.20332 5.10933 5.10982C4.20283 6.0138 3.4836 7.08777 2.99286 8.27019C2.50212 9.45261 2.24951 10.7202 2.24951 12.0004C2.24951 13.2807 2.50212 14.5483 2.99286 15.7307C3.4836 16.9131 4.20283 17.9871 5.10933 18.8911C6.01332 19.7976 7.08728 20.5168 8.2697 21.0076C9.45212 21.4983 10.7197 21.7509 12 21.7509C13.2802 21.7509 14.5478 21.4983 15.7302 21.0076C16.9126 20.5168 17.9866 19.7976 18.8906 18.8911C19.7971 17.9871 20.5163 16.9131 21.0071 15.7307C21.4978 14.5483 21.7504 13.2807 21.7504 12.0004C21.7504 10.7202 21.4978 9.45261 21.0071 8.27019C20.5163 7.08777 19.7971 6.0138 18.8906 5.10982ZM17.8312 17.8317C16.6777 18.9862 15.2077 19.7726 13.6072 20.0914C12.0066 20.4103 10.3475 20.2473 8.83962 19.6231C7.33173 18.9989 6.04286 17.9415 5.13604 16.5846C4.22922 15.2278 3.7452 13.6324 3.7452 12.0004C3.7452 10.3685 4.22922 8.77315 5.13604 7.41629C6.04286 6.05944 7.33173 5.00202 8.83962 4.3778C10.3475 3.75357 12.0066 3.59059 13.6072 3.90946C15.2077 4.22834 16.6777 5.01474 17.8312 6.1692C19.3746 7.71739 20.2413 9.81434 20.2413 12.0004C20.2413 14.1866 19.3746 16.2835 17.8312 17.8317ZM15.5343 7.71607C15.6752 7.85827 15.7542 8.05031 15.7542 8.25045C15.7542 8.45058 15.6752 8.64263 15.5343 8.78482L12.5343 11.7848C12.391 11.9234 12.1994 12.0009 12 12.0009C11.8005 12.0009 11.6089 11.9234 11.4656 11.7848L8.46559 8.78482C8.34599 8.6391 8.28487 8.4541 8.29412 8.26581C8.30336 8.07753 8.38232 7.89941 8.51562 7.76611C8.64892 7.63281 8.82704 7.55385 9.01533 7.5446C9.20362 7.53536 9.38861 7.59648 9.53433 7.71607L12 10.1911L14.4656 7.71607C14.6078 7.57524 14.7998 7.49623 15 7.49623C15.2001 7.49623 15.3921 7.57524 15.5343 7.71607ZM15.5343 12.9661C15.6752 13.1083 15.7542 13.3003 15.7542 13.5004C15.7542 13.7006 15.6752 13.8926 15.5343 14.0348L12.5343 17.0348C12.391 17.1734 12.1994 17.2509 12 17.2509C11.8005 17.2509 11.6089 17.1734 11.4656 17.0348L8.46559 14.0348C8.34599 13.8891 8.28487 13.7041 8.29412 13.5158C8.30336 13.3275 8.38232 13.1494 8.51562 13.0161C8.64892 12.8828 8.82704 12.8039 9.01533 12.7946C9.20362 12.7854 9.38861 12.8465 9.53433 12.9661L12 15.4411L14.4656 12.9661C14.6078 12.8252 14.7998 12.7462 15 12.7462C15.2001 12.7462 15.3921 12.8252 15.5343 12.9661Z" fill="#575555"/>
</svg>
