<svg width="24" height="24" viewBox="0 0 24 24" fill="none" xmlns="http://www.w3.org/2000/svg">
<path opacity="0.2" d="M12 21C16.9706 21 21 16.9706 21 12C21 7.02944 16.9706 3 12 3C7.02944 3 3 7.02944 3 12C3 16.9706 7.02944 21 12 21Z" fill="#575555"/>
<path d="M18.8906 5.10982C17.9866 4.20332 16.9126 3.48409 15.7302 2.99335C14.5478 2.50261 13.2802 2.25 12 2.25C10.7197 2.25 9.45212 2.50261 8.2697 2.99335C7.08728 3.48409 6.01332 4.20332 5.10933 5.10982C4.20283 6.0138 3.4836 7.08777 2.99286 8.27019C2.50212 9.45261 2.24951 10.7202 2.24951 12.0004C2.24951 13.2807 2.50212 14.5483 2.99286 15.7307C3.4836 16.9131 4.20283 17.9871 5.10933 18.8911C6.01332 19.7976 7.08728 20.5168 8.2697 21.0076C9.45212 21.4983 10.7197 21.7509 12 21.7509C13.2802 21.7509 14.5478 21.4983 15.7302 21.0076C16.9126 20.5168 17.9866 19.7976 18.8906 18.8911C19.7971 17.9871 20.5163 16.9131 21.0071 15.7307C21.4978 14.5483 21.7504 13.2807 21.7504 12.0004C21.7504 10.7202 21.4978 9.45261 21.0071 8.27019C20.5163 7.08777 19.7971 6.0138 18.8906 5.10982ZM17.8312 17.8317C16.6777 18.9862 15.2077 19.7726 13.6072 20.0914C12.0066 20.4103 10.3475 20.2473 8.83962 19.6231C7.33173 18.9989 6.04286 17.9415 5.13604 16.5846C4.22922 15.2278 3.7452 13.6324 3.7452 12.0004C3.7452 10.3685 4.22922 8.77315 5.13604 7.41629C6.04286 6.05944 7.33173 5.00202 8.83962 4.3778C10.3475 3.75357 12.0066 3.59059 13.6072 3.90946C15.2077 4.22834 16.6777 5.01474 17.8312 6.1692C19.3746 7.71739 20.2413 9.81434 20.2413 12.0004C20.2413 14.1866 19.3746 16.2835 17.8312 17.8317Z" fill="#575555"/>
<path d="M12.5343 12.2159C12.3922 12.0751 12.2001 11.9961 12 11.9961C11.7998 11.9961 11.6078 12.0751 11.4656 12.2159L8.4656 15.2159C8.346 15.3617 8.28488 15.5467 8.29413 15.7349C8.30338 15.9232 8.38233 16.1014 8.51563 16.2347C8.64893 16.368 8.82705 16.4469 9.01534 16.4562C9.20363 16.4654 9.38862 16.4043 9.53435 16.2847L12 13.8097L14.4656 16.2847C14.609 16.4233 14.8006 16.5008 15 16.5008C15.1994 16.5008 15.391 16.4233 15.5343 16.2847C15.6752 16.1425 15.7542 15.9504 15.7542 15.7503C15.7542 15.5502 15.6752 15.3581 15.5343 15.2159L12.5343 12.2159ZM12.5343 6.96594C12.3922 6.8251 12.2001 6.74609 12 6.74609C11.7998 6.74609 11.6078 6.8251 11.4656 6.96594L8.4656 9.96594C8.346 10.1117 8.28488 10.2967 8.29413 10.4849C8.30338 10.6732 8.38233 10.8514 8.51563 10.9847C8.64893 11.118 8.82705 11.1969 9.01534 11.2062C9.20363 11.2154 9.38862 11.1543 9.53435 11.0347L12 8.55969L14.4656 11.0347C14.609 11.1733 14.8006 11.2508 15 11.2508C15.1994 11.2508 15.391 11.1733 15.5343 11.0347C15.6752 10.8925 15.7542 10.7004 15.7542 10.5003C15.7542 10.3002 15.6752 10.1081 15.5343 9.96594L12.5343 6.96594Z" fill="#575555"/>
</svg>
