<svg width="24" height="24" viewBox="0 0 24 24" fill="none" xmlns="http://www.w3.org/2000/svg">
<path opacity="0.2" d="M19.5 9L12 16.5L4.5 9H19.5Z" fill="#575555"/>
<path d="M12 17.25C11.8012 17.2473 11.6106 17.1704 11.4657 17.0344L3.96565 9.53438C3.86391 9.42594 3.79494 9.29091 3.76674 9.14491C3.73853 8.99891 3.75224 8.84791 3.80627 8.70938C3.86365 8.57288 3.96015 8.45641 4.08361 8.37467C4.20706 8.29292 4.35196 8.24954 4.50002 8.25H19.5C19.6481 8.24954 19.793 8.29292 19.9164 8.37467C20.0399 8.45641 20.1364 8.57288 20.1938 8.70938C20.2478 8.84791 20.2615 8.99891 20.2333 9.14491C20.2051 9.29091 20.1361 9.42594 20.0344 9.53438L12.5344 17.0344C12.3894 17.1704 12.1988 17.2473 12 17.25ZM6.3094 9.75L12 15.4406L17.6906 9.75H6.3094Z" fill="#575555"/>
</svg>
