<svg width="24" height="24" viewBox="0 0 24 24" fill="none" xmlns="http://www.w3.org/2000/svg">
<path d="M18.8906 5.10907C17.0631 3.28157 14.5844 2.25488 11.9999 2.25488C9.41546 2.25488 6.93682 3.28157 5.10932 5.10907C3.28181 6.93658 2.25513 9.41521 2.25513 11.9997C2.25513 14.5842 3.28181 17.0628 5.10932 18.8903C6.93682 20.7178 9.41546 21.7445 11.9999 21.7445C14.5844 21.7445 17.0631 20.7178 18.8906 18.8903C20.7181 17.0628 21.7448 14.5842 21.7448 11.9997C21.7448 9.41521 20.7181 6.93658 18.8906 5.10907ZM17.8312 17.8309C16.6777 18.9854 15.2077 19.7718 13.6072 20.0907C12.0066 20.4096 10.3475 20.2466 8.8396 19.6223C7.33172 18.9981 6.04284 17.9407 5.13602 16.5839C4.22921 15.227 3.74518 13.6317 3.74518 11.9997C3.74518 10.3677 4.22921 8.7724 5.13602 7.41554C6.04284 6.05869 7.33172 5.00127 8.8396 4.37705C10.3475 3.75282 12.0066 3.58984 13.6072 3.90871C15.2077 4.22759 16.6777 5.01399 17.8312 6.16845C18.6022 6.93128 19.2142 7.83943 19.632 8.84036C20.0497 9.84128 20.2648 10.9151 20.2648 11.9997C20.2648 13.0843 20.0497 14.1581 19.632 15.159C19.2142 16.16 18.6022 17.0681 17.8312 17.8309ZM15.9281 12.9934C16.0623 13.1402 16.1328 13.3342 16.124 13.5328C16.1152 13.7315 16.0278 13.9185 15.8812 14.0528C15.742 14.1779 15.562 14.2479 15.3749 14.2497C15.2708 14.2502 15.1677 14.2288 15.0724 14.1868C14.9771 14.1448 14.8917 14.0832 14.8218 14.0059L11.9999 10.8747L9.17807 14.0059C9.04257 14.1477 8.85694 14.2308 8.66094 14.2373C8.46495 14.2438 8.27419 14.1734 8.12954 14.041C7.98488 13.9086 7.89783 13.7248 7.88704 13.529C7.87625 13.3332 7.94258 13.1409 8.07182 12.9934L11.4468 9.24345C11.5171 9.16672 11.6025 9.10544 11.6978 9.06352C11.793 9.02161 11.8959 8.99996 11.9999 8.99996C12.104 8.99996 12.2069 9.02161 12.3021 9.06352C12.3973 9.10544 12.4828 9.16672 12.5531 9.24345L15.9281 12.9934Z" fill="#575555"/>
</svg>
