<svg width="24" height="24" viewBox="0 0 24 24" fill="none" xmlns="http://www.w3.org/2000/svg">
<path opacity="0.2" d="M12 21C16.9706 21 21 16.9706 21 12C21 7.02944 16.9706 3 12 3C7.02944 3 3 7.02944 3 12C3 16.9706 7.02944 21 12 21Z" fill="#575555"/>
<path d="M12 2.25C10.0716 2.25 8.18657 2.82183 6.58319 3.89317C4.97982 4.96451 3.73013 6.48726 2.99218 8.26884C2.25422 10.0504 2.06114 12.0108 2.43735 13.9021C2.81355 15.7934 3.74215 17.5307 5.10571 18.8943C6.46928 20.2579 8.20656 21.1865 10.0979 21.5627C11.9892 21.9389 13.9496 21.7458 15.7312 21.0078C17.5127 20.2699 19.0355 19.0202 20.1068 17.4168C21.1782 15.8134 21.75 13.9284 21.75 12C21.745 9.41566 20.7162 6.93859 18.8888 5.11118C17.0614 3.28378 14.5843 2.25496 12 2.25ZM12 20.25C10.3683 20.25 8.77326 19.7661 7.41655 18.8596C6.05984 17.9531 5.00242 16.6646 4.378 15.1571C3.75358 13.6496 3.5902 11.9908 3.90853 10.3905C4.22685 8.79016 5.01259 7.32015 6.16637 6.16637C7.32016 5.01259 8.79017 4.22685 10.3905 3.90852C11.9909 3.59019 13.6497 3.75357 15.1571 4.37799C16.6646 5.00242 17.9531 6.05984 18.8596 7.41655C19.7661 8.77325 20.25 10.3683 20.25 12C20.2475 14.1873 19.3775 16.2843 17.8309 17.8309C16.2843 19.3775 14.1873 20.2475 12 20.25Z" fill="#575555"/>
<path d="M12.5531 9.24349C12.4829 9.16676 12.3974 9.10548 12.3022 9.06357C12.207 9.02165 12.1041 9 12 9C11.896 9 11.7931 9.02165 11.6979 9.06357C11.6026 9.10548 11.5172 9.16676 11.4469 9.24349L8.0719 12.9935C7.94266 13.141 7.87633 13.3332 7.88712 13.529C7.89791 13.7248 7.98496 13.9086 8.12962 14.041C8.27428 14.1734 8.46504 14.2439 8.66103 14.2373C8.85702 14.2308 9.04265 14.1477 9.17815 14.006L12 10.8747L14.8219 14.006C14.8918 14.0832 14.9772 14.1449 15.0725 14.1869C15.1678 14.2289 15.2709 14.2503 15.375 14.2497C15.5621 14.2479 15.7421 14.1779 15.8813 14.0529C16.0279 13.9186 16.1153 13.7315 16.124 13.5329C16.1328 13.3342 16.0624 13.1402 15.9281 12.9935L12.5531 9.24349Z" fill="#575555"/>
</svg>
