<svg width="24" height="24" viewBox="0 0 24 24" fill="none" xmlns="http://www.w3.org/2000/svg">
<path opacity="0.2" d="M12 21C16.9706 21 21 16.9706 21 12C21 7.02944 16.9706 3 12 3C7.02944 3 3 7.02944 3 12C3 16.9706 7.02944 21 12 21Z" fill="#575555"/>
<path d="M12 2.25C10.0716 2.25 8.18657 2.82183 6.58319 3.89317C4.97982 4.96451 3.73013 6.48726 2.99218 8.26884C2.25422 10.0504 2.06114 12.0108 2.43735 13.9021C2.81355 15.7934 3.74215 17.5307 5.10571 18.8943C6.46928 20.2579 8.20656 21.1865 10.0979 21.5627C11.9892 21.9389 13.9496 21.7458 15.7312 21.0078C17.5127 20.2699 19.0355 19.0202 20.1068 17.4168C21.1782 15.8134 21.75 13.9284 21.75 12C21.745 9.41566 20.7162 6.93859 18.8888 5.11118C17.0614 3.28378 14.5843 2.25496 12 2.25ZM12 20.25C10.3683 20.25 8.77326 19.7661 7.41655 18.8596C6.05984 17.9531 5.00242 16.6646 4.378 15.1571C3.75358 13.6496 3.5902 11.9908 3.90853 10.3905C4.22685 8.79016 5.01259 7.32015 6.16637 6.16637C7.32016 5.01259 8.79017 4.22685 10.3905 3.90852C11.9909 3.59019 13.6497 3.75357 15.1571 4.37799C16.6646 5.00242 17.9531 6.05984 18.8596 7.41655C19.7661 8.77325 20.25 10.3683 20.25 12C20.2475 14.1873 19.3775 16.2843 17.8309 17.8309C16.2843 19.3775 14.1873 20.2475 12 20.25Z" fill="#575555"/>
<path d="M15.8813 10.3216C15.7346 10.1874 15.5405 10.1169 15.3419 10.1257C15.1432 10.1345 14.9562 10.2218 14.8219 10.3685L12 13.4998L9.17815 10.3685C9.04265 10.2267 8.85702 10.1437 8.66103 10.1371C8.46504 10.1306 8.27428 10.2011 8.12962 10.3335C7.98496 10.4659 7.89791 10.6497 7.88712 10.8455C7.87633 11.0413 7.94266 11.2335 8.0719 11.381L11.4469 15.131C11.5172 15.2077 11.6026 15.269 11.6979 15.3109C11.7931 15.3528 11.896 15.3745 12 15.3745C12.1041 15.3745 12.207 15.3528 12.3022 15.3109C12.3974 15.269 12.4829 15.2077 12.5531 15.131L15.9281 11.381C16.0624 11.2343 16.1328 11.0403 16.124 10.8416C16.1153 10.643 16.0279 10.4559 15.8813 10.3216Z" fill="#575555"/>
</svg>
