<svg width="24" height="24" viewBox="0 0 24 24" fill="none" xmlns="http://www.w3.org/2000/svg">
<path opacity="0.2" d="M4.5 15L12 7.5L19.5 15H4.5Z" fill="#575555"/>
<path d="M19.5 15.7503H4.50002C4.35196 15.7508 4.20706 15.7074 4.08361 15.6257C3.96015 15.5439 3.86365 15.4274 3.80627 15.2909C3.75224 15.1524 3.73853 15.0014 3.76674 14.8554C3.79494 14.7094 3.86391 14.5744 3.96565 14.4659L11.4657 6.96594C11.6078 6.8251 11.7999 6.74609 12 6.74609C12.2002 6.74609 12.3922 6.8251 12.5344 6.96594L20.0344 14.4659C20.1361 14.5744 20.2051 14.7094 20.2333 14.8554C20.2615 15.0014 20.2478 15.1524 20.1938 15.2909C20.1364 15.4274 20.0399 15.5439 19.9164 15.6257C19.793 15.7074 19.6481 15.7508 19.5 15.7503ZM6.3094 14.2503H17.6906L12 8.55969L6.3094 14.2503Z" fill="#575555"/>
</svg>
