<svg width="24" height="24" viewBox="0 0 24 24" fill="none" xmlns="http://www.w3.org/2000/svg">
<path opacity="0.2" d="M4.5 19.5L12 12L19.5 19.5H4.5Z" fill="#575555"/>
<path d="M12.5344 11.4659C12.3922 11.3251 12.2002 11.2461 12 11.2461C11.7999 11.2461 11.6078 11.3251 11.4657 11.4659L3.96565 18.9659C3.86391 19.0744 3.79494 19.2094 3.76674 19.3554C3.73853 19.5014 3.75224 19.6524 3.80627 19.7909C3.86365 19.9274 3.96015 20.0439 4.08361 20.1257C4.20706 20.2074 4.35196 20.2508 4.50002 20.2503H19.5C19.6481 20.2508 19.793 20.2074 19.9164 20.1257C20.0399 20.0439 20.1364 19.9274 20.1938 19.7909C20.2478 19.6524 20.2615 19.5014 20.2333 19.3554C20.2051 19.2094 20.1361 19.0744 20.0344 18.9659L12.5344 11.4659ZM6.3094 18.7503L12 13.0597L17.6906 18.7503H6.3094Z" fill="#575555"/>
<path d="M5.03436 12.5347L12 5.55969L18.9656 12.5347C19.109 12.6733 19.3006 12.7508 19.5 12.7508C19.6994 12.7508 19.891 12.6733 20.0344 12.5347C20.1752 12.3925 20.2542 12.2004 20.2542 12.0003C20.2542 11.8002 20.1752 11.6081 20.0344 11.4659L12.5344 3.96594C12.3922 3.8251 12.2001 3.74609 12 3.74609C11.7998 3.74609 11.6078 3.8251 11.4656 3.96594L3.96561 11.4659C3.88367 11.5332 3.81672 11.6168 3.76906 11.7115C3.72141 11.8062 3.6941 11.9098 3.6889 12.0157C3.6837 12.1215 3.70073 12.2273 3.73887 12.3262C3.77702 12.4251 3.83545 12.5149 3.9104 12.5899C3.98536 12.6648 4.07517 12.7233 4.17406 12.7614C4.27296 12.7996 4.37874 12.8166 4.48461 12.8114C4.59048 12.8062 4.69409 12.7789 4.78877 12.7312C4.88345 12.6836 4.96711 12.6166 5.03436 12.5347Z" fill="#575555"/>
</svg>
