<svg width="24" height="24" viewBox="0 0 24 24" fill="none" xmlns="http://www.w3.org/2000/svg">
<path d="M12 2.25C10.0716 2.25 8.18657 2.82183 6.58319 3.89317C4.97982 4.96451 3.73013 6.48726 2.99218 8.26884C2.25422 10.0504 2.06114 12.0108 2.43735 13.9021C2.81355 15.7934 3.74215 17.5307 5.10571 18.8943C6.46928 20.2579 8.20656 21.1865 10.0979 21.5627C11.9892 21.9389 13.9496 21.7458 15.7312 21.0078C17.5127 20.2699 19.0355 19.0202 20.1068 17.4168C21.1782 15.8134 21.75 13.9284 21.75 12C21.745 9.41566 20.7162 6.93859 18.8888 5.11118C17.0614 3.28378 14.5843 2.25496 12 2.25ZM12 20.25C10.3683 20.25 8.77326 19.7661 7.41655 18.8596C6.05984 17.9531 5.00242 16.6646 4.378 15.1571C3.75358 13.6496 3.5902 11.9908 3.90853 10.3905C4.22685 8.79016 5.01259 7.32015 6.16637 6.16637C7.32016 5.01259 8.79017 4.22685 10.3905 3.90852C11.9909 3.59019 13.6497 3.75357 15.1571 4.37799C16.6646 5.00242 17.9531 6.05984 18.8596 7.41655C19.7661 8.77325 20.25 10.3683 20.25 12C20.2475 14.1873 19.3775 16.2843 17.8309 17.8309C16.2843 19.3775 14.1873 20.2475 12 20.25ZM15.9281 11.3813L12.5531 15.1312C12.4829 15.208 12.3974 15.2693 12.3022 15.3112C12.207 15.3531 12.104 15.3747 12 15.3747C11.896 15.3747 11.7931 15.3531 11.6978 15.3112C11.6026 15.2693 11.5171 15.208 11.4469 15.1312L8.07188 11.3813C7.94264 11.2338 7.87631 11.0415 7.8871 10.8457C7.89789 10.6499 7.98494 10.4661 8.1296 10.3337C8.27426 10.2013 8.46502 10.1308 8.66101 10.1374C8.857 10.1439 9.04263 10.227 9.17813 10.3687L12 13.5L14.8219 10.3687C14.8877 10.2936 14.9678 10.2324 15.0576 10.1887C15.1474 10.145 15.245 10.1197 15.3447 10.1142C15.4444 10.1087 15.5442 10.1231 15.6383 10.1567C15.7323 10.1903 15.8187 10.2423 15.8923 10.3098C15.966 10.3772 16.0255 10.4586 16.0672 10.5493C16.109 10.64 16.1322 10.7382 16.1355 10.838C16.1389 10.9378 16.1223 11.0372 16.0866 11.1305C16.051 11.2238 15.9971 11.3091 15.9281 11.3813Z" fill="#575555"/>
</svg>
