<svg width="24" height="24" viewBox="0 0 24 24" fill="none" xmlns="http://www.w3.org/2000/svg">
<path opacity="0.2" d="M12 21C16.9706 21 21 16.9706 21 12C21 7.02944 16.9706 3 12 3C7.02944 3 3 7.02944 3 12C3 16.9706 7.02944 21 12 21Z" fill="#575555"/>
<path d="M18.8906 5.10982C17.9866 4.20332 16.9126 3.48409 15.7302 2.99335C14.5478 2.50261 13.2802 2.25 12 2.25C10.7197 2.25 9.45212 2.50261 8.2697 2.99335C7.08728 3.48409 6.01332 4.20332 5.10933 5.10982C4.20283 6.0138 3.4836 7.08777 2.99286 8.27019C2.50212 9.45261 2.24951 10.7202 2.24951 12.0004C2.24951 13.2807 2.50212 14.5483 2.99286 15.7307C3.4836 16.9131 4.20283 17.9871 5.10933 18.8911C6.01332 19.7976 7.08728 20.5168 8.2697 21.0076C9.45212 21.4983 10.7197 21.7509 12 21.7509C13.2802 21.7509 14.5478 21.4983 15.7302 21.0076C16.9126 20.5168 17.9866 19.7976 18.8906 18.8911C19.7971 17.9871 20.5163 16.9131 21.0071 15.7307C21.4978 14.5483 21.7504 13.2807 21.7504 12.0004C21.7504 10.7202 21.4978 9.45261 21.0071 8.27019C20.5163 7.08777 19.7971 6.0138 18.8906 5.10982ZM17.8312 17.8317C16.6777 18.9862 15.2077 19.7726 13.6072 20.0914C12.0066 20.4103 10.3475 20.2473 8.83962 19.6231C7.33173 18.9989 6.04286 17.9415 5.13604 16.5846C4.22922 15.2278 3.7452 13.6324 3.7452 12.0004C3.7452 10.3685 4.22922 8.77315 5.13604 7.41629C6.04286 6.05944 7.33173 5.00202 8.83962 4.3778C10.3475 3.75357 12.0066 3.59059 13.6072 3.90946C15.2077 4.22834 16.6777 5.01474 17.8312 6.1692C19.3746 7.71739 20.2413 9.81434 20.2413 12.0004C20.2413 14.1866 19.3746 16.2835 17.8312 17.8317Z" fill="#575555"/>
<path d="M16.2844 8.46594C16.1422 8.3251 15.9502 8.24609 15.7501 8.24609C15.5499 8.24609 15.3579 8.3251 15.2157 8.46594L12.2157 11.4659C12.0749 11.6081 11.9958 11.8002 11.9958 12.0003C11.9958 12.2004 12.0749 12.3925 12.2157 12.5347L15.2157 15.5347C15.359 15.6733 15.5507 15.7508 15.7501 15.7508C15.9495 15.7508 16.1411 15.6733 16.2844 15.5347C16.4253 15.3925 16.5043 15.2004 16.5043 15.0003C16.5043 14.8002 16.4253 14.6081 16.2844 14.4659L13.8094 12.0003L16.2844 9.53469C16.4253 9.39249 16.5043 9.20045 16.5043 9.00031C16.5043 8.80018 16.4253 8.60813 16.2844 8.46594ZM11.0344 8.46594C10.8922 8.3251 10.7002 8.24609 10.5001 8.24609C10.2999 8.24609 10.1079 8.3251 9.96569 8.46594L6.96569 11.4659C6.82486 11.6081 6.74585 11.8002 6.74585 12.0003C6.74585 12.2004 6.82486 12.3925 6.96569 12.5347L9.96569 15.5347C10.109 15.6733 10.3007 15.7508 10.5001 15.7508C10.6995 15.7508 10.8911 15.6733 11.0344 15.5347C11.1753 15.3925 11.2543 15.2004 11.2543 15.0003C11.2543 14.8002 11.1753 14.6081 11.0344 14.4659L8.55944 12.0003L11.0344 9.53469C11.1753 9.39249 11.2543 9.20045 11.2543 9.00031C11.2543 8.80018 11.1753 8.60813 11.0344 8.46594Z" fill="#575555"/>
</svg>
