<svg xmlns="http://www.w3.org/2000/svg" width="122" height="122" viewBox="0 0 122 122">
  <defs>
    <style>
      .cls-1 {
        fill: none;
      }

      .cls-2 {
        fill: #212121;
      }
    </style>
  </defs>
  <g id="채팅" transform="translate(-955 -370)">
    <rect id="사각형_3092" data-name="사각형 3092" class="cls-1" width="122" height="122" transform="translate(955 370)"/>
    <g id="그룹_5151" data-name="그룹 5151" transform="translate(977 390)">
      <g id="그룹_5145" data-name="그룹 5145">
        <g id="합치기_79" data-name="합치기 79">
          <path id="패스_2235" data-name="패스 2235" class="cls-1" d="M219.505,81.218,209.039,70.689H170.374a8.216,8.216,0,0,1-7.869-8.542V10.758A8.239,8.239,0,0,1,170.374,2.2h62.953a8.239,8.239,0,0,1,7.869,8.562V62.147a8.217,8.217,0,0,1-7.869,8.542H226.54V81.218a2.385,2.385,0,0,1-2.64,2.046A6.468,6.468,0,0,1,219.505,81.218Z" transform="translate(-162.498 -2.196)"/>
          <path id="패스_2236" data-name="패스 2236" class="cls-2" d="M221.031,74.943V65.182h12.3c1.275,0,2.357-1.393,2.357-3.037V10.759c0-1.656-1.082-3.049-2.357-3.049H170.365c-1.275,0-2.357,1.393-2.357,3.049V62.144c0,1.645,1.082,3.037,2.357,3.037h40.959l1.617,1.625,8.089,8.137m2.868,8.322a6.471,6.471,0,0,1-4.4-2.046L209.034,70.69H170.365c-4.344,0-7.865-3.817-7.865-8.546V10.759c0-4.725,3.521-8.562,7.865-8.562h62.961c4.344,0,7.865,3.836,7.865,8.562V62.144c0,4.729-3.521,8.546-7.865,8.546h-6.787V81.219A2.384,2.384,0,0,1,223.9,83.265Z" transform="translate(-162.493 -2.193)"/>
        </g>
        <g id="그룹_5138" data-name="그룹 5138" transform="translate(18.893 22.254)">
          <path id="패스_2237" data-name="패스 2237" class="cls-2" d="M184.164,13.36H170.054a2.754,2.754,0,0,1,0-5.508h14.109a2.754,2.754,0,0,1,0,5.508Z" transform="translate(-167.3 -7.852)"/>
        </g>
      </g>
      <g id="그룹_5148" data-name="그룹 5148" transform="translate(18.893 22.254)">
        <path id="패스_2238" data-name="패스 2238" class="cls-2" d="M184.164,13.36H170.054a2.754,2.754,0,0,1,0-5.508h14.109a2.754,2.754,0,0,1,0,5.508Z" transform="translate(-167.3 -7.852)"/>
      </g>
      <g id="그룹_5159" data-name="그룹 5159" transform="translate(18.893 37.78)">
        <path id="패스_2239" data-name="패스 2239" class="cls-2" d="M194.4,17.31H170.054a2.756,2.756,0,0,1,0-5.512H194.4a2.756,2.756,0,1,1,0,5.512Z" transform="translate(-167.3 -11.798)"/>
      </g>
    </g>
  </g>
</svg>
