<svg width="16" height="18" viewBox="0 0 16 18" fill="none" xmlns="http://www.w3.org/2000/svg">
<path fill-rule="evenodd" clip-rule="evenodd" d="M15.2522 7.02048L8.34448 0.686044C8.0717 0.436649 7.65085 0.442712 7.38674 0.699899L0.863525 7.03174C0.729301 7.1625 0.653098 7.34435 0.651367 7.53312V16.6343C0.651367 17.0188 0.964841 17.3322 1.34932 17.3322H6.14496C6.52945 17.3322 6.84292 17.0188 6.84292 16.6343V12.5314H9.2901V16.6325C9.2901 17.017 9.60358 17.3314 9.98806 17.3314H14.7828C15.1665 17.3296 15.4782 17.017 15.4782 16.6343V7.53486C15.4782 7.34089 15.3959 7.15384 15.2522 7.02048L15.2522 7.02048ZM9.9829 11.1306H6.14328C5.75879 11.1306 5.44532 11.4441 5.44532 11.8286V15.9314H2.04213V7.82528L7.8821 2.15676L14.0797 7.83913V15.9314H10.6765L10.6809 11.8286C10.6809 11.4441 10.3674 11.1306 9.9829 11.1306H9.9829Z" fill="#212121"/>
</svg>
