<svg xmlns="http://www.w3.org/2000/svg" width="122" height="122" viewBox="0 0 122 122">
  <defs>
    <style>
      .cls-1 {
        fill: none;
      }

      .cls-2 {
        fill: #212121;
      }
    </style>
  </defs>
  <g id="스케줄_직원용" data-name="스케줄 직원용" transform="translate(-483 -370)">
    <rect id="사각형_3089" data-name="사각형 3089" class="cls-1" width="122" height="122" transform="translate(483 370)"/>
    <g id="그룹_5141" data-name="그룹 5141" transform="translate(501 390.999)">
      <g id="사각형_2837" data-name="사각형 2837" transform="translate(0 6.568)">
        <rect id="사각형_3110" data-name="사각형 3110" class="cls-1" width="86.55" height="73.062" rx="2" transform="translate(0 0.004)"/>
        <path id="패스_2228" data-name="패스 2228" class="cls-2" d="M144.395,77.767H75.155a8.635,8.635,0,0,1-8.655-8.6V13.3a8.638,8.638,0,0,1,8.655-8.6h69.24a8.638,8.638,0,0,1,8.655,8.6V69.167A8.635,8.635,0,0,1,144.395,77.767ZM75.155,10.721a2.59,2.59,0,0,0-2.6,2.579V69.167a2.593,2.593,0,0,0,2.6,2.583h69.24a2.593,2.593,0,0,0,2.6-2.583V13.3a2.59,2.59,0,0,0-2.6-2.579Z" transform="translate(-66.5 -4.7)"/>
      </g>
      <g id="그룹_5140" data-name="그룹 5140" transform="translate(23.586)">
        <path id="패스_2229" data-name="패스 2229" class="cls-2" d="M75.582,23.64A3.282,3.282,0,0,1,72.3,20.358V6.581a3.282,3.282,0,1,1,6.563,0V20.358A3.282,3.282,0,0,1,75.582,23.64Z" transform="translate(-72.3 -3.299)"/>
        <path id="패스_2230" data-name="패스 2230" class="cls-2" d="M82.582,23.64A3.282,3.282,0,0,1,79.3,20.358V6.581a3.282,3.282,0,1,1,6.563,0V20.358A3.282,3.282,0,0,1,82.582,23.64Z" transform="translate(-46.484 -3.299)"/>
      </g>
      <rect id="사각형_3111" data-name="사각형 3111" class="cls-2" width="81.862" height="6.565" transform="translate(2.344 30.952)"/>
    </g>
  </g>
</svg>
