<svg xmlns="http://www.w3.org/2000/svg" width="122" height="122" viewBox="0 0 122 122">
  <defs>
    <style>
      .cls-1 {
        fill: none;
      }

      .cls-2 {
        fill: #212121;
      }
    </style>
  </defs>
  <g id="회원권" transform="translate(-1118 -375)">
    <rect id="사각형_3122" data-name="사각형 3122" class="cls-1" width="122" height="122" transform="translate(1118 375)"/>
    <g id="회원권-2" data-name="회원권" transform="translate(1135 402.001)">
      <g id="빼기_1" data-name="빼기 1" transform="translate(0 0)">
        <path id="패스_2132" data-name="패스 2132" class="cls-1" d="M16-236.432v-18a4.183,4.183,0,0,1,4.181-4.181h79.44a4.183,4.183,0,0,1,4.181,4.181v17.882a11.567,11.567,0,0,0-8.676,11.205,11.56,11.56,0,0,0,8.676,11.205v19.183a4.18,4.18,0,0,1-4.181,4.181H20.181A4.18,4.18,0,0,1,16-194.956v-19.3A11.572,11.572,0,0,0,23.722-228.7,11.582,11.582,0,0,0,16-236.42Z" transform="translate(-16 258.613)"/>
        <path id="패스_2133" data-name="패스 2133" class="cls-2" d="M21.853-240.149A17.569,17.569,0,0,1,30.1-225.344a17.564,17.564,0,0,1-8.241,14.805v13.915H97.949v-13.643a17.418,17.418,0,0,1-8.676-15.077,17.428,17.428,0,0,1,8.676-15.077V-252.76h-76.1v12.61M16-236.428v0l0-18a4.184,4.184,0,0,1,4.177-4.181h79.44a4.185,4.185,0,0,1,4.181,4.181v17.882a11.565,11.565,0,0,0-8.676,11.205,11.566,11.566,0,0,0,8.676,11.209v19.183a4.185,4.185,0,0,1-4.181,4.181H20.181A4.184,4.184,0,0,1,16-194.952v-19.3a11.641,11.641,0,0,0,8.241-11.088A11.64,11.64,0,0,0,16-236.428Z" transform="translate(-16 258.613)"/>
      </g>
      <rect id="사각형_3079" data-name="사각형 3079" class="cls-2" width="5.855" height="60.858" transform="translate(52.331 2.093)"/>
    </g>
  </g>
</svg>
