<svg
    [style.width]="width"
    [style.height]="width"
    [style.margin]="margin"
    [attr.fill] = "bgColor"
    viewBox="0 0 24 24"
    xmlns="http://www.w3.org/2000/svg"
>
    <path
        d="M18.8906 5.10982C17.9866 4.20332 16.9126 3.48409 15.7302 2.99335C14.5478 2.50261 13.2802 2.25 12 2.25C10.7197 2.25 9.45212 2.50261 8.2697 2.99335C7.08728 3.48409 6.01332 4.20332 5.10933 5.10982C4.20283 6.0138 3.4836 7.08777 2.99286 8.27019C2.50212 9.45261 2.24951 10.7202 2.24951 12.0004C2.24951 13.2807 2.50212 14.5483 2.99286 15.7307C3.4836 16.9131 4.20283 17.9871 5.10933 18.8911C6.01332 19.7976 7.08728 20.5168 8.2697 21.0076C9.45212 21.4983 10.7197 21.7509 12 21.7509C13.2802 21.7509 14.5478 21.4983 15.7302 21.0076C16.9126 20.5168 17.9866 19.7976 18.8906 18.8911C19.7971 17.9871 20.5163 16.9131 21.0071 15.7307C21.4978 14.5483 21.7504 13.2807 21.7504 12.0004C21.7504 10.7202 21.4978 9.45261 21.0071 8.27019C20.5163 7.08777 19.7971 6.0138 18.8906 5.10982ZM17.8312 17.8317C16.6777 18.9862 15.2077 19.7726 13.6072 20.0914C12.0066 20.4103 10.3475 20.2473 8.83962 19.6231C7.33173 18.9989 6.04286 17.9415 5.13604 16.5846C4.22922 15.2278 3.7452 13.6324 3.7452 12.0004C3.7452 10.3685 4.22922 8.77315 5.13604 7.41629C6.04286 6.05944 7.33173 5.00202 8.83962 4.3778C10.3475 3.75357 12.0066 3.59059 13.6072 3.90946C15.2077 4.22834 16.6777 5.01474 17.8312 6.1692C19.3746 7.71739 20.2413 9.81434 20.2413 12.0004C20.2413 14.1866 19.3746 16.2835 17.8312 17.8317ZM16.2843 9.53482L13.8093 12.0004L16.2843 14.4661C16.4252 14.6083 16.5042 14.8003 16.5042 15.0004C16.5042 15.2006 16.4252 15.3926 16.2843 15.5348C16.141 15.6734 15.9494 15.7509 15.75 15.7509C15.5505 15.7509 15.3589 15.6734 15.2156 15.5348L12.2156 12.5348C12.0747 12.3926 11.9957 12.2006 11.9957 12.0004C11.9957 11.8003 12.0747 11.6083 12.2156 11.4661L15.2156 8.46607C15.3613 8.34648 15.5463 8.28536 15.7346 8.2946C15.9229 8.30385 16.101 8.38281 16.2343 8.51611C16.3676 8.64941 16.4466 8.82753 16.4558 9.01581C16.4651 9.2041 16.4039 9.3891 16.2843 9.53482ZM11.0343 9.53482L8.55934 12.0004L11.0343 14.4661C11.1752 14.6083 11.2542 14.8003 11.2542 15.0004C11.2542 15.2006 11.1752 15.3926 11.0343 15.5348C10.891 15.6734 10.6994 15.7509 10.5 15.7509C10.3005 15.7509 10.1089 15.6734 9.96559 15.5348L6.96559 12.5348C6.82475 12.3926 6.74574 12.2006 6.74574 12.0004C6.74574 11.8003 6.82475 11.6083 6.96559 11.4661L9.96559 8.46607C10.1113 8.34648 10.2963 8.28536 10.4846 8.2946C10.6729 8.30385 10.851 8.38281 10.9843 8.51611C11.1176 8.64941 11.1966 8.82753 11.2058 9.01581C11.2151 9.2041 11.1539 9.3891 11.0343 9.53482Z"
        [attr.fill]="color"
    />
</svg>
