<svg
    class="d-flex align-items-center justify-content-center"
    [style.width]="width"
    [style.height]="height"
    [style.margin]="margin"
    [attr.fill] = "bgColor"
    viewBox="0 0 24 24"
    xmlns="http://www.w3.org/2000/svg"
>
    <path
        d="M22.6782 10.3688C22.5375 10.1776 22.354 10.022 22.1424 9.91458C21.9307 9.80712 21.6968 9.75077 21.4594 9.75005H20.2501V8.25005C20.2501 7.85223 20.092 7.4707 19.8107 7.18939C19.5294 6.90809 19.1479 6.75005 18.7501 6.75005H12.2532L9.64694 4.80005C9.38861 4.60283 9.07194 4.49727 8.74694 4.50005H3.75006C3.35224 4.50005 2.9707 4.65809 2.6894 4.93939C2.4081 5.2207 2.25006 5.60223 2.25006 6.00005V19.5001C2.2488 19.5989 2.26734 19.697 2.30459 19.7885C2.34183 19.8801 2.39703 19.9633 2.46692 20.0332C2.53682 20.1031 2.62 20.1583 2.71156 20.1955C2.80313 20.2328 2.90122 20.2513 3.00006 20.2501H19.5001C19.658 20.2501 19.8119 20.2002 19.9398 20.1076C20.0678 20.0151 20.1632 19.8844 20.2126 19.7344L22.8844 11.7282C22.9587 11.5012 22.9787 11.2601 22.9428 11.024C22.907 10.7879 22.8164 10.5635 22.6782 10.3688ZM8.74694 6.00005L11.3532 7.95005C11.6115 8.14728 11.9282 8.25284 12.2532 8.25005H18.7501V9.75005H6.54381C6.22912 9.74937 5.92218 9.84769 5.66644 10.0311C5.4107 10.2145 5.21912 10.4736 5.11881 10.7719L3.75006 14.8782V6.00005H8.74694Z"
        [attr.fill]="color"
    />
</svg>
