<svg width="122" height="122" viewBox="0 0 122 122" fill="none" xmlns="http://www.w3.org/2000/svg">
<path d="M101.5 29H21.5C20.837 29 20.2011 29.2593 19.7322 29.721C19.2634 30.1826 19 30.8087 19 31.4615V87.2564C19 88.7797 19.6146 90.2406 20.7085 91.3177C21.8025 92.3949 23.2862 93 24.8333 93H98.1667C99.7138 93 101.197 92.3949 102.291 91.3177C103.385 90.2406 104 88.7797 104 87.2564V31.4615C104 30.8087 103.737 30.1826 103.268 29.721C102.799 29.2593 102.163 29 101.5 29ZM61.5 64.241L27.9167 33.9231H95.0833L61.5 64.241ZM50.5417 61L24 84.959V37.041L50.5417 61ZM54.2083 64.3231L59.7917 69.3692C60.2594 69.7872 60.8684 70.0188 61.5 70.0188C62.1316 70.0188 62.7407 69.7872 63.2083 69.3692L68.7917 64.3231L95.0833 88.0769H27.9167L54.2083 64.3231ZM72.4583 61L99 37.041V84.959L72.4583 61Z" fill="#212121"/>
</svg>
