<svg width="24" height="24" viewBox="0 0 24 24" fill="none" xmlns="http://www.w3.org/2000/svg">
<path opacity="0.2" d="M3 11.25L12 2.25L21 11.25H16.5V17.25H7.5V11.25H3Z" fill="#575555"/>
<path d="M21.5344 10.7159L12.5344 1.71594C12.3922 1.5751 12.2002 1.49609 12 1.49609C11.7999 1.49609 11.6078 1.5751 11.4656 1.71594L2.46565 10.7159C2.36391 10.8244 2.29494 10.9594 2.26674 11.1054C2.23853 11.2514 2.25224 11.4024 2.30627 11.5409C2.36365 11.6774 2.46015 11.7939 2.58361 11.8756C2.70706 11.9574 2.85196 12.0008 3.00002 12.0003H6.75002V17.2503C6.75002 17.4492 6.82904 17.64 6.9697 17.7806C7.11035 17.9213 7.30111 18.0003 7.50002 18.0003H16.5C16.6989 18.0003 16.8897 17.9213 17.0304 17.7806C17.171 17.64 17.25 17.4492 17.25 17.2503V12.0003H21C21.1481 12.0008 21.293 11.9574 21.4164 11.8756C21.5399 11.7939 21.6364 11.6774 21.6938 11.5409C21.7478 11.4024 21.7615 11.2514 21.7333 11.1054C21.7051 10.9594 21.6361 10.8244 21.5344 10.7159ZM16.5 10.5003C16.3011 10.5003 16.1103 10.5793 15.9697 10.72C15.829 10.8606 15.75 11.0514 15.75 11.2503V16.5003H8.25002V11.2503C8.25002 11.0514 8.17101 10.8606 8.03035 10.72C7.8897 10.5793 7.69894 10.5003 7.50002 10.5003H4.8094L12 3.30969L19.1907 10.5003H16.5ZM17.25 20.2503C17.25 20.4492 17.171 20.64 17.0304 20.7806C16.8897 20.9213 16.6989 21.0003 16.5 21.0003H7.50002C7.30111 21.0003 7.11035 20.9213 6.9697 20.7806C6.82904 20.64 6.75002 20.4492 6.75002 20.2503C6.75002 20.0514 6.82904 19.8606 6.9697 19.72C7.11035 19.5793 7.30111 19.5003 7.50002 19.5003H16.5C16.6989 19.5003 16.8897 19.5793 17.0304 19.72C17.171 19.8606 17.25 20.0514 17.25 20.2503Z" fill="#575555"/>
</svg>
