<svg width="24" height="24" viewBox="0 0 24 24" fill="none" xmlns="http://www.w3.org/2000/svg">
<path opacity="0.2" d="M4.25626 16.5933C3.13959 14.7093 2.74899 12.4825 3.1578 10.331C3.5666 8.1794 4.74669 6.25104 6.47652 4.90789C8.20636 3.56474 10.367 2.89919 12.5527 3.03617C14.7385 3.17315 16.7991 4.10325 18.3477 5.65186C19.8963 7.20047 20.8264 9.26108 20.9634 11.4469C21.1004 13.6326 20.4348 15.7932 19.0917 17.5231C17.7486 19.2529 15.8202 20.433 13.6686 20.8418C11.5171 21.2506 9.29025 20.86 7.40626 19.7433L4.29376 20.6246C4.16624 20.6619 4.03103 20.6642 3.90231 20.6313C3.77359 20.5983 3.6561 20.5314 3.56215 20.4374C3.4682 20.3435 3.40126 20.226 3.36833 20.0973C3.33541 19.9686 3.33771 19.8334 3.37501 19.7058L4.25626 16.5933Z" fill="#575555"/>
<path d="M12 2.25C10.3067 2.24987 8.64255 2.69074 7.17141 3.52921C5.70026 4.36768 4.47285 5.57483 3.61001 7.03182C2.74717 8.4888 2.27866 10.1454 2.25061 11.8385C2.22255 13.5315 2.63592 15.2027 3.45001 16.6875L2.65313 19.5C2.57879 19.7563 2.57462 20.0278 2.64103 20.2863C2.70745 20.5447 2.84203 20.7806 3.03072 20.9693C3.21941 21.158 3.45529 21.2926 3.71374 21.359C3.97219 21.4254 4.24373 21.4212 4.50001 21.3469L7.31251 20.55C8.6159 21.2644 10.0654 21.6713 11.5501 21.7397C13.0349 21.8081 14.5156 21.5361 15.8791 20.9445C17.2427 20.353 18.4529 19.4575 19.4174 18.3266C20.3818 17.1956 21.0749 15.8592 21.4437 14.4193C21.8125 12.9795 21.8473 11.4744 21.5453 10.0191C21.2433 8.56374 20.6126 7.19672 19.7014 6.02249C18.7901 4.84826 17.6225 3.8979 16.2877 3.24406C14.9529 2.59022 13.4863 2.25021 12 2.25ZM12 20.25C10.5191 20.2486 9.06552 19.8504 7.79063 19.0969C7.67299 19.0313 7.54093 18.9959 7.40626 18.9938C7.33656 18.9938 7.26719 19.0033 7.20001 19.0219L4.08751 19.9125L4.97813 16.8C5.00553 16.7015 5.01301 16.5985 5.00013 16.4971C4.98725 16.3957 4.95428 16.2979 4.90313 16.2094C3.9744 14.6439 3.58947 12.8152 3.80829 11.0082C4.02711 9.20119 4.8374 7.51726 6.11294 6.21872C7.38848 4.92018 9.05767 4.07993 10.8605 3.82886C12.6633 3.57779 14.4986 3.92998 16.0804 4.83059C17.6622 5.7312 18.9018 7.12965 19.606 8.80813C20.3102 10.4866 20.4396 12.3509 19.9739 14.1105C19.5083 15.8702 18.4738 17.4264 17.0315 18.5369C15.5892 19.6474 13.8202 20.2497 12 20.25Z" fill="#575555"/>
<path d="M12 13.125C12.6213 13.125 13.125 12.6213 13.125 12C13.125 11.3787 12.6213 10.875 12 10.875C11.3787 10.875 10.875 11.3787 10.875 12C10.875 12.6213 11.3787 13.125 12 13.125Z" fill="#575555"/>
<path d="M7.5 13.125C8.12132 13.125 8.625 12.6213 8.625 12C8.625 11.3787 8.12132 10.875 7.5 10.875C6.87868 10.875 6.375 11.3787 6.375 12C6.375 12.6213 6.87868 13.125 7.5 13.125Z" fill="#575555"/>
<path d="M16.5 13.125C17.1213 13.125 17.625 12.6213 17.625 12C17.625 11.3787 17.1213 10.875 16.5 10.875C15.8787 10.875 15.375 11.3787 15.375 12C15.375 12.6213 15.8787 13.125 16.5 13.125Z" fill="#575555"/>
</svg>
