<svg width="24" height="24" viewBox="0 0 24 24" fill="none" xmlns="http://www.w3.org/2000/svg">
<path opacity="0.2" d="M19.5 8.25H4.5C4.08579 8.25 3.75 8.58579 3.75 9V19.5C3.75 19.9142 4.08579 20.25 4.5 20.25H19.5C19.9142 20.25 20.25 19.9142 20.25 19.5V9C20.25 8.58579 19.9142 8.25 19.5 8.25Z" fill="#575555"/>
<path d="M12 15.375C12.6213 15.375 13.125 14.8713 13.125 14.25C13.125 13.6287 12.6213 13.125 12 13.125C11.3787 13.125 10.875 13.6287 10.875 14.25C10.875 14.8713 11.3787 15.375 12 15.375Z" fill="#575555"/>
<path d="M19.5 7.5H16.125V4.875C16.125 3.78098 15.6904 2.73177 14.9168 1.95818C14.1432 1.1846 13.094 0.75 12 0.75C10.906 0.75 9.85677 1.1846 9.08318 1.95818C8.3096 2.73177 7.875 3.78098 7.875 4.875V7.5H4.5C4.10218 7.5 3.72064 7.65804 3.43934 7.93934C3.15804 8.22064 3 8.60218 3 9V19.5C3 19.8978 3.15804 20.2794 3.43934 20.5607C3.72064 20.842 4.10218 21 4.5 21H19.5C19.8978 21 20.2794 20.842 20.5607 20.5607C20.842 20.2794 21 19.8978 21 19.5V9C21 8.60218 20.842 8.22064 20.5607 7.93934C20.2794 7.65804 19.8978 7.5 19.5 7.5ZM9.375 4.875C9.375 4.17881 9.65156 3.51113 10.1438 3.01884C10.6361 2.52656 11.3038 2.25 12 2.25C12.6962 2.25 13.3639 2.52656 13.8562 3.01884C14.3484 3.51113 14.625 4.17881 14.625 4.875V7.5H9.375V4.875ZM19.5 19.5H4.5V9H19.5V19.5Z" fill="#575555"/>
</svg>
