<svg width="24" height="24" viewBox="0 0 24 24" fill="none" xmlns="http://www.w3.org/2000/svg">
<path opacity="0.2" d="M9.37504 4.125C9.37504 3.60583 9.529 3.09831 9.81744 2.66663C10.1059 2.23495 10.5158 1.8985 10.9955 1.69982C11.4752 1.50114 12.003 1.44915 12.5122 1.55044C13.0214 1.65173 13.4891 1.90173 13.8562 2.26885C14.2233 2.63596 14.4733 3.10369 14.5746 3.61289C14.6759 4.12209 14.6239 4.64989 14.4252 5.12955C14.2265 5.6092 13.8901 6.01917 13.4584 6.30761C13.0267 6.59605 12.5192 6.75 12 6.75C11.3039 6.75 10.6362 6.47344 10.1439 5.98116C9.65161 5.48887 9.37504 4.82119 9.37504 4.125ZM19.2844 13.575L15.5719 8.80313C15.3989 8.62836 15.1931 8.48952 14.9662 8.39459C14.7393 8.29967 14.496 8.25053 14.25 8.25H9.75004C9.50413 8.25053 9.26074 8.29967 9.03388 8.39459C8.80703 8.48952 8.60118 8.62836 8.42817 8.80313L4.71567 13.575C4.53614 13.7907 4.4437 14.0657 4.45649 14.346C4.46929 14.6264 4.58639 14.8918 4.78483 15.0902C4.98326 15.2886 5.24869 15.4058 5.52903 15.4186C5.80936 15.4313 6.08436 15.3389 6.30004 15.1594L9.56254 12.6281L6.95629 20.8406C6.89351 20.9748 6.85776 21.1201 6.85111 21.2681C6.84445 21.4161 6.86702 21.564 6.91751 21.7032C6.968 21.8425 7.04543 21.9705 7.14538 22.0799C7.24534 22.1892 7.36585 22.2778 7.50004 22.3406C7.63424 22.4034 7.77949 22.4392 7.92749 22.4458C8.0755 22.4525 8.22337 22.4299 8.36266 22.3794C8.50195 22.3289 8.62993 22.2515 8.73929 22.1515C8.84865 22.0516 8.93726 21.9311 9.00004 21.7969L12 17.0719L15 21.7969C15.0628 21.9311 15.1514 22.0516 15.2608 22.1515C15.3702 22.2515 15.4981 22.3289 15.6374 22.3794C15.7767 22.4299 15.9246 22.4525 16.0726 22.4458C16.2206 22.4392 16.3658 22.4034 16.5 22.3406C16.6342 22.2778 16.7548 22.1892 16.8547 22.0799C16.9547 21.9705 17.0321 21.8425 17.0826 21.7032C17.1331 21.564 17.1556 21.4161 17.149 21.2681C17.1423 21.1201 17.1066 20.9748 17.0438 20.8406L14.4375 12.6281L17.7 15.1594C17.9157 15.3389 18.1907 15.4313 18.4711 15.4186C18.7514 15.4058 19.0168 15.2886 19.2153 15.0902C19.4137 14.8918 19.5308 14.6264 19.5436 14.346C19.5564 14.0657 19.464 13.7907 19.2844 13.575Z" fill="#575555"/>
<path d="M15.375 4.125C15.375 3.45749 15.177 2.80497 14.8062 2.24995C14.4353 1.69494 13.9082 1.26235 13.2915 1.00691C12.6748 0.751462 11.9962 0.684626 11.3415 0.814851C10.6869 0.945076 10.0855 1.26651 9.61348 1.73852C9.14148 2.21052 8.82004 2.81189 8.68982 3.46657C8.55959 4.12126 8.62643 4.79986 8.88187 5.41656C9.13732 6.03326 9.5699 6.56036 10.1249 6.93121C10.6799 7.30206 11.3325 7.5 12 7.5C12.4432 7.5 12.882 7.4127 13.2915 7.24309C13.701 7.07348 14.0731 6.82488 14.3865 6.51149C14.6999 6.19809 14.9485 5.82603 15.1181 5.41656C15.2877 5.00708 15.375 4.56821 15.375 4.125ZM12 6C11.6291 6 11.2666 5.89003 10.9583 5.68401C10.6499 5.47798 10.4096 5.18514 10.2677 4.84253C10.1258 4.49992 10.0886 4.12292 10.161 3.75921C10.2333 3.39549 10.4119 3.0614 10.6741 2.79918C10.9364 2.53695 11.2705 2.35838 11.6342 2.28603C11.9979 2.21368 12.3749 2.25081 12.7175 2.39273C13.0601 2.53464 13.3529 2.77497 13.559 3.08331C13.765 3.39165 13.875 3.75416 13.875 4.125C13.8725 4.62152 13.6742 5.09701 13.3231 5.4481C12.972 5.7992 12.4965 5.99754 12 6ZM19.8562 13.0781L16.1718 8.33438L16.1062 8.26875C15.8631 8.02417 15.5738 7.83028 15.2551 7.69832C14.9365 7.56635 14.5948 7.49895 14.25 7.5H9.74997C9.40509 7.49895 9.06343 7.56635 8.74479 7.69832C8.42615 7.83028 8.13687 8.02417 7.89372 8.26875L7.82809 8.33438L4.14372 13.0781C3.79189 13.43 3.59424 13.9071 3.59424 14.4047C3.59424 14.9022 3.79189 15.3794 4.14372 15.7313C4.49554 16.0831 4.97272 16.2807 5.47028 16.2807C5.96784 16.2807 6.44502 16.0831 6.79684 15.7313L8.11872 14.7L6.26247 20.5781C6.06951 21.0142 6.05271 21.5081 6.21559 21.9562C6.38845 22.424 6.7388 22.8046 7.19059 23.0156C7.41334 23.1213 7.6549 23.1815 7.90118 23.1927C8.14745 23.204 8.3935 23.1661 8.62497 23.0812C9.07116 22.9141 9.43891 22.5865 9.65622 22.1625L12 18.4688L14.3437 22.1625C14.561 22.5865 14.9288 22.9141 15.375 23.0812C15.5827 23.1549 15.8014 23.1929 16.0218 23.1937C16.2945 23.1951 16.5638 23.1342 16.8093 23.0156C17.2611 22.8046 17.6115 22.424 17.7843 21.9562C17.9472 21.5081 17.9304 21.0142 17.7375 20.5781L15.8812 14.7L17.2031 15.7313C17.5549 16.0831 18.0321 16.2807 18.5297 16.2807C19.0272 16.2807 19.5044 16.0831 19.8562 15.7313C20.208 15.3794 20.4057 14.9022 20.4057 14.4047C20.4057 13.9071 20.208 13.43 19.8562 13.0781ZM18.7593 14.6344C18.6866 14.7016 18.5912 14.7389 18.4922 14.7389C18.3931 14.7389 18.2977 14.7016 18.225 14.6344L18.1593 14.5687L14.8968 12.0375C14.7706 11.9413 14.6171 11.8876 14.4584 11.8842C14.2997 11.8808 14.1441 11.9278 14.0138 12.0185C13.8835 12.1091 13.7854 12.2388 13.7335 12.3888C13.6816 12.5387 13.6786 12.7013 13.725 12.8531L16.3218 21.0656C16.3327 21.0975 16.3452 21.1288 16.3593 21.1594C16.3817 21.2026 16.3941 21.2503 16.3957 21.2989C16.3973 21.3476 16.3881 21.396 16.3687 21.4406C16.354 21.4876 16.3298 21.531 16.2975 21.5681C16.2653 21.6052 16.2257 21.6352 16.1812 21.6562C16.1363 21.6788 16.0871 21.6912 16.0369 21.6929C15.9868 21.6945 15.9368 21.6852 15.8906 21.6656C15.8451 21.6503 15.8033 21.6258 15.7678 21.5935C15.7323 21.5612 15.7039 21.5219 15.6843 21.4781C15.6652 21.4521 15.6495 21.4237 15.6375 21.3937L12.6375 16.6688C12.5686 16.5623 12.4742 16.4749 12.3628 16.4143C12.2515 16.3537 12.1267 16.322 12 16.322C11.8732 16.322 11.7485 16.3537 11.6371 16.4143C11.5258 16.4749 11.4313 16.5623 11.3625 16.6688L8.36247 21.3937C8.35045 21.4237 8.3347 21.4521 8.31559 21.4781C8.29605 21.5219 8.26763 21.5612 8.23213 21.5935C8.19663 21.6258 8.15482 21.6503 8.10934 21.6656C8.06311 21.6852 8.01318 21.6945 7.963 21.6929C7.91282 21.6912 7.8636 21.6788 7.81872 21.6562C7.77427 21.6352 7.73467 21.6052 7.7024 21.5681C7.67013 21.531 7.6459 21.4876 7.63122 21.4406C7.61182 21.396 7.6026 21.3476 7.60422 21.2989C7.60585 21.2503 7.61827 21.2026 7.64059 21.1594C7.6547 21.1288 7.66722 21.0975 7.67809 21.0656L10.275 12.8531C10.3233 12.6999 10.3211 12.5352 10.2688 12.3833C10.2165 12.2314 10.1168 12.1003 9.98434 12.0094C9.8544 11.9175 9.69804 11.8706 9.539 11.8757C9.37996 11.8808 9.22692 11.9376 9.10309 12.0375L5.84059 14.5687L5.77497 14.6344C5.70411 14.7052 5.608 14.745 5.50778 14.745C5.40757 14.745 5.31146 14.7052 5.24059 14.6344C5.16973 14.5635 5.12992 14.4674 5.12992 14.3672C5.12992 14.267 5.16973 14.1709 5.24059 14.1L5.30622 14.0344L8.98122 9.3C9.18971 9.10542 9.46479 8.99807 9.74997 9H14.25C14.5351 8.99807 14.8102 9.10542 15.0187 9.3L18.6937 14.0344L18.7593 14.1C18.795 14.1357 18.8233 14.1781 18.8426 14.2247C18.8619 14.2714 18.8719 14.3214 18.8718 14.3719C18.8694 14.4706 18.8292 14.5646 18.7593 14.6344Z" fill="#141517"/>
</svg>
