<svg width="24" height="24" viewBox="0 0 24 24" fill="none" xmlns="http://www.w3.org/2000/svg">
<path opacity="0.2" d="M11.9999 3C10.1788 2.99947 8.40042 3.55141 6.89961 4.5829C5.3988 5.6144 4.24621 7.07692 3.59411 8.77726C2.942 10.4776 2.82106 12.3358 3.24726 14.1063C3.67346 15.8768 4.62675 17.4764 5.9812 18.6937C6.54557 17.5824 7.40665 16.649 8.469 15.997C9.53135 15.345 10.7535 14.9999 11.9999 15C11.2583 15 10.5332 14.7801 9.91656 14.368C9.29987 13.956 8.81923 13.3703 8.5354 12.6851C8.25157 11.9998 8.17731 11.2458 8.322 10.5184C8.4667 9.79098 8.82385 9.1228 9.3483 8.59835C9.87274 8.0739 10.5409 7.71675 11.2684 7.57205C11.9958 7.42736 12.7498 7.50162 13.435 7.78545C14.1202 8.06928 14.7059 8.54993 15.118 9.16661C15.53 9.7833 15.7499 10.5083 15.7499 11.25C15.7499 12.2446 15.3549 13.1984 14.6516 13.9017C13.9483 14.6049 12.9945 15 11.9999 15C13.2464 14.9999 14.4685 15.345 15.5309 15.997C16.5932 16.649 17.4543 17.5824 18.0187 18.6937C19.3731 17.4764 20.3264 15.8768 20.7526 14.1063C21.1788 12.3358 21.0579 10.4776 20.4058 8.77726C19.7537 7.07692 18.6011 5.6144 17.1003 4.5829C15.5995 3.55141 13.821 2.99947 11.9999 3Z" fill="#575555"/>
<path d="M22.1999 11.9535C22.2005 10.2484 21.7757 8.57019 20.964 7.07075C20.1524 5.57131 18.9795 4.29804 17.5516 3.36624C16.1237 2.43444 14.4859 1.87356 12.7866 1.7344C11.0872 1.59523 9.38 1.88218 7.81953 2.56925C6.25907 3.25632 4.89465 4.32181 3.84984 5.66922C2.80504 7.01663 2.11286 8.60338 1.83599 10.2858C1.55913 11.9682 1.70632 13.6931 2.26425 15.3042C2.82217 16.9154 3.7732 18.3619 5.0312 19.5128L5.15933 19.6311C7.03316 21.2884 9.44838 22.2032 11.95 22.2032C14.4515 22.2032 16.8667 21.2884 18.7406 19.6311L18.8687 19.5128C19.9194 18.554 20.7585 17.3864 21.3321 16.0847C21.9057 14.783 22.2013 13.3759 22.1999 11.9535ZM3.27687 11.9535C3.27636 10.5487 3.61703 9.16494 4.26961 7.92102C4.92219 6.6771 5.86715 5.6103 7.02321 4.81236C8.17927 4.01442 9.51185 3.50921 10.9063 3.34019C12.3008 3.17116 13.7155 3.34338 15.0288 3.84203C16.342 4.34068 17.5144 5.15083 18.4453 6.20283C19.3761 7.25482 20.0376 8.51717 20.3726 9.88132C20.7077 11.2455 20.7065 12.6706 20.3689 14.0342C20.0314 15.3977 19.3678 16.6589 18.435 17.7092C17.5559 16.4343 16.3174 15.4497 14.8771 14.8806C15.6496 14.2722 16.2133 13.4381 16.4898 12.4944C16.7663 11.5508 16.7419 10.5444 16.4199 9.61522C16.098 8.68607 15.4945 7.88034 14.6933 7.31009C13.8922 6.73984 12.9333 6.43341 11.95 6.43341C10.9666 6.43341 10.0077 6.73984 9.20656 7.31009C8.40544 7.88034 7.80192 8.68607 7.47995 9.61522C7.15798 10.5444 7.13355 11.5508 7.41006 12.4944C7.68657 13.4381 8.25028 14.2722 9.02279 14.8806C7.58247 15.4497 6.34398 16.4343 5.46486 17.7092C4.05288 16.1248 3.27398 14.0758 3.27687 11.9535ZM8.7961 11.165C8.7961 10.5412 8.98107 9.93146 9.32762 9.41281C9.67417 8.89416 10.1667 8.48992 10.743 8.25122C11.3193 8.01251 11.9534 7.95005 12.5652 8.07175C13.177 8.19344 13.739 8.49381 14.1801 8.93489C14.6211 9.37596 14.9215 9.93792 15.0432 10.5497C15.1649 11.1615 15.1024 11.7956 14.8637 12.3719C14.625 12.9482 14.2208 13.4408 13.7021 13.7873C13.1835 14.1339 12.5737 14.3188 11.95 14.3188C11.1143 14.3162 10.3136 13.9831 9.72272 13.3922C9.13182 12.8013 8.7987 12.0006 8.7961 11.165ZM6.63769 18.8032C7.20826 17.912 7.99388 17.1787 8.92221 16.6707C9.85054 16.1628 10.8917 15.8965 11.95 15.8965C13.0082 15.8965 14.0494 16.1628 14.9777 16.6707C15.906 17.1787 16.6916 17.912 17.2622 18.8032C15.7433 19.9844 13.8741 20.6257 11.95 20.6257C10.0258 20.6257 8.15657 19.9844 6.63769 18.8032Z" fill="#141517"/>
</svg>
