<svg
    class="d-flex align-items-center justify-content-center"
    [style.width]="width"
    [style.height]="width"
    [style.margin]="margin"
    [attr.fill] = "bgColor"
    viewBox="0 0 22 22"
    xmlns="http://www.w3.org/2000/svg"
>
    <path
        d="M2.6279 6.12489C2.6279 5.70463 2.75146 5.2938 2.98296 4.94437C3.21447 4.59493 3.54351 4.32258 3.92849 4.16175C4.31347 4.00092 4.73709 3.95884 5.14578 4.04083C5.55447 4.12282 5.92987 4.3252 6.22452 4.62237C6.51917 4.91954 6.71983 5.29816 6.80112 5.71035C6.88242 6.12254 6.84069 6.54978 6.68123 6.93806C6.52177 7.32633 6.25173 7.65819 5.90526 7.89168C5.55879 8.12516 5.15145 8.24979 4.73475 8.24979C4.17598 8.24979 3.64009 8.02591 3.24498 7.62742C2.84987 7.22892 2.6279 6.68845 2.6279 6.12489ZM15.269 6.12489C15.269 5.70463 15.3926 5.2938 15.6241 4.94437C15.8556 4.59493 16.1846 4.32258 16.5696 4.16175C16.9546 4.00092 17.3782 3.95884 17.7869 4.04083C18.1956 4.12282 18.571 4.3252 18.8656 4.62237C19.1603 4.91954 19.361 5.29816 19.4422 5.71035C19.5235 6.12254 19.4818 6.54978 19.3224 6.93806C19.1629 7.32633 18.8929 7.65819 18.5464 7.89168C18.1999 8.12516 17.7926 8.24979 17.3759 8.24979C16.8171 8.24979 16.2812 8.02591 15.8861 7.62742C15.491 7.22892 15.269 6.68845 15.269 6.12489ZM19.5705 14.6245C18.7076 16.1321 17.4664 17.3841 15.9717 18.2546C14.477 19.1251 12.7813 19.5833 11.0553 19.5833C9.32928 19.5833 7.63367 19.1251 6.13893 18.2546C4.64418 17.3841 3.40299 16.1321 2.54011 14.6245C2.43018 14.4636 2.35443 14.2816 2.31761 14.0898C2.28078 13.898 2.28369 13.7006 2.32614 13.51C2.36859 13.3194 2.44967 13.1397 2.56428 12.9823C2.67889 12.8248 2.82456 12.6929 2.99213 12.5949C3.1597 12.497 3.34555 12.435 3.538 12.413C3.73045 12.3909 3.92535 12.4092 4.11044 12.4668C4.29553 12.5244 4.46681 12.6199 4.61353 12.7474C4.76025 12.875 4.87923 13.0317 4.96299 13.2079C5.58157 14.285 6.47003 15.1792 7.53931 15.8009C8.60858 16.4225 9.82111 16.7497 11.0553 16.7497C12.2895 16.7497 13.502 16.4225 14.5713 15.8009C15.6406 15.1792 16.5291 14.285 17.1476 13.2079C17.3483 12.9143 17.6513 12.7078 17.9963 12.6297C18.3412 12.5515 18.7027 12.6075 19.0085 12.7863C19.3144 12.9651 19.5421 13.2537 19.6463 13.5944C19.7505 13.9351 19.7234 14.303 19.5705 14.6245Z"
        [attr.fill]="color"
    />
</svg>
