<svg
  width="22" height="22" viewBox="0 0 22 22"
  fill="none" xmlns="http://www.w3.org/2000/svg"
>
<path
  fill-rule="evenodd"
  clip-rule="evenodd"
  d="M19.245 11C19.245 15.554 15.5533 19.2457 10.9993 19.2457C6.44529 19.2457 2.75356 15.554 2.75356 11C2.75356 6.44603 6.44529 2.75429 10.9993 2.75429C15.5533 2.75429 19.245 6.44603 19.245 11ZM21.0278 11C21.0278 16.5386 16.5379 21.0286 10.9993 21.0286C5.46065 21.0286 0.970703 16.5386 0.970703 11C0.970703 5.46138 5.46065 0.971436 10.9993 0.971436C16.5379 0.971436 21.0278 5.46138 21.0278 11ZM12.1612 6.70885V11.632C12.1612 12.2165 11.686 12.6917 11.1014 12.6917C10.5169 12.6917 10.0441 12.2165 10.0441 11.632V6.70885C10.0441 6.1243 10.5169 5.65147 11.1014 5.65147C11.686 5.65147 12.1612 6.1243 12.1612 6.70885ZM12.0424 14.1507C12.5604 14.6686 12.558 15.5097 12.04 16.0277L12.0424 16.0277C11.7929 16.2748 11.4555 16.415 11.1038 16.415C10.7498 16.415 10.41 16.2748 10.1605 16.0253C9.64256 15.505 9.64495 14.6639 10.1653 14.1459C10.6833 13.6279 11.5244 13.6303 12.0424 14.1507Z"
  fill="#C2273B"
/>
</svg>
