<svg width="24" height="24" viewBox="0 0 24 24" fill="none" xmlns="http://www.w3.org/2000/svg">
<path d="M2.86669 6.68135C2.86669 6.22288 3.00148 5.7747 3.25403 5.3935C3.50658 5.0123 3.86554 4.71518 4.28552 4.53973C4.70549 4.36429 5.16762 4.31838 5.61347 4.40782C6.05931 4.49727 6.46884 4.71804 6.79028 5.04223C7.11171 5.36642 7.33061 5.77945 7.4193 6.22911C7.50798 6.67878 7.46246 7.14486 7.2885 7.56843C7.11454 7.992 6.81995 8.35404 6.44199 8.60875C6.06402 8.86346 5.61965 8.99941 5.16507 8.99941C4.5555 8.99941 3.9709 8.75519 3.53987 8.32047C3.10884 7.88574 2.86669 7.29614 2.86669 6.68135ZM16.657 6.68135C16.657 6.22288 16.7918 5.7747 17.0444 5.3935C17.2969 5.0123 17.6559 4.71518 18.0758 4.53973C18.4958 4.36429 18.9579 4.31838 19.4038 4.40782C19.8496 4.49727 20.2592 4.71804 20.5806 5.04223C20.902 5.36642 21.1209 5.77945 21.2096 6.22911C21.2983 6.67878 21.2528 7.14486 21.0788 7.56843C20.9049 7.992 20.6103 8.35404 20.2323 8.60875C19.8543 8.86346 19.41 8.99941 18.9554 8.99941C18.3458 8.99941 17.7612 8.75519 17.3302 8.32047C16.8992 7.88574 16.657 7.29614 16.657 6.68135ZM21.3495 15.9536C20.4082 17.5983 19.0542 18.9641 17.4236 19.9137C15.7929 20.8633 13.9432 21.3633 12.0602 21.3633C10.1773 21.3633 8.32753 20.8633 6.6969 19.9137C5.06627 18.9641 3.71224 17.5983 2.77092 15.9536C2.651 15.7781 2.56836 15.5796 2.52819 15.3703C2.48802 15.1611 2.49119 14.9458 2.5375 14.7379C2.58381 14.5299 2.67226 14.3339 2.79729 14.1621C2.92232 13.9903 3.08123 13.8465 3.26403 13.7396C3.44683 13.6327 3.64958 13.5651 3.85952 13.5411C4.06947 13.517 4.28208 13.537 4.484 13.5998C4.68592 13.6626 4.87278 13.7668 5.03283 13.9059C5.19289 14.0451 5.32269 14.2161 5.41406 14.4082C6.08887 15.5833 7.0581 16.5588 8.22459 17.237C9.39107 17.9151 10.7138 18.2721 12.0602 18.2721C13.4066 18.2721 14.7294 17.9151 15.8959 17.237C17.0624 16.5588 18.0316 15.5833 18.7064 14.4082C18.9253 14.088 19.2559 13.8627 19.6322 13.7775C20.0085 13.6922 20.4028 13.7532 20.7365 13.9483C21.0701 14.1434 21.3186 14.4582 21.4322 14.8299C21.5459 15.2016 21.5163 15.6029 21.3495 15.9536Z" fill="#575555"/>
</svg>
